<?xml version="1.0" encoding="UTF-8"?>
<svg xmlns="http://www.w3.org/2000/svg" version="1.1" viewBox="0 0 594.84 595.28">
  <defs>
    <style>
      .cls-1 {
        fill: #eb2127;
      }
    </style>
  </defs>
  <!-- Generator: Adobe Illustrator 28.6.0, SVG Export Plug-In . SVG Version: 1.2.0 Build 709)  -->
  <g>
    <g id="Layer_1">
      <g>
        <g>
          <path class="cls-1" d="M167.13,451.13c-10.43-10.6-20.87-21.21-31.06-32.05-4.93-5.23-10.67-5.93-14.18-.97-2.78,3.91-2.04,7.8,1.08,11.01,12.06,12.42,24.25,24.74,36.45,37.02,4.23,4.26,9.02,6.51,15.25,2.33v-11.27c-3.26-2.59-5.62-4.12-7.53-6.07Z"/>
          <path class="cls-1" d="M451.98,294.01c0,4.9.28,9.83-.07,14.71-.43,6.1-4.39,9.56-9.45,8.86-4.89-.67-7.63-4.74-7.08-10.49,6.59-69.01-36.94-130.64-104.45-147.88-.68-.17-1.33-.43-2-.63-5.71-1.77-8.21-5.64-6.76-10.48,1.36-4.57,5.53-6.68,10.89-5.41,22.51,5.32,42.94,15.08,60.86,29.67,38.5,31.34,57.58,72.18,58.07,121.65Z"/>
          <path class="cls-1" d="M142.51,293.33c-.26-71.56,48.87-133.85,118.08-150.37,6.28-1.5,10.42.36,11.78,5.29,1.45,5.27-1.48,9.15-8.45,10.88-29.9,7.4-54.86,22.81-74.25,46.7-23.86,29.4-33.71,63.24-30.58,100.9.51,6.09-2.14,10.28-7.2,10.89-4.99.6-8.91-2.96-9.31-9.06-.33-5.06-.07-10.16-.07-15.24Z"/>
          <path class="cls-1" d="M516.28,322.09c-.52,5.31-4.33,8.32-9.24,7.89-4.7-.41-7.23-3.8-7.21-9.15.07-17.96.07-35.91,0-53.87-.02-5.29,2.55-8.78,7.19-9.21,4.88-.45,8.67,2.56,9.21,7.93.95,9.37.97,47.03.05,56.41Z"/>
          <path class="cls-1" d="M324.98,74.88c5.73.52,8.88,4.27,8.34,9.35-.51,4.8-4.03,7.05-9.87,7.01-17.46-.13-34.92-.13-52.38,0-5.84.04-9.37-2.19-9.88-6.98-.55-5.09,2.59-8.85,8.31-9.37,9.23-.84,46.25-.84,55.48,0Z"/>
          <path class="cls-1" d="M94.49,268.45c0,17.17-.13,33.93.06,50.68.07,6.72-1.95,10.3-7.09,10.77-5.4.5-8.54-2.88-9.33-9.54-2.09-17.63-2.12-35.23-.01-52.86.81-6.78,3.78-10.13,9.15-9.76,5.3.36,7.68,4.04,7.22,10.71Z"/>
          <path class="cls-1" d="M177.63,124.97c.2,2.46-3.27,5.59-5.3,7.2-13.65,10.85-25.89,23.06-36.69,36.75-3.73,4.73-8.43,5.35-12.33,2.14-3.75-3.09-4.15-7.64-.69-12.13,11.61-15.07,24.83-28.59,40.21-39.81,2.19-1.59,6.08-2.72,8.88-2.37,3.68.46,5.92,4.76,5.91,8.22Z"/>
          <path class="cls-1" d="M472.14,159.38c2.3,3.51,2.14,8.22-.82,11.19-.47.47-.98.86-1.55,1.12-2.29,1.03-3.98,1.88-7.29.23-1.32-.66-3.4-2.96-4.63-4.19-11.49-11.5-22.99-23-34.5-34.48-.49-.49-1.11-.86-1.63-1.33-4.16-3.75-4.77-8.27-1.63-12.02,3.02-3.61,7.49-4.17,11.68-.89,5.65,4.42,11.38,8.86,16.4,13.95,7.99,8.09,15.48,16.68,23.03,25.19.34.38.65.8.94,1.24Z"/>
        </g>
        <path class="cls-1" d="M174.67,482.02v-13.55s.03-.01.04-.03c0,4.96.27,9.33-.04,13.58Z"/>
        <path class="cls-1" d="M174.71,450.01v7.22s-.03-.03-.04-.03v-119.93c.22,37.58.04,75.15.04,112.74Z"/>
        <path class="cls-1" d="M541.68,232.29c-10.64-1.98-21.1-5-31.53-7.97-2.07-.59-4.32-2.7-5.26-4.68-3.08-6.45-5.43-13.27-8.41-19.78-1.29-2.84-1.36-4.95.35-7.69,6.56-10.54,12.86-21.25,19.23-31.93,7.13-11.98,5.92-22.56-3.81-32.34-16.3-16.39-32.65-32.75-49.04-49.05-9.82-9.8-20.31-10.98-32.34-3.78-10.53,6.28-21.11,12.47-31.47,18.99-3.09,1.94-5.47,1.81-8.63.34-6.34-2.95-13.02-5.16-19.31-8.17-2-.94-4.12-3.19-4.69-5.26-2.98-10.42-5.97-20.89-7.97-31.51-.04-.25-.1-.51-.14-.74-2.82-14.11-15.28-24.23-29.67-24.23h-63.45c-14.36,0-26.92,10.05-29.64,24.16-.03.11-.06.24-.07.35-1.98,10.65-5.37,21.03-7.76,31.61-.97,4.31-3.36,5.51-8.28,6.87-5.41,1.5-10.56,3.78-15.42,6.59-3.58,2.07-5.89,2-8.91.14-10.88-6.72-21.84-13.31-32.89-19.76-10.98-6.42-21.65-5.05-30.68,3.82-7.89,7.74-15.67,15.59-23.44,23.43-4.64,4.67-4.99,9.59-1.11,13.32,3.42,3.29,7.86,2.66,12.47-1.9,7.24-7.15,14.41-14.38,21.6-21.56,6.24-6.21,7.66-6.4,15.43-1.74,11.72,7.01,23.51,13.93,35.12,21.14,5.19,3.22,9.67,2.94,15.6-.52,7.34-4.27,15.36-7.18,23.51-9.59,6.9-2.02,10.23-5.61,11.69-12.14,2.92-13.14,6.35-26.17,9.61-39.24,1.87-7.49,3.81-8.94,11.81-8.95h66.3c5.52.01,10.33,3.78,11.67,9.14,3.37,13.58,6.83,27.14,10.06,40.76,1.32,5.58,4.54,8.38,10.77,10.12,8.59,2.39,16.78,5.99,24.6,10.29,5.47,2.99,9.74,3.35,14.66.3,12.2-7.56,24.6-14.83,36.92-22.21,5.73-3.42,8.12-3.13,12.95,1.67,16.14,16.11,32.26,32.23,48.36,48.36,4.95,4.96,5.19,7.21,1.5,13.38-7.2,12.03-14.31,24.12-21.72,36.01-2.88,4.64-3.09,8.71-.7,13.75,4.24,8.93,8.05,18.12,11.33,27.44,1.71,4.85,5.73,8.52,10.74,9.67,13.3,3.05,26.49,6.51,39.73,9.82,7.58,1.9,9.18,3.91,9.18,11.64.01,21.93.01,43.84,0,65.76,0,8.5-1.41,10.29-9.63,12.33-13.07,3.23-26.1,6.62-39.23,9.63-5.9,1.35-9.19,4.48-11.13,10.46-2.78,8.55-5.85,17.02-10.18,24.89-3.4,6.16-3.29,10.81.18,16.32,7.56,12,14.62,24.33,22,36.45,2.43,3.99,2.43,7.56-.93,10.93-16.94,16.95-33.87,33.9-50.85,50.82-2.7,2.7-6.9,3.23-10.19,1.26-5.86-3.5-11.76-6.94-17.53-10.6-1.21-.76-2.67-2.25-2.74-3.47-.3-5.47-.13-10.98-.13-14.9,4.08,1.67,8.49.24,11.02-1.59,15.88-11.44,29.53-25.3,41.27-40.97,3.09-4.12,2.26-8.78-1.48-11.65-3.56-2.73-7.79-2.22-11.27,1.41-1.1,1.14-1.94,2.5-3.04,3.63-8.87,9.21-17.68,18.47-26.71,27.52-2.77,2.78-6.09,5-10.19,8.31v-6.89c0-42.97.14-85.92-.18-128.89-.04-5.52-.83-12.57-4.19-16.23-3.06-3.34-7.62-8.59-10.91-11.25,0,0-1.52-11.85-3.03-19.25-.84-4.1-4.05-6.54-8.48-6-4.39.53-7.32,4.64-7,9.11.14,1.98.48,3.94.7,5.76-59.95-18.81-119.26-18.81-179.92.32,2.4-8.38,3.84-16.37,6.94-23.66,13.54-31.68,37.46-51.1,71.63-55.53,35.9-4.64,64.85,8.83,86.2,38.17,4.24,5.8,8.7,7.42,13.16,4.44,4.15-2.78,4.4-7.65.23-13.39-25.66-35.39-60.52-51.1-103.64-45.02-50.37,7.11-86.86,48.42-90.49,99.61-.17,2.33-1.84,5.41-3.63,6.92-8.52,7.2-12.73,15.77-12.64,27.3.04,4.86.07,9.71.11,14.56.22,37.58.04,75.15.04,112.74v7.22s-.03-.03-.04-.03v11.27s.03-.01.04-.03c0,4.96.27,9.33-.04,13.58-.03.44-.07.89-.11,1.32-.21,2.04-1.63,4.55-3.3,5.72-5.02,3.49-10.42,6.45-15.7,9.57-6.13,3.63-8.22,3.36-13.35-1.76-16.01-15.98-32-31.98-47.98-47.98-5.24-5.24-5.45-7.27-1.56-13.79,7.01-11.74,13.86-23.57,21.18-35.11,3.64-5.73,3.5-10.54-.25-17.02-4.08-7.07-7.01-14.72-9.25-22.56-1.94-6.86-5.19-10.54-11.74-12-13.31-2.99-26.52-6.44-39.76-9.74-7.35-1.83-8.93-3.84-8.94-11.29-.01-22.26,0-44.54,0-66.8.01-7.83,1.52-9.74,9.15-11.65,13.58-3.37,27.14-6.84,40.77-10.05,5.06-1.19,7.83-3.99,9.6-9.05,3.4-9.73,7.77-19.07,11.89-28.53,1.94-4.46,1.81-8.21-.8-12.44-7.58-12.21-14.77-24.65-22.26-36.91-2.45-4.01-2.92-7.55.14-11.57,3.33-4.37,2.71-8.9-.96-11.54-4.05-2.91-8.41-2.15-12.03,2.07-6.42,7.51-7.34,18.37-2.01,27.49,6.54,11.19,13.21,22.31,20.03,33.34,1.73,2.8,2.11,5.02.62,8.15-3.09,6.48-5.36,13.32-8.43,19.79-.96,2-3.22,4.1-5.3,4.68-12.31,3.42-24.74,6.41-37.13,9.49-14.18,3.51-18.9,9.73-18.9,30.42l-.08,59.45c.25,16.38,4.72,26.47,19.35,30.18,12.21,3.11,24.41,6.31,36.68,9.14,3.22.74,4.61,2.36,5.69,5.23,2.54,6.7,5.66,13.2,8.05,19.94.74,2.08.66,5.17-.39,7.04-6.32,11.12-13.07,21.98-19.59,32.99-6.62,11.19-5.35,21.86,3.84,31.09,16.53,16.64,33.11,33.23,49.77,49.74,8.28,8.24,21.05,9.87,31.19,4.06,3.87-2.22,7.7-4.47,12.03-6.99.11,1.66.3,2.5.21,3.33-1.41,14.21,5.59,24.23,17.16,30.65,9.85,5.5,20.37,10.39,31.17,13.44,42.07,11.85,84.8,12.3,127.65,4.91,18.02-3.11,35.57-7.98,51.2-18.02,11.36-7.27,18.72-16.85,17.29-31.26-.07-.79.13-1.59.28-3.16,4.29,2.54,8,4.74,11.72,6.93,11.46,6.75,22.05,5.48,31.53-3.94,16.53-16.46,33.02-32.95,49.46-49.49,9.42-9.47,10.7-20.03,3.89-31.5-6.51-11.01-13.25-21.88-19.58-32.99-1-1.74-1.08-4.67-.39-6.59,2.5-6.92,5.3-13.72,8.45-20.35.96-2,3.18-4.15,5.23-4.74,10.44-2.98,20.91-5.99,31.55-7.98,11.96-2.23,20.75-7.74,25.02-19.47v-84.16c-4.29-11.69-13.03-17.25-24.98-19.47ZM197.2,308.33c9.45-7.35,20.49-11.31,31.85-14.46,22.29-6.18,45.1-8.25,69.66-8.45,25.07.37,51.44,2.47,76.6,11.74,7.8,2.87,15.39,6.89,22.21,11.62,8.32,5.79,8.07,12.35.3,18.97-8.74,7.45-19.31,11.29-30.12,14.39-31.43,9.01-63.54,10.39-95.91,7.94-19.64-1.49-39-4.72-57.3-12.31-6.23-2.59-12.35-5.97-17.7-10.08-8.19-6.31-7.8-12.96.42-19.37ZM260.91,496.09c6.06.84,12.17,1.63,18.27,1.87,33.61,1.29,66.92-.51,99.12-11.33,8.38-2.83,16.36-6.77,24.88-10.36,0,12.85.51,25.78-.32,38.64-.23,3.46-3.89,7.41-7,9.84-11.13,8.74-24.51,12.78-38.05,15.67-42.92,9.19-85.89,9.18-128.47-2.01-9.53-2.5-18.62-7.03-27.52-11.4-7.38-3.64-11.36-9.59-10.72-18.68.41-5.85.42-11.71.35-17.5-.07-4.75-.18-9.46-.18-14.07.06.03.13.04.18.07,11.13,4.19,21.76,8.42,32.55,12.14,4.4,1.52,7.91-.72,9.68-4.99,1.66-3.96-.45-8.48-4.62-10.43-.94-.44-1.98-.69-2.97-1.04-4.13-1.45-8.38-2.63-12.35-4.41-4.61-2.08-9.12-4.47-13.44-7.13-4.57-2.8-7.66-6.31-8.85-11.09v-39.8c33.23,18.37,69.12,22.53,105.63,22.57,36.66.03,72.72-4.15,106.24-22.76,0,13.73.51,27-.35,40.18-.21,3.4-4.1,7.25-7.25,9.68-11.36,8.76-24.92,12.69-38.62,15.7-29.67,6.52-59.68,7.9-89.9,4.68-1.74-.2-3.51-.32-5.26-.21-4.76.3-7.24,3.26-7.96,7.67-.63,3.92,2.53,7.86,6.93,8.48ZM396.22,394.21c-9.01,4.89-18.2,9.98-27.94,12.92-32.14,9.66-65.16,10.95-98.43,8.1-18.9-1.63-37.49-4.91-55.22-12.02-3.08-1.24-6.1-2.64-9.07-4.13-6.94-3.5-12.12-7.84-14.11-14.41v-40.27c46.59,29.18,160.82,31.4,212.08-.1v19.56c0,5.26-.38,10.56.1,15.77.6,6.62-2.12,11.71-7.41,14.58Z"/>
        <path class="cls-1" d="M191.45,476.84v14c-.07-4.75-.18-9.46-.18-14.07.06.03.13.04.18.07Z"/>
      </g>
    </g>
  </g>
</svg>