<?xml version="1.0" encoding="UTF-8"?>
<svg xmlns="http://www.w3.org/2000/svg" version="1.1" viewBox="0 0 594.84 595.28">
  <defs>
    <style>
      .cls-1 {
        fill: #eb2127;
      }
    </style>
  </defs>
  <!-- Generator: Adobe Illustrator 28.6.0, SVG Export Plug-In . SVG Version: 1.2.0 Build 709)  -->
  <g>
    <g id="Layer_1">
      <g id="geYRfJ.tif">
        <g>
          <path class="cls-1" d="M104.34,364.57v-25.94h52.59v-80.9h-52.14v-25.86h52.82c0-12.57-.03-24.16,0-35.74.07-21.83,10.04-31.72,32.05-31.78,11.32-.03,22.64,0,34.96,0v-53.15h25.57v52.81h53.24v26.46h-118.84v213.92h213.32v-118.7h26.38v52.47h53.44v26.22h-53.04c0,12.95.08,24.9-.02,36.84-.16,19.5-10.52,29.99-29.83,30.18-11.97.12-23.95.02-36.98.02v53.03h-26.2v-52.48h-80.56v52.39h-26.25v-52.94c-12.58,0-24.18.04-35.79,0-21.28-.08-31.37-10.16-31.45-31.42-.04-11.37,0-22.74,0-35.45h-53.26Z"/>
          <path class="cls-1" d="M356.87,364.12h-131.44v-132.11h131.44v132.11ZM251.26,257.93v79.77h79.6v-79.77h-79.6Z"/>
          <path class="cls-1" d="M332.07,123.89v-25.34c78.66-2.98,159.34,65.36,158.88,158.24h-25.63c-1.6-36.27-14.02-67.9-39.79-93.55-25.53-25.41-56.74-38.05-93.46-39.34Z"/>
          <path class="cls-1" d="M423.84,256.83h-24.93c-4.73-39.2-26.61-61.8-66.69-66.59v-25.07c48.22-2.41,93.62,43.03,91.62,91.67Z"/>
        </g>
      </g>
    </g>
  </g>
</svg>