<?xml version="1.0" encoding="UTF-8"?>
<svg xmlns="http://www.w3.org/2000/svg" version="1.1" viewBox="0 0 594.84 595.28">
  <defs>
    <style>
      .cls-1 {
        fill: #eb2127;
      }
    </style>
  </defs>
  <!-- Generator: Adobe Illustrator 28.6.0, SVG Export Plug-In . SVG Version: 1.2.0 Build 709)  -->
  <g>
    <g id="Layer_1">
      <g>
        <g>
          <g id="BiX05m">
            <path class="cls-1" d="M331.22,548.91h-.13c-20.18-.13-41.72-.14-67.79-.04h-.08c-6.6,0-10.74-3.47-11.97-10.04-1.41-7.53-2.92-15.03-4.44-22.54-1.37-6.78-2.74-13.57-4.03-20.36-.03-.14-.05-.25-.07-.34-.09-.03-.21-.07-.36-.11-15.96-4.28-31.46-10.71-46.08-19.11-.07-.04-.14-.08-.19-.11-.08.05-.19.12-.31.21-4.75,3.34-9.65,6.57-14.39,9.68l-4.29,2.82c-.29.19-1.59,1.01-3.33,2.12-3.62,2.29-9.67,6.12-11.77,7.54-4.48,3.03-11.25,7.61-18.47.4l-12.96-12.97c-11.36-11.37-23.1-23.13-34.73-34.6-4.99-4.92-5.56-10.28-1.71-15.93,4.27-6.26,8.46-12.57,12.66-18.88,3.95-5.94,7.9-11.88,11.91-17.78-8.48-14.68-14.94-30.27-19.21-46.34-.02-.08-.04-.16-.06-.22-.12-.03-.28-.07-.49-.11-6.04-1.18-12.08-2.4-18.12-3.61-8.38-1.69-16.77-3.38-25.17-4.97-4.33-.82-9.48-3.48-9.45-11.56.07-24.24.07-46.71,0-68.7-.03-8.28,5.26-11.01,9.7-11.84,8.08-1.51,16.14-3.14,24.2-4.77,6.36-1.28,12.72-2.57,19.09-3.8.09-.02.17-.03.24-.05v-.03c4.22-15.92,10.7-31.57,19.26-46.51l.02-.04c-.03-.05-.07-.11-.12-.18-3.76-5.54-7.47-11.12-11.18-16.69-4.37-6.56-8.74-13.12-13.18-19.63-3.92-5.74-3.41-11.11,1.51-15.97,15.2-15,30.88-30.67,47.92-47.92,4.8-4.85,10.32-5.37,15.97-1.49,6.34,4.34,12.73,8.6,19.12,12.85,5.62,3.74,11.24,7.49,16.82,11.29.25.17.43.28.56.34.1-.04.22-.11.38-.2,14.02-8.16,29.52-14.58,46.09-19.1.04-.01.07-.02.11-.03.01-.05.02-.11.03-.17,1.3-6.73,2.65-13.44,4-20.16,1.55-7.72,3.1-15.43,4.57-23.17,1.2-6.35,5.27-9.71,11.76-9.71h.08c21.73.1,44.98.16,67.78-.02,7.31-.07,11.49,3.57,12.81,10.78,1.44,7.85,3.04,15.84,4.6,23.56,1.24,6.15,2.47,12.3,3.65,18.47.04.19.07.33.1.44.07.02.15.05.25.07,15.61,4.13,31.11,10.55,46.09,19.09.11.06.21.11.29.15.09-.05.2-.12.33-.21,5.51-3.75,11.05-7.45,16.59-11.14,6.46-4.31,12.93-8.62,19.34-13.02,5.87-4.03,11.37-3.52,16.33,1.52,15.11,15.35,31.12,31.36,47.6,47.59,5.05,4.97,5.56,10.47,1.53,16.34-4.27,6.23-8.46,12.51-12.65,18.79-3.82,5.73-7.63,11.45-11.51,17.14-.09.14-.17.26-.23.35.03.06.07.13.12.21,8.46,14.71,14.89,30.21,19.13,46.09.03.13.07.24.1.32.1.03.23.06.39.09,6.92,1.33,13.83,2.71,20.73,4.1,7.53,1.51,15.05,3.02,22.59,4.45,6.18,1.17,9.57,5.26,9.55,11.51-.06,20.24-.11,44.24,0,68.69.02,4.61-1.71,10.43-10.1,12.01-7.43,1.4-14.84,2.9-22.26,4.39-6.59,1.33-13.17,2.65-19.77,3.92-.74.14-1.09.26-1.23.32,0,.06-.09.28-.2.67-4.15,15.68-10.53,31.05-18.98,45.69-.02.04-.04.07-.06.11.01.02.03.04.05.07,3.97,5.82,7.87,11.69,11.77,17.56,4.17,6.27,8.34,12.55,12.59,18.77,3.98,5.83,3.43,11.32-1.65,16.32-11.93,11.75-23.97,23.81-35.62,35.48l-12.43,12.45c-4.57,4.64-9.05,5.46-13.3,2.44-2.77-1.97-13.18-8.73-19.33-12.67l-.08-.05c-1.9-1.26-3.78-2.5-5.64-3.72-4.76-3.13-9.25-6.08-13.75-9.22-.04.02-.09.05-.14.08-14.65,8.38-29.87,14.72-45.23,18.85-.83.22-1.13.41-1.19.45,0,.01-.14.3-.28,1.06-1.24,6.67-2.58,13.33-3.92,19.98-1.43,7.09-2.91,14.43-4.23,21.64-1.29,7.01-5.47,10.56-12.44,10.56ZM295.76,537.42c12.58,0,24.2.04,35.41.11.47.01.81-.03,1.01-.06.08-.22.19-.59.3-1.18,1.34-7.31,2.83-14.7,4.27-21.84,1.33-6.6,2.66-13.2,3.89-19.82,1.04-5.61,4.13-8.92,9.71-10.42,14.42-3.87,28.73-9.84,42.53-17.73,4.31-2.47,8.33-2.31,12.31.47,4.36,3.05,8.79,5.96,13.48,9.04,1.85,1.22,3.73,2.45,5.64,3.72,3.59,2.3,13.58,8.75,18.24,11.91.04-.04.07-.07.1-.1l12.49-12.5c11.66-11.68,23.72-23.76,35.69-35.55.41-.41.65-.7.78-.88-.09-.19-.25-.48-.54-.91-4.28-6.26-8.48-12.57-12.68-18.89-3.88-5.83-7.75-11.66-11.7-17.45-2.74-4.02-2.88-8.04-.44-12.28,7.95-13.77,13.95-28.2,17.84-42.91,1.82-6.89,6.74-8.59,10.29-9.26,6.56-1.26,13.12-2.58,19.67-3.9,7.46-1.5,14.91-3,22.39-4.42.36-.07.62-.14.81-.19.01-.15.02-.34.02-.58-.11-24.49-.07-48.51,0-68.77,0-.09,0-.16,0-.24-.08-.02-.18-.04-.28-.06-7.58-1.44-15.15-2.96-22.72-4.48-6.87-1.38-13.75-2.76-20.63-4.08-4.99-.95-8.05-3.79-9.35-8.66-3.98-14.92-10.03-29.5-17.99-43.35-2.52-4.37-2.33-8.39.57-12.65,3.86-5.65,7.65-11.34,11.45-17.03,4.22-6.33,8.44-12.65,12.74-18.92.32-.46.49-.79.59-.99-.13-.17-.34-.44-.72-.81-16.52-16.27-32.58-32.33-47.73-47.72-.36-.36-.62-.58-.79-.71-.2.1-.53.27-.98.59-6.45,4.42-12.95,8.76-19.46,13.1-5.51,3.68-11.03,7.35-16.5,11.08-4.23,2.88-8.25,3.05-12.66.54-14.12-8.05-28.71-14.09-43.37-17.97-4.84-1.28-7.66-4.36-8.62-9.4-1.16-6.12-2.39-12.23-3.62-18.35-1.56-7.77-3.18-15.8-4.63-23.75-.13-.72-.26-1.14-.35-1.37-.22-.04-.63-.1-1.17-.07-22.87.18-46.16.12-67.92.02-.23.01-.38,0-.51.01-.03.12-.06.26-.09.43-1.47,7.78-3.03,15.53-4.6,23.29-1.35,6.69-2.69,13.37-3.98,20.07-.94,4.87-3.58,7.74-8.33,9.03-15.61,4.25-30.19,10.3-43.36,17.96-5.91,3.44-10.29,1.32-13.07-.57-5.55-3.78-11.14-7.5-16.73-11.23-6.43-4.28-12.86-8.57-19.24-12.93-.36-.24-.62-.39-.8-.48-.15.12-.36.3-.64.58-17.07,17.28-32.78,32.99-48.02,48.02-.28.28-.47.49-.59.64.09.18.24.44.49.8,4.47,6.55,8.87,13.14,13.26,19.74,3.69,5.55,7.39,11.09,11.13,16.61,2.77,4.08,2.95,8.09.55,12.27-8.07,14.07-14.16,28.8-18.13,43.76-1.24,4.67-4.21,7.4-9.09,8.34-6.34,1.22-12.67,2.5-18.99,3.78-8.11,1.64-16.23,3.28-24.36,4.8-.16.03-.29.06-.4.09,0,.14-.02.31-.01.53.07,22.01.07,44.51,0,68.77,0,.11,0,.22,0,.31.06.01.11.02.18.04,8.45,1.6,16.88,3.29,25.31,4.99,6.01,1.21,12.03,2.43,18.05,3.6,3.21.63,7.68,2.2,9.38,8.58,4.03,15.15,10.14,29.86,18.15,43.71,2.38,4.12,2.22,7.9-.5,11.91-4,5.88-7.93,11.8-11.87,17.72-4.22,6.35-8.44,12.7-12.73,18.99-.19.28-.31.49-.4.65.14.18.35.43.69.76,11.66,11.5,23.42,23.27,34.79,34.66l12.95,12.96c.2.2.36.33.47.42.83-.34,2.46-1.44,3.58-2.2,2.24-1.51,8.15-5.26,12.06-7.73,1.64-1.04,2.86-1.81,3.14-1.99l4.32-2.84c4.66-3.07,9.49-6.24,14.09-9.48,4.25-2.99,8.3-3.21,12.73-.66,13.76,7.91,28.34,13.96,43.35,17.99,4.96,1.33,7.72,4.29,8.67,9.32,1.28,6.76,2.64,13.5,4,20.24,1.52,7.56,3.05,15.12,4.47,22.7.06.32.12.56.17.73.16.02.37.03.64.02,11.64-.05,22.38-.07,32.51-.07ZM195.74,476.1h0ZM399.1,476.08h0,0ZM196.42,476.07h0ZM99.31,352.01h0ZM495.49,243.2h0ZM495.08,242.82h0ZM475.89,195.95h0ZM398.41,119.08h0ZM196.35,119.03h0ZM195.89,119.02h0Z"/>
          </g>
          <g id="_x38_Gawki">
            <path class="cls-1" d="M274.14,431.82l.15.09-.15-.09Z"/>
          </g>
        </g>
        <g id="_x33_yIvOG.tif">
          <path class="cls-1" d="M297.58,137.64c-87.99-.22-160.06,71.67-160.12,159.71-.09,88.17,71.48,160.06,159.59,160.28,88.27.19,160.25-71.6,160.34-160,.13-88.02-71.57-159.81-159.81-160ZM294.26,152.93c69.13-1.47,122.69,44.76,140.17,98.6-1.22.13-2.35.38-3.48.38-16.35,0-32.7.19-49.02-.16-2.98-.06-6.36-1.72-8.71-3.66-4.42-3.6-8.18-7.92-12.25-11.97-4.7-4.7-10.37-7.08-17.07-7.08-30.95.03-61.86.03-92.81,0-6.89,0-12.65,2.47-17.48,7.33-4.13,4.13-8.14,8.43-12.5,12.37-1.66,1.47-4.07,2.98-6.14,3.01-18.07.25-36.18.16-54.56.16,15.94-50.55,66.09-97.54,133.84-98.98ZM156,267.16h5.07c17.45,0,34.89-.09,52.34.03,7.42.03,14.53-1.82,18.57-7.86,11.46-17.26,28.28-16.51,45.89-14.44-.6.75-1.19,1.72-1.97,2.51-5.83,5.86-11.71,11.62-17.48,17.54-9.9,10.09-10.21,24.53-.81,34.11,9.52,9.68,24.21,9.52,34.45-.53,4.76-4.7,9.3-9.49,16.41-10.71,6.48-1.1,12.9-.34,17.45,4.1,13.56,13.25,26.59,27.13,39.59,40.56-4.39,4.6-9.3,9.77-14.5,15.22-13.37-13.63-26.56-27.03-39.84-40.56-4.23,4.23-7.61,7.64-11.4,11.46,10.65,10.52,21.17,20.95,32.7,32.36-11.06,0-20.8.09-30.54-.13-1.28-.03-2.73-1.35-3.79-2.41-5.95-5.89-11.84-11.9-17.85-18.01-3.76,3.82-7.14,7.27-11.34,11.53,3.26,2.51,6.52,5.01,9.77,7.52-.28.41-.56.85-.85,1.28-9.71,0-19.45.16-29.16-.13-1.6-.06-3.35-1.69-4.67-2.98-3.92-3.7-7.74-7.52-11.46-11.43-5.36-5.61-11.75-8.21-19.55-8.14-18.86.16-37.71.06-56.98.06-4.51-20.27-4.42-40.28-.06-60.95ZM298.64,442.32c-73.89.59-124.38-52.18-138.04-98.95,18.32,0,36.52-.09,54.75.16,2.04.03,4.35,1.72,6.01,3.26,4.35,3.95,8.36,8.24,12.53,12.37,4.73,4.67,10.4,7.05,17.1,7.05,30.95-.03,61.86-.03,92.81,0,6.67,0,12.37-2.32,17.1-7.02,4.29-4.23,8.39-8.65,12.87-12.69,1.63-1.5,4.07-2.98,6.14-3.01,18.07-.25,36.15-.13,54.28-.13-12.78,44.48-61.3,98.35-135.56,98.95ZM433.8,328.12c-15.07-.03-30.13.09-45.2-.16-2.38-.03-5.26-1.19-6.95-2.82-13.5-13.19-26.78-26.62-40.16-39.97-17.54-17.51-40.06-17.48-57.7.03-1,1-1.97,2.07-3.04,3.01-4.04,3.57-8.93,3.57-12.31.03-3.29-3.45-3.32-8.21.28-11.97,6.05-6.3,12.28-12.4,18.48-18.54,4.51-4.48,8.36-10.52,13.81-12.81,5.26-2.26,12.15-.59,18.36-.63,7.61,0,15.25-.38,22.83.19,3.13.22,6.61,1.82,9.12,3.79,4.2,3.35,7.77,7.49,11.56,11.34,5.04,5.14,11.09,7.61,18.36,7.58,17.45-.13,34.89-.03,52.37-.03h5.2c4.45,20.42,4.39,40.34.03,60.95h-5.04Z"/>
        </g>
      </g>
    </g>
  </g>
</svg>