<?xml version="1.0" encoding="UTF-8"?>
<svg xmlns="http://www.w3.org/2000/svg" version="1.1" viewBox="0 0 594.84 595.28">
  <defs>
    <style>
      .cls-1 {
        fill: #eb2127;
      }
    </style>
  </defs>
  <!-- Generator: Adobe Illustrator 28.6.0, SVG Export Plug-In . SVG Version: 1.2.0 Build 709)  -->
  <g>
    <g id="Layer_1">
      <g>
        <g id="BiX05m">
          <path class="cls-1" d="M331.22,546.45h-.13c-20.18-.13-41.72-.14-67.79-.04h-.08c-6.6,0-10.74-3.47-11.97-10.04-1.41-7.53-2.92-15.03-4.44-22.54-1.37-6.78-2.74-13.57-4.03-20.36-.03-.14-.05-.25-.07-.34-.09-.03-.21-.07-.36-.11-15.96-4.28-31.46-10.71-46.08-19.11-.07-.04-.14-.08-.19-.11-.08.05-.19.12-.31.21-4.75,3.34-9.65,6.57-14.39,9.68l-4.29,2.82c-.29.19-1.59,1.01-3.33,2.12-3.62,2.29-9.67,6.12-11.77,7.54-4.48,3.03-11.25,7.61-18.47.4l-12.96-12.97c-11.36-11.37-23.1-23.13-34.73-34.6-4.99-4.92-5.56-10.28-1.71-15.93,4.27-6.26,8.46-12.57,12.66-18.88,3.95-5.94,7.9-11.88,11.91-17.78-8.48-14.68-14.94-30.27-19.21-46.34-.02-.08-.04-.16-.06-.22-.12-.03-.28-.07-.49-.11-6.04-1.18-12.08-2.4-18.12-3.61-8.38-1.69-16.77-3.38-25.17-4.97-4.33-.82-9.48-3.48-9.45-11.56.07-24.24.07-46.71,0-68.7-.03-8.28,5.26-11.01,9.7-11.84,8.08-1.51,16.14-3.14,24.2-4.77,6.36-1.28,12.72-2.57,19.09-3.8.09-.02.17-.03.24-.05v-.03c4.22-15.92,10.7-31.57,19.26-46.51l.02-.04c-.03-.05-.07-.11-.12-.18-3.76-5.54-7.47-11.12-11.18-16.69-4.37-6.56-8.74-13.12-13.18-19.63-3.92-5.74-3.41-11.11,1.51-15.97,15.2-15,30.88-30.67,47.92-47.92,4.8-4.85,10.32-5.37,15.97-1.49,6.34,4.34,12.73,8.6,19.12,12.85,5.62,3.74,11.24,7.49,16.82,11.29.25.17.43.28.56.34.1-.04.22-.11.38-.2,14.02-8.16,29.52-14.58,46.09-19.1.04-.01.07-.02.11-.03.01-.05.02-.11.03-.17,1.3-6.73,2.65-13.44,4-20.16,1.55-7.72,3.1-15.43,4.57-23.17,1.2-6.35,5.27-9.71,11.76-9.71h.08c21.73.1,44.98.16,67.78-.02,7.31-.07,11.49,3.57,12.81,10.78,1.44,7.85,3.04,15.84,4.6,23.56,1.24,6.15,2.47,12.3,3.65,18.47.04.19.07.33.1.44.07.02.15.05.25.07,15.61,4.13,31.11,10.55,46.09,19.09.11.06.21.11.29.15.09-.05.2-.12.33-.21,5.51-3.75,11.05-7.45,16.59-11.14,6.46-4.31,12.93-8.62,19.34-13.02,5.87-4.03,11.37-3.52,16.33,1.52,15.11,15.35,31.12,31.36,47.6,47.59,5.05,4.97,5.56,10.47,1.53,16.34-4.27,6.23-8.46,12.51-12.65,18.79-3.82,5.73-7.63,11.45-11.51,17.14-.09.14-.17.26-.23.35.03.06.07.13.12.21,8.46,14.71,14.89,30.21,19.13,46.09.03.13.07.24.1.32.1.03.23.06.39.09,6.92,1.33,13.83,2.71,20.73,4.1,7.53,1.51,15.05,3.02,22.59,4.45,6.18,1.17,9.57,5.26,9.55,11.51-.06,20.24-.11,44.24,0,68.69.02,4.61-1.71,10.43-10.1,12.01-7.43,1.4-14.84,2.9-22.26,4.39-6.59,1.33-13.17,2.65-19.77,3.92-.74.14-1.09.26-1.23.32,0,.06-.09.28-.2.67-4.15,15.68-10.53,31.05-18.98,45.69-.02.04-.04.07-.06.11.01.02.03.04.05.07,3.97,5.82,7.87,11.69,11.77,17.56,4.17,6.27,8.34,12.55,12.59,18.77,3.98,5.83,3.43,11.32-1.65,16.32-11.93,11.75-23.97,23.81-35.62,35.48l-12.43,12.45c-4.57,4.64-9.05,5.46-13.3,2.44-2.77-1.97-13.18-8.73-19.33-12.67l-.08-.05c-1.9-1.26-3.78-2.5-5.64-3.72-4.76-3.13-9.25-6.08-13.75-9.22-.04.02-.09.05-.14.08-14.65,8.38-29.87,14.72-45.23,18.85-.83.22-1.13.41-1.19.45,0,.01-.14.3-.28,1.06-1.24,6.67-2.58,13.33-3.92,19.98-1.43,7.09-2.91,14.43-4.23,21.64-1.29,7.01-5.47,10.56-12.44,10.56ZM295.76,534.96c12.58,0,24.2.04,35.41.11.47.01.81-.03,1.01-.06.08-.22.19-.59.3-1.18,1.34-7.31,2.83-14.7,4.27-21.84,1.33-6.6,2.66-13.2,3.89-19.82,1.04-5.61,4.13-8.92,9.71-10.42,14.42-3.87,28.73-9.84,42.53-17.73,4.31-2.47,8.33-2.31,12.31.47,4.36,3.05,8.79,5.96,13.48,9.04,1.85,1.22,3.73,2.45,5.64,3.72,3.59,2.3,13.58,8.75,18.24,11.91.04-.04.07-.07.1-.1l12.49-12.5c11.66-11.68,23.72-23.76,35.69-35.55.41-.41.65-.7.78-.88-.09-.19-.25-.48-.54-.91-4.28-6.26-8.48-12.57-12.68-18.89-3.88-5.83-7.75-11.66-11.7-17.45-2.74-4.02-2.88-8.04-.44-12.28,7.95-13.77,13.95-28.2,17.84-42.91,1.82-6.89,6.74-8.59,10.29-9.26,6.56-1.26,13.12-2.58,19.67-3.9,7.46-1.5,14.91-3,22.39-4.42.36-.07.62-.14.81-.19.01-.15.02-.34.02-.58-.11-24.49-.07-48.51,0-68.77,0-.09,0-.16,0-.24-.08-.02-.18-.04-.28-.06-7.58-1.44-15.15-2.96-22.72-4.48-6.87-1.38-13.75-2.76-20.63-4.08-4.99-.95-8.05-3.79-9.35-8.66-3.98-14.92-10.03-29.5-17.99-43.35-2.52-4.37-2.33-8.39.57-12.65,3.86-5.65,7.65-11.34,11.45-17.03,4.22-6.33,8.44-12.65,12.74-18.92.32-.46.49-.79.59-.99-.13-.17-.34-.44-.72-.81-16.52-16.27-32.58-32.33-47.73-47.72-.36-.36-.62-.58-.79-.71-.2.1-.53.27-.98.59-6.45,4.42-12.95,8.76-19.46,13.1-5.51,3.68-11.03,7.35-16.5,11.08-4.23,2.88-8.25,3.05-12.66.54-14.12-8.05-28.71-14.09-43.37-17.97-4.84-1.28-7.66-4.36-8.62-9.4-1.16-6.12-2.39-12.23-3.62-18.35-1.56-7.77-3.18-15.8-4.63-23.75-.13-.72-.26-1.14-.35-1.37-.22-.04-.63-.1-1.17-.07-22.87.18-46.16.12-67.92.02-.23.01-.38,0-.51.01-.03.12-.06.26-.09.43-1.47,7.78-3.03,15.53-4.6,23.29-1.35,6.69-2.69,13.37-3.98,20.07-.94,4.87-3.58,7.74-8.33,9.03-15.61,4.25-30.19,10.3-43.36,17.96-5.91,3.44-10.29,1.32-13.07-.57-5.55-3.78-11.14-7.5-16.73-11.23-6.43-4.28-12.86-8.57-19.24-12.93-.36-.24-.62-.39-.8-.48-.15.12-.36.3-.64.58-17.07,17.28-32.78,32.99-48.02,48.02-.28.28-.47.49-.59.64.09.18.24.44.49.8,4.47,6.55,8.87,13.14,13.26,19.74,3.69,5.55,7.39,11.09,11.13,16.61,2.77,4.08,2.95,8.09.55,12.27-8.07,14.07-14.16,28.8-18.13,43.76-1.24,4.67-4.21,7.4-9.09,8.34-6.34,1.22-12.67,2.5-18.99,3.78-8.11,1.64-16.23,3.28-24.36,4.8-.16.03-.29.06-.4.09,0,.14-.02.31-.01.53.07,22.01.07,44.51,0,68.77,0,.11,0,.22,0,.31.06.01.11.02.18.04,8.45,1.6,16.88,3.29,25.31,4.99,6.01,1.21,12.03,2.43,18.05,3.6,3.21.63,7.68,2.2,9.38,8.58,4.03,15.15,10.14,29.86,18.15,43.71,2.38,4.12,2.22,7.9-.5,11.91-4,5.88-7.93,11.8-11.87,17.72-4.22,6.35-8.44,12.7-12.73,18.99-.19.28-.31.49-.4.65.14.18.35.43.69.76,11.66,11.5,23.42,23.27,34.79,34.66l12.95,12.96c.2.2.36.33.47.42.83-.34,2.46-1.44,3.58-2.2,2.24-1.51,8.15-5.26,12.06-7.73,1.64-1.04,2.86-1.81,3.14-1.99l4.32-2.84c4.66-3.07,9.49-6.24,14.09-9.48,4.25-2.99,8.3-3.21,12.73-.66,13.76,7.91,28.34,13.96,43.35,17.99,4.96,1.33,7.72,4.29,8.67,9.32,1.28,6.76,2.64,13.5,4,20.24,1.52,7.56,3.05,15.12,4.47,22.7.06.32.12.56.17.73.16.02.37.03.64.02,11.64-.05,22.38-.07,32.51-.07ZM195.74,473.64h0ZM399.1,473.62h0,0ZM196.42,473.61h0ZM99.31,349.54h0ZM495.49,240.74h0ZM495.08,240.36h0ZM475.89,193.49h0ZM398.41,116.62h0ZM196.35,116.57h0ZM195.89,116.55h0Z"/>
        </g>
        <g id="_x38_Gawki">
          <g>
            <path class="cls-1" d="M299.19,441.56c-79.28.07-144.72-65.18-143.15-146.17,1.52-78.61,65.07-140.5,142.63-140.86,81.86-.38,145.65,66.13,144.42,145.77-1.22,78.93-65.72,141.62-143.9,141.26ZM337.12,241.37c0-.36.03-.52,0-.67-1.84-8.58-3.49-17.2-5.58-25.72-2.69-10.99-6.51-21.6-11.86-31.62-3.04-5.71-6.57-11.07-11.56-15.3-3.26-2.77-6.92-4.67-11.37-4.59-4.93.09-8.74,2.51-12.18,5.73-5.12,4.8-8.67,10.71-11.73,16.92-5.29,10.73-9.03,22.03-11.68,33.68-1.48,6.51-2.71,13.09-4.05,19.63-.18.87-.19,1.47,1.02,1.57,8.49.68,16.97,1.66,25.47,2.07,7.93.39,15.9.39,23.84.2,8.2-.2,16.39-.84,24.58-1.33,1.7-.1,3.39-.37,5.1-.56ZM337.21,354.7c-26.92-2.68-53.58-2.69-80.57.7,1.47,6.95,2.75,13.61,4.3,20.21,3.1,13.27,7.3,26.16,13.86,38.17,3.07,5.62,6.65,10.88,11.76,14.92,6.88,5.44,14.46,5.32,21.18-.28,5.42-4.52,9.15-10.28,12.36-16.43,4.08-7.8,7.11-16.01,9.68-24.42,3.26-10.66,5.52-21.54,7.42-32.87ZM252.46,293.55h88.88c.04-14.59-1.04-28.98-2.88-43.39-27.76,3.09-55.24,2.86-82.86-.58-2.05,14.6-2.85,29.18-3.14,43.97ZM341.33,302.64h-88.86c.28,14.79,1.11,29.39,3.09,43.96,27.73-3.51,55.22-3.65,82.9-.64,1.84-14.46,2.94-28.8,2.87-43.32ZM206.29,238.23c-.74,2.19-1.47,4.3-2.17,6.43-5.06,15.34-7.59,31.13-8.24,47.25-.05,1.31.25,1.81,1.71,1.8,14.76-.06,29.52-.03,44.28-.04.55,0,1.1-.07,1.92-.13,0-2.82-.08-5.49.01-8.14.41-11.92,1.19-23.81,2.86-35.62.17-1.23-.2-1.64-1.39-1.82-9.37-1.41-18.58-3.52-27.67-6.16-3.7-1.07-7.36-2.32-11.3-3.58ZM206.25,358.03c13.37-4.75,26.74-7.93,40.12-10.01-1.09-15.27-2.17-30.3-3.26-45.43.02,0-.24-.06-.49-.06-15.13,0-30.27,0-45.4-.03-1.22,0-1.39.52-1.31,1.52.45,5.68.67,11.39,1.36,17.04,1.05,8.56,2.79,17.01,5.25,25.29,1.14,3.84,2.44,7.64,3.73,11.67ZM388.29,239.75c-2.77.84-5.2,1.61-7.65,2.31-10.56,3.01-21.28,5.29-32.17,6.7-1.05.14-1.33.51-1.16,1.5.27,1.59.47,3.2.66,4.8,1.49,12.26,2.11,24.58,2.3,36.93.02,1.44.44,1.71,1.78,1.7,7.69-.06,15.39-.02,23.08-.01,7.12,0,14.24,0,21.35,0,.9,0,1.67.04,1.57-1.28-.35-4.69-.46-9.41-.97-14.08-1-9.15-2.7-18.19-5.24-27.05-1.09-3.81-2.33-7.57-3.56-11.52ZM350.77,302.6c-1.03,14.99-2.05,29.76-3.07,44.56,13.57,2.01,27.09,4.85,40.46,9.25,6.27-17.46,9.49-35.35,9.88-53.81h-47.27ZM385.01,364.82c-.61-.26-.92-.43-1.26-.54-12.02-3.87-24.33-6.39-36.79-8.29-1.03-.16-1.08.39-1.21,1.13-.65,3.81-1.29,7.62-2.05,11.41-2.02,10.1-4.62,20.05-8.07,29.75-3.34,9.38-7.35,18.44-13.12,26.63-1,1.41-2.04,2.79-3.07,4.19.13.11.25.22.38.33,32.06-11.01,51.48-34.77,65.19-64.61ZM385.19,231.4c-2.94-5.6-5.6-11.04-8.61-16.28-5.57-9.72-12.39-18.51-20.47-26.27-8.76-8.42-18.65-15.15-29.96-19.72-2.13-.86-4.34-1.55-6.86-2.45.3.6.36.81.49.96,5.93,7.24,10.06,15.51,13.53,24.11,5.09,12.64,8.5,25.78,11.03,39.15.58,3.06,1.12,6.13,1.7,9.34,13.24-1.71,26.11-4.58,39.16-8.84ZM274.3,429.45c.08-.12.15-.25.23-.37-.29-.4-.6-.79-.87-1.2-2.41-3.66-5.05-7.19-7.16-11.02-5.83-10.58-9.86-21.91-12.75-33.59-2.12-8.55-3.65-17.25-5.49-25.87-.07-.31-.6-.78-.85-.74-2.77.44-5.55.83-8.28,1.48-6.95,1.66-13.9,3.39-20.81,5.22-2.85.75-5.62,1.83-8.55,2.8.24.6.37,1.04.57,1.44,1.27,2.58,2.51,5.17,3.83,7.72,5.05,9.75,11.23,18.72,18.64,26.82,9.36,10.23,20.17,18.49,32.95,24.02,2.8,1.21,5.69,2.2,8.54,3.29ZM209.6,229.9c12.64,4.61,25.42,7.49,38.37,9.61,1.04-5.29,1.97-10.37,3.04-15.42,2.39-11.32,5.55-22.42,9.94-33.14,2.53-6.19,5.41-12.24,9.22-17.79,1.4-2.03,2.83-4.04,4.25-6.07-.11-.11-.23-.21-.34-.32-31.38,10.73-50.7,33.86-64.47,63.12ZM414.6,368c3.95-6.11,7.08-12.65,9.82-19.38,5.81-14.32,8.89-29.26,9.77-44.67.06-1.1-.25-1.46-1.38-1.46-8.17.04-16.34.04-24.51.02-.97,0-1.31.25-1.4,1.31-.61,7.45-1.11,14.92-2.04,22.33-1.11,8.82-3.2,17.47-5.92,25.95-.78,2.42-1.55,4.84-2.27,7.11,6.02,2.95,11.9,5.84,17.93,8.8ZM420.52,293.67s0-.02,0-.03c4.08,0,8.17-.02,12.25.01.93,0,1.53-.13,1.38-1.29-.83-6.69-1.33-13.43-2.51-20.06-2.71-15.28-8.36-29.51-16.2-42.89-.7-1.19-1.15-1.4-2.48-.7-5,2.61-10.07,5.06-15.18,7.44-1.11.52-1.12.89-.82,1.95,2.25,7.93,4.67,15.83,6.51,23.87,2.27,9.91,3.13,20.03,3.42,30.19.04,1.35.57,1.53,1.69,1.52,3.98-.04,7.96-.02,11.94-.02ZM184.46,228.09c-.33.55-.8,1.23-1.19,1.95-1.55,2.9-3.1,5.81-4.6,8.73-3.81,7.42-6.8,15.19-8.85,23.24-1.66,6.52-2.82,13.18-3.94,19.82-.59,3.49-.63,7.08-.9,10.62-.05.7.08,1.21.99,1.21,6.65-.02,13.3-.01,19.94,0,.8,0,1.05-.33,1.1-1.13.27-4.59.38-9.2.96-13.76.85-6.68,1.66-13.4,3.19-19.94,1.82-7.76,4.4-15.34,6.59-23.02.11-.37-.15-1.12-.45-1.28-4.21-2.17-8.46-4.27-12.85-6.46ZM198.07,361.15c-7.04-18.82-10.53-38.35-11.14-58.51h-21.95c.84,23.63,7.4,45.38,19.52,65.47,4.57-2.35,9.02-4.63,13.57-6.96ZM409.79,220.81c-8.46-12.16-18.34-22.2-29.77-30.71-8.01-5.97-16.56-11.03-25.78-14.93.05.25.17.41.3.53,4.16,3.88,8.49,7.6,12.45,11.68,6.03,6.2,11.26,13.09,15.57,20.58,3.64,6.33,6.83,12.92,10.18,19.42.36.71.62,1.15,1.5.73,5.08-2.41,10.18-4.78,15.54-7.29ZM393.37,367.47c-9.1,21.06-21.57,39.14-39.12,53.53,22.5-10.1,41.01-25.03,55.5-45.54-5.57-2.72-10.89-5.31-16.39-7.99ZM232.39,181.49c-17,9.94-31.53,22.62-42.93,39.15,4.02,2.07,7.93,4.09,11.91,6.14,7.84-17.07,17.69-32.35,31.02-45.28ZM232.6,414.94c-.22-.53-.23-.64-.3-.71-6.56-6.2-12.34-13.05-17.36-20.56-4.54-6.79-8.66-13.81-12.14-21.21-1.36-2.89-1.38-2.96-4.22-1.59-3.04,1.46-6.01,3.07-9.14,4.68,11.52,16.38,25.79,29.28,43.17,39.39Z"/>
            <path class="cls-1" d="M299.84,442.58c-.26,0-.53,0-.79,0-38.88,0-75.36-15.36-102.74-43.25-27.39-27.9-42.05-64.82-41.29-103.96,1.53-79.18,64.63-141.49,143.64-141.86.24,0,.48,0,.71,0,39.13,0,75.67,15.16,102.95,42.74,27.55,27.85,42.39,64.8,41.78,104.07-1.21,78.58-65.87,142.26-144.26,142.27ZM299.19,440.54h0c.21,0,.43,0,.65,0,77.29,0,141.03-62.78,142.23-140.26.6-38.71-14.03-75.15-41.19-102.6-26.89-27.18-62.92-42.13-101.5-42.13-.24,0-.47,0-.7,0-77.9.37-140.1,61.8-141.62,139.86-.75,38.59,13.71,74.98,40.71,102.49,27,27.5,62.96,42.64,101.29,42.64h.13ZM297.02,433.7c-3.77,0-7.54-1.4-11.09-4.2-5.78-4.57-9.46-10.54-12.02-15.23-5.94-10.87-10.37-23.08-13.96-38.43-1.06-4.54-1.98-9.02-2.96-13.77-.44-2.13-.88-4.28-1.34-6.47l-.23-1.08,1.1-.14c26.17-3.28,52.6-3.51,80.79-.7l1.08.11-.18,1.08c-2.2,13.07-4.56,23.56-7.45,33-2.99,9.77-6.09,17.59-9.75,24.59-2.69,5.14-6.55,11.69-12.61,16.74-3.59,3-7.48,4.5-11.38,4.5ZM257.87,356.27c.38,1.81.75,3.61,1.12,5.39.97,4.73,1.89,9.2,2.95,13.72,3.54,15.17,7.92,27.21,13.76,37.91,3.67,6.72,7.22,11.23,11.5,14.61,6.49,5.12,13.55,5.03,19.9-.26,5.79-4.83,9.51-11.15,12.11-16.12,3.6-6.89,6.65-14.59,9.61-24.25,2.78-9.1,5.08-19.19,7.21-31.67-27.24-2.65-52.83-2.43-78.15.67ZM319.59,430.58l-1.53-1.33,1.5-2.03c.71-.96,1.43-1.92,2.11-2.89,4.96-7.04,9.09-15.42,12.99-26.38,3.23-9.08,5.86-18.77,8.04-29.61.67-3.34,1.24-6.69,1.81-10.05l.23-1.33c.12-.69.39-2.27,2.36-1.97,14.35,2.19,26.09,4.83,36.95,8.33.25.08.49.18.81.33l1.5.66-.43.95c-15.84,34.48-36.74,55.18-65.78,65.15l-.56.19ZM346.81,356.99c-.01.07-.03.14-.04.2l-.24,1.43c-.58,3.37-1.15,6.75-1.83,10.11-2.19,10.94-4.85,20.72-8.11,29.9-3.97,11.14-8.18,19.68-13.25,26.87-.51.72-1.03,1.44-1.56,2.15,27.03-9.98,46.76-29.86,61.87-62.32-.07-.03-.14-.06-.21-.08-10.75-3.46-22.39-6.09-36.63-8.26ZM273.93,430.4c-.89-.34-1.78-.67-2.68-1-1.98-.73-3.97-1.47-5.9-2.3-12.35-5.34-23.24-13.28-33.3-24.27-7.33-8.02-13.66-17.12-18.8-27.04-1-1.94-1.96-3.9-2.92-5.86l-.92-1.87c-.15-.3-.27-.61-.4-.99l-.59-1.54,1.02-.34c.92-.3,1.82-.62,2.71-.93,2.01-.7,3.91-1.36,5.9-1.89,6.44-1.7,13.26-3.41,20.83-5.22,2.38-.57,4.83-.95,7.19-1.32l1.16-.18c.89-.15,1.85.83,2,1.53.62,2.93,1.21,5.86,1.8,8.79,1.13,5.61,2.29,11.41,3.68,17.05,3.14,12.7,7.28,23.6,12.66,33.35,1.44,2.6,3.17,5.13,4.84,7.57.77,1.12,1.54,2.25,2.28,3.38.17.26.36.51.55.76l.69.94-.8,1.3-1.02.07ZM274.14,429.36l.15.09-.15-.09ZM211.09,366.79c.05.13.1.25.16.36l.92,1.88c.95,1.95,1.9,3.9,2.9,5.82,5.06,9.77,11.28,18.72,18.49,26.6,9.85,10.77,20.52,18.55,32.6,23.77,1.91.82,3.85,1.54,5.8,2.26l.28.1c-.56-.84-1.13-1.67-1.7-2.5-1.7-2.48-3.46-5.05-4.94-7.74-5.46-9.9-9.66-20.97-12.85-33.84-1.4-5.68-2.57-11.5-3.7-17.14-.58-2.89-1.16-5.78-1.77-8.67l-.88.14c-2.33.36-4.73.74-7.03,1.29-7.56,1.81-14.36,3.51-20.78,5.21-1.92.51-3.78,1.16-5.75,1.84-.57.2-1.15.4-1.73.6ZM247.56,357.67h0,0ZM247.25,357.61s-.01.02,0,.03c0-.01,0-.02,0-.03ZM347.7,425.06l5.9-4.84c16.54-13.57,29.24-30.96,38.83-53.15l.42-.98,18.42,8.98-.69.98c-14.48,20.49-32.77,35.5-55.92,45.89l-6.97,3.12ZM393.88,368.85c-8.53,19.44-19.47,35.21-33.3,47.99,19.3-9.85,34.94-23.32,47.64-40.99l-14.35-6.99ZM234.71,417.35l-2.63-1.53c-17.75-10.33-31.98-23.31-43.49-39.69l-.67-.96,3.87-2.01c2.13-1.11,4.22-2.2,6.34-3.22,1.49-.72,2.48-1.19,3.43-.85.94.33,1.37,1.24,2.15,2.9,3.25,6.91,7.19,13.8,12.08,21.11,4.96,7.42,10.75,14.28,17.22,20.39.21.2.29.41.37.61l1.35,3.24ZM190.94,375.91c9.81,13.72,21.6,24.98,35.87,34.27-4.67-4.94-8.93-10.28-12.72-15.94-4.94-7.39-8.94-14.38-12.21-21.34-.41-.87-.82-1.75-1.02-1.88h0c-.21,0-1.15.45-1.83.78-2.1,1.01-4.17,2.09-6.28,3.19l-1.8.93ZM184.12,369.45l-.49-.81c-12.21-20.25-18.83-42.44-19.66-65.96l-.04-1.06h23.99l.03.99c.62,20.64,4.35,40.21,11.07,58.18l.32.85-15.22,7.81ZM166.05,303.66c.96,22.46,7.3,43.68,18.84,63.11l11.91-6.11c-6.5-17.66-10.15-36.83-10.85-57h-19.9ZM414.96,369.32l-19.53-9.58,2.54-7.95c2.91-9.08,4.83-17.51,5.88-25.77.74-5.89,1.22-11.93,1.68-17.77l.36-4.52c.13-1.55.87-2.25,2.4-2.25h.01c8.16.02,16.33.03,24.5-.02.52-.06,1.33.06,1.87.63.53.56.56,1.31.53,1.91-.92,16.02-4.23,31.16-9.84,44.99-3.1,7.64-6.34,14.03-9.9,19.55l-.49.76ZM397.9,358.68l16.32,8.01c3.31-5.24,6.33-11.28,9.24-18.45,5.53-13.63,8.79-28.55,9.69-44.34.01-.19,0-.31,0-.38-.05.01-.16,0-.33,0h-.02c-8.17.04-16.35.03-24.51.02-.18.03-.29.01-.35.02,0,.04-.02.15-.03.35l-.36,4.51c-.46,5.86-.94,11.92-1.69,17.86-1.06,8.38-3.01,16.93-5.96,26.13l-2.01,6.27ZM205.6,359.34l-1.53-4.71c-.88-2.7-1.74-5.33-2.53-7.98-2.44-8.2-4.21-16.76-5.28-25.46-.47-3.82-.73-7.72-.97-11.49-.12-1.86-.24-3.73-.39-5.59-.05-.66-.03-1.4.49-1.97.6-.65,1.54-.65,1.84-.65,11.27.03,22.54.02,33.83.03h11.57c.96,0,1.24.29,1.4.61l.11.39,3.32,46.36-.93.14c-14.23,2.21-27.29,5.47-39.94,9.97l-.99.35ZM196.89,303.55s.01.18.03.4c.15,1.87.27,3.74.39,5.62.25,3.74.5,7.61.96,11.38,1.05,8.58,2.81,17.04,5.21,25.13.78,2.63,1.64,5.25,2.51,7.93l.89,2.73c12.19-4.26,24.77-7.4,38.39-9.57l-3.13-43.6h-11.11c-11.28,0-22.55,0-33.83-.03-.18-.05-.26,0-.33.02ZM388.78,357.69l-.94-.31c-12.05-3.96-25.23-6.98-40.3-9.21l-.93-.14,3.2-46.45h49.27l-.02,1.04c-.39,18.65-3.73,36.87-9.94,54.14l-.34.93ZM348.78,346.29c14.4,2.18,27.1,5.08,38.75,8.84,5.81-16.46,8.99-33.78,9.46-51.52h-45.28l-2.94,42.67ZM254.69,347.74l-.14-1c-1.8-13.21-2.78-27.22-3.1-44.07l-.02-1.04h90.91v1.01c.07,13.48-.87,27.69-2.87,43.46l-.13.99-1-.11c-28.09-3.06-55.12-2.85-82.66.63l-1,.13ZM253.52,303.66c.33,15.89,1.26,29.23,2.93,41.8,27.02-3.34,53.59-3.54,81.14-.62,1.86-14.89,2.75-28.38,2.74-41.18h-86.8ZM197.55,294.72c-.67,0-1.51-.08-2.09-.69s-.63-1.44-.6-2.17c.69-17.17,3.4-32.71,8.29-47.53.48-1.46.98-2.92,1.48-4.4l1.01-2.98,4.64,1.49c2.58.84,5.07,1.65,7.59,2.38,9.58,2.77,18.59,4.78,27.54,6.13,1.78.27,2.5,1.21,2.25,2.97-1.46,10.36-2.37,21.64-2.85,35.52-.06,1.79-.04,3.58-.03,5.43l.02,3.63-1.7.12c-.47.04-.85.07-1.24.07h-11.74c-10.85,0-21.69,0-32.54.04h-.04ZM196.95,292.64s.14.06.63.05c10.85-.04,21.69-.04,32.55-.04h11.74c.28,0,.56-.02.89-.05v-1.71c-.03-1.88-.04-3.7.02-5.52.49-13.95,1.4-25.3,2.87-35.73.05-.38.02-.52.01-.54,0,0-.15-.06-.55-.12-9.05-1.36-18.14-3.39-27.81-6.19-2.54-.73-5.05-1.55-7.65-2.4l-2.73-.88-.37,1.09c-.5,1.47-1,2.92-1.48,4.38-4.82,14.63-7.5,29.99-8.19,46.97-.02.49.03.65.04.69,0,0,0,0,0,0ZM408.51,294.71c-1.21,0-2.58-.31-2.64-2.51-.34-11.82-1.42-21.35-3.4-29.99-1.41-6.18-3.21-12.41-4.95-18.42-.52-1.8-1.04-3.6-1.55-5.39-.4-1.41-.3-2.38,1.37-3.15,5.84-2.72,10.65-5.07,15.14-7.42,1.75-.92,2.83-.61,3.83,1.09,8.23,14.05,13.73,28.59,16.32,43.22.79,4.47,1.29,9.06,1.77,13.5.24,2.21.48,4.41.75,6.61.09.77-.04,1.35-.43,1.78-.58.66-1.49.65-1.97.65-3-.02-5.99-.02-8.98-.01l-3.27.03h-3.29c-2.88-.01-5.76-.01-8.64.02h-.08ZM408.01,292.66c.06,0,.22.02.56.01,2.88-.03,5.77-.03,8.66-.02h2.26s0-.03,0-.03h4.29c3,0,6,0,8.99.01.18.03.3,0,.38-.01,0-.03,0-.08-.01-.13-.28-2.21-.51-4.43-.75-6.64-.48-4.4-.97-8.95-1.75-13.36-2.56-14.4-7.96-28.71-16.07-42.55-.29-.49-.42-.59-.44-.61.01.01-.16.02-.69.29-4.52,2.36-9.35,4.72-15.22,7.46-.29.14-.4.22-.43.25.03-.03.06.14.17.5.51,1.8,1.03,3.59,1.55,5.38,1.75,6.04,3.55,12.29,4.98,18.53,2.01,8.77,3.1,18.43,3.45,30.39.01.36.06.49.08.53,0,0,0,0,.03,0ZM352,294.7c-1.93,0-2.72-.79-2.75-2.7-.21-13.79-.96-25.84-2.29-36.82-.19-1.59-.39-3.18-.66-4.75-.08-.5-.14-1.23.3-1.84.46-.61,1.21-.78,1.73-.84,10.46-1.35,21.24-3.6,32.02-6.67,1.64-.47,3.27-.97,4.99-1.5l3.61-1.1,1.45,4.63c.84,2.66,1.66,5.26,2.41,7.88,2.46,8.59,4.23,17.75,5.27,27.22.33,2.97.49,5.99.66,8.92.09,1.73.19,3.47.32,5.2.06.77-.1,1.34-.49,1.76-.57.62-1.39.6-2.03.61l-27.83-.02c-5.55-.01-11.11-.02-16.66.03h-.06ZM351.38,292.64c.05,0,.22.04.66.03,5.56-.04,11.12-.03,16.68-.02l27.77.02c.2,0,.42,0,.56-.01,0-.04,0-.1-.01-.17-.13-1.74-.23-3.49-.32-5.24-.16-2.9-.33-5.89-.65-8.81-1.03-9.36-2.78-18.4-5.21-26.88-.74-2.6-1.56-5.19-2.4-7.83l-.85-2.7-1.67.51c-1.74.53-3.38,1.04-5.03,1.51-10.88,3.1-21.75,5.36-32.32,6.73-.16.02-.26.04-.33.06.01.04.02.13.04.26.27,1.61.47,3.23.67,4.85,1.34,11.05,2.09,23.17,2.31,37.03,0,.48.07.64.08.67,0,0,0,0,.02,0ZM185.92,294.69h0c-6.65-.01-13.3-.02-19.94,0h0c-.66,0-1.18-.2-1.54-.58-.5-.54-.51-1.24-.47-1.72.08-1.07.14-2.14.21-3.21.14-2.47.29-5.02.71-7.51,1.15-6.81,2.32-13.46,3.96-19.9,2.02-7.95,5.03-15.85,8.93-23.46,1.46-2.85,2.97-5.67,4.47-8.49l.14-.26c.28-.53.61-1.05.9-1.51l.8-1.3,3.35,1.67c3.51,1.75,6.94,3.46,10.34,5.22.78.41,1.18,1.69.96,2.46-.74,2.57-1.51,5.12-2.29,7.68-1.52,4.99-3.09,10.15-4.29,15.29-1.44,6.13-2.25,12.55-3.03,18.75l-.14,1.08c-.43,3.37-.6,6.85-.77,10.21-.06,1.16-.12,2.32-.18,3.48-.1,1.73-1.2,2.09-2.11,2.09ZM170.41,292.64c5.22,0,10.37,0,15.51.02.04.12.07.06.08-.17.07-1.15.13-2.31.18-3.46.17-3.4.35-6.92.79-10.37l.14-1.08c.79-6.26,1.61-12.72,3.07-18.96,1.22-5.2,2.8-10.4,4.32-15.42.78-2.55,1.55-5.09,2.28-7.65h0s-.07-.17-.11-.23c-3.23-1.62-6.65-3.33-10.15-5.07l-1.69-.84c-.22.35-.45.72-.66,1.11l-.14.26c-1.5,2.81-3,5.62-4.46,8.46-3.84,7.48-6.79,15.23-8.77,23.03-1.62,6.36-2.78,12.97-3.92,19.74-.4,2.38-.54,4.87-.68,7.28-.06,1.09-.13,2.17-.21,3.25,0,.04,0,.07,0,.1,1.48,0,2.95,0,4.42,0ZM342.36,294.57h-90.94l.02-1.04c.34-17.18,1.34-31.19,3.15-44.09l.14-.99,1,.12c27.91,3.47,54.93,3.66,82.62.58l1-.11.13.99c1.98,15.52,2.93,29.75,2.89,43.52v1.02ZM253.51,292.53h86.82c0-13.07-.91-26.58-2.75-41.25-27.17,2.95-53.72,2.77-81.1-.57-1.68,12.29-2.63,25.63-2.98,41.82ZM297.66,244.41c-4.98,0-9.65-.11-14.11-.32-5.57-.27-11.22-.79-16.68-1.29-2.94-.27-5.89-.54-8.83-.78-.79-.06-1.35-.32-1.69-.78-.51-.68-.34-1.54-.24-2,.43-2.08.84-4.17,1.26-6.25.88-4.4,1.78-8.95,2.8-13.4,2.86-12.56,6.7-23.65,11.76-33.9,2.57-5.21,6.25-11.87,11.95-17.22,4.34-4.07,8.31-5.92,12.86-6,4.2-.13,8.13,1.5,12.05,4.83,4.39,3.73,8.03,8.54,11.79,15.6,5.09,9.54,9.11,20.26,11.95,31.86,1.46,5.95,2.72,12.05,3.95,17.95.54,2.6,1.08,5.2,1.64,7.8.05.22.04.4.03.59v1.21s-2.51.3-2.51.3c-1.18.15-2.36.3-3.55.37-2.12.13-4.25.26-6.37.4-5.97.38-12.15.78-18.24.93-3.41.09-6.67.13-9.81.13ZM258.05,239.97s.09.01.16.02c2.95.24,5.9.51,8.85.78,5.44.5,11.06,1.02,16.59,1.29,7.23.35,15,.41,23.77.19,6.05-.15,12.21-.55,18.16-.93,2.13-.14,4.25-.27,6.38-.4,1.14-.07,2.27-.21,3.41-.36l.63-.08c-.51-2.5-1.02-4.94-1.52-7.38-1.22-5.88-2.48-11.96-3.93-17.88-2.84-11.59-6.69-21.86-11.77-31.39-3.64-6.82-7.13-11.45-11.32-15-3.57-3.03-6.93-4.4-10.69-4.35-4.01.08-7.56,1.76-11.51,5.45-5.47,5.12-9.03,11.58-11.52,16.63-4.98,10.1-8.77,21.05-11.6,33.45-1.01,4.43-1.91,8.96-2.79,13.35-.42,2.09-.83,4.18-1.26,6.26-.03.15-.05.25-.06.33ZM345.2,241.37l-.73-4.02c-.38-2.12-.75-4.19-1.14-6.26-2.81-14.87-6.4-27.62-10.97-38.96-4.13-10.25-8.25-17.6-13.37-23.85-.16-.19-.24-.38-.36-.63l-1.38-2.78,2.38.85c.83.29,1.61.56,2.38.83,1.59.55,3.07,1.05,4.53,1.64,10.93,4.41,21.11,11.12,30.28,19.93,8.07,7.76,15.02,16.68,20.65,26.5,2.07,3.62,3.94,7.25,5.92,11.09.89,1.73,1.78,3.47,2.71,5.22l.56,1.07-1.15.37c-12.95,4.22-25.82,7.13-39.35,8.88l-.96.13ZM321.96,168.68c4.66,6.16,8.48,13.23,12.29,22.69,4.62,11.46,8.24,24.33,11.08,39.34.39,2.08.77,4.15,1.15,6.28l.38,2.11c12.65-1.69,24.73-4.41,36.87-8.3-.73-1.4-1.45-2.79-2.15-4.17-1.97-3.82-3.82-7.43-5.87-11.01-5.53-9.65-12.36-18.41-20.29-26.04-8.98-8.63-18.95-15.19-29.63-19.51-1.23-.5-2.49-.94-3.82-1.4ZM248.78,240.67l-.98-.16c-14.9-2.43-27.15-5.5-38.55-9.65l-1.05-.38.48-1.01c15.85-33.66,36.52-53.89,65.06-63.65l.58-.2,1.1,1.02-.17,1.04-1.32,1.87c-.98,1.39-1.96,2.78-2.93,4.19-3.27,4.76-6.09,10.19-9.12,17.6-4.07,9.95-7.31,20.73-9.88,32.96-.73,3.45-1.39,6.9-2.07,10.43l-1.15,5.94ZM211,229.32c10.74,3.83,22.28,6.71,36.16,9.02l.77-3.99c.68-3.54,1.35-7.01,2.08-10.47,2.6-12.35,5.87-23.25,9.99-33.31,3.09-7.55,5.96-13.09,9.32-17.98.93-1.35,1.88-2.7,2.82-4.04-26.54,9.75-46.04,29.14-61.14,60.78ZM393.65,229.28c-1.06,0-1.56-.97-1.81-1.45-.9-1.74-1.78-3.48-2.67-5.23-2.38-4.69-4.84-9.53-7.49-14.15-4.24-7.37-9.43-14.23-15.42-20.38-2.7-2.78-5.63-5.44-8.47-8.02-1.32-1.2-2.64-2.4-3.95-3.62-.32-.3-.52-.65-.61-1.07l-.39-1.9,1.79.76c8.89,3.76,17.64,8.83,26,15.05,11.82,8.81,21.63,18.93,30,30.95l.69.99-5.29,2.48c-3.85,1.8-7.6,3.56-11.34,5.33-.39.19-.74.26-1.04.26ZM359.08,178.48l.08.08c2.86,2.6,5.81,5.29,8.56,8.11,6.11,6.27,11.4,13.27,15.72,20.78,2.68,4.66,5.15,9.53,7.54,14.24.88,1.74,1.77,3.48,2.66,5.21.04.07.09.18.14.27,3.86-1.81,7.56-3.54,11.36-5.32l3.1-1.45c-8.08-11.4-17.53-21.06-28.85-29.49-6.57-4.9-13.39-9.06-20.33-12.43ZM201.85,228.16l-13.89-7.16.66-.95c11.02-15.97,25.17-28.87,43.25-39.45l7.26-4.25-6.04,5.86c-12.32,11.95-22.39,26.66-30.8,44.98l-.44.97ZM190.96,220.26l9.93,5.11c7.08-15.21,15.33-27.96,25.08-38.71-14.21,9.35-25.72,20.4-35,33.59Z"/>
          </g>
        </g>
      </g>
    </g>
  </g>
</svg>