<?xml version="1.0" encoding="UTF-8"?>
<svg xmlns="http://www.w3.org/2000/svg" version="1.1" viewBox="0 0 594.84 595.28">
  <defs>
    <style>
      .cls-1 {
        fill: #eb2127;
      }
    </style>
  </defs>
  <!-- Generator: Adobe Illustrator 28.6.0, SVG Export Plug-In . SVG Version: 1.2.0 Build 709)  -->
  <g>
    <g id="Layer_1">
      <g>
        <g>
          <g id="q60JdX.tif">
            <path class="cls-1" d="M314.37,106.6c-63.07,0-126.14,0-189.24.03h-.73c-3.77.03-7.74,0-11.29.73-18.44,3.64-30.83,18.65-30.86,37.36-.08,31.62-.08,63.23-.05,94.82v9.24h11.89v-7.95c0-31.16,0-62.34.03-93.47,0-18.3,10.43-28.81,28.62-28.81,69.24-.05,138.46-.03,207.67-.03h24.58v-11.91h-40.62ZM512.21,214.74h-11.78c.08,47.87.05,95.74.05,143.58v.73c0,3.07,0,6.25-.22,9.38-.89,12.21-10.7,22.21-22.8,23.29-3.67.3-7.33.3-10.94.3h-.78c-66.06.03-132.12.03-198.19.03h-44.74v12.02h2.88v34.2c-.03.65-.13,1.24-.24,1.86-.05.3-.13.62-.19,1l-.32,2.08h-7.71c-4.07-.03-8.09-.05-12.13.03-2.8.05-5.61.05-8.41.05-6.98,0-14.2,0-21.1.89-16.23,2.08-26.31,13.8-26.31,30.56v14.66c0,8.3,1.24,9.57,9.57,9.57h277.59c7.57,0,8.92-1.37,8.95-9.11.03-5.07.03-10.13,0-15.2-.03-16.76-10.13-28.46-26.33-30.48-7.14-.89-14.55-.89-21.75-.89-2.94,0-5.88,0-8.81-.05-3.77-.08-7.57-.05-11.37-.03h-7.63v-39.14h31.86c22.94,0,45.93,0,68.89-.05,4.1,0,8.46-.11,12.48-1.02,18.3-4.1,29.7-19.19,29.76-39.35,0-12.26.03-24.53.08-36.82.13-36.76.24-74.66-.35-112.07ZM238.15,405.16l2.32-.13c.62-.03,1.24-.08,1.86-.13,4.02-.3,7.84-.19,11.72-.19h20.4c23.34.03,47.49.05,71.21-.11,2.48,0,5.47.22,7.41,2.21,1.89,2.02,1.99,4.85,1.89,7.14-.32,5.9-.22,11.97-.16,17.82l.05,3.96c.03,1.59-.11,3.83-1.67,5.39-1.19,1.19-2.88,1.75-5.23,1.75h-.05c-25.77-.08-51.56-.08-77.33-.11h-27.82c-.43,0-.89-.05-1.54-.16-.24-.05-.57-.11-.97-.16l-2.1-.3v-36.98ZM408.79,455.13c3.29,0,6.41.3,9.3.89,10.46,2.1,15.31,8.06,15.34,18.68v12.02H161.22v-2.45c0-1.46-.03-2.94-.05-4.39-.05-3.26-.13-6.63.19-10,.54-5.77,4.39-10.22,10.89-12.45,4.26-1.46,8.95-2.24,13.56-2.24,76.98-.13,155.46-.11,222.98-.05Z"/>
          </g>
          <g id="q60JdX.tif-2" data-name="q60JdX.tif">
            <path class="cls-1" d="M82.27,326.8c.05,12.29.1,24.57.1,36.84.05,20.16,11.44,35.24,29.76,39.36,4.02.91,8.38,1,12.47,1,22.97.07,75.26.07,98.2.05h1.47s0-12.03,0-12.03c-21.97.02-73.22,0-95.17,0h-.78c-3.6,0-7.27,0-10.95-.32-12.1-1.08-21.9-11.07-22.8-23.27-.22-3.14-.22-6.32-.22-9.38v-.73c0-32.28,0-81.49.02-113.8h-12.15c-.1,21.97-.02,60.77.05,82.28Z"/>
          </g>
          <g id="q60JdX.tif-3" data-name="q60JdX.tif">
            <path class="cls-1" d="M239.55,106.61v11.91s24.57,0,24.57,0c69.24,0,138.45-.02,207.69.02,18.17,0,28.61,10.81,28.61,29.1.02,31.15.02,62.33.02,93.49v7.96s11.9,0,11.9,0v-9.26c.02-31.59.02-63.19-.05-94.81-.05-18.71-12.44-34.03-30.86-37.68-3.58-.71-7.54-.69-11.32-.71h-.71c-63.09-.02-126.18-.02-189.25-.02h-40.61Z"/>
          </g>
        </g>
        <path class="cls-1" d="M301.79,197.49H109.11v-56.36h192.68v56.36ZM120.75,185.85h169.4v-33.08H120.75v33.08Z"/>
        <path class="cls-1" d="M485.83,344.15h-192.68v-56.36h192.68v56.36ZM304.79,332.51h169.4v-33.08h-169.4v33.08Z"/>
        <g>
          <rect class="cls-1" x="318.09" y="185.77" width="167.47" height="11.79"/>
          <rect class="cls-1" x="318.09" y="141.75" width="167.47" height="11.79"/>
          <rect class="cls-1" x="318.09" y="163.81" width="167.47" height="11.79"/>
        </g>
        <g>
          <rect class="cls-1" x="109.45" y="332.43" width="167.47" height="11.79"/>
          <rect class="cls-1" x="109.45" y="288.41" width="167.47" height="11.79"/>
          <rect class="cls-1" x="109.45" y="310.47" width="167.47" height="11.79"/>
        </g>
        <path class="cls-1" d="M485.8,273.59H109.13v-61.91h376.67v61.91ZM120.72,262h353.49v-38.73H120.72v38.73Z"/>
      </g>
    </g>
  </g>
</svg>