<?xml version="1.0" encoding="UTF-8"?>
<svg xmlns="http://www.w3.org/2000/svg" version="1.1" viewBox="0 0 594.84 595.28">
  <defs>
    <style>
      .cls-1 {
        fill: #eb2127;
      }
    </style>
  </defs>
  <!-- Generator: Adobe Illustrator 28.6.0, SVG Export Plug-In . SVG Version: 1.2.0 Build 709)  -->
  <g>
    <g id="Layer_1">
      <g>
        <g id="q60JdX.tif">
          <path class="cls-1" d="M231.92,87.55c-41.97,0-83.94,0-125.92.03h-.78c-4.17,0-8.52,0-12.47.75-20.27,4.04-33.89,20.55-33.95,41.16-.09,34.8-.09,69.57-.06,104.34v10.18h13.09v-8.77c0-34.27,0-68.6.03-102.86,0-20.14,11.5-31.7,31.48-31.7,42.88-.03,85.73-.03,128.58-.03h127.01v-13.09h-127.01ZM532.11,219.04c-.03-4.17-.09-8.33-.16-12.5h-12.94v37.81c.06,40.06.03,80.12.03,120.19v.81c0,3.35,0,6.86-.22,10.31-1,13.44-11.78,24.43-25.09,25.62-4.04.34-8.11.34-12.06.34h-.88c-72.67.03-145.37.03-218.1.03h-49.24v13.22h3.19v37.65c-.03.72-.16,1.38-.28,2.04-.06.31-.13.69-.19,1.1l-.38,2.29h-8.46c-4.48-.03-8.93-.06-13.37,0-3.07.09-6.14.09-9.24.09-7.67,0-15.63,0-23.24.97-17.85,2.29-28.94,15.16-28.94,33.64v16.13c0,9.15,1.38,10.52,10.52,10.52h305.49c8.33,0,9.84-1.5,9.84-10.02.03-5.58.03-11.15,0-16.73,0-18.45-11.12-31.32-28.97-33.55-7.83-.97-16.01-.97-23.93-.97-3.23,0-6.45,0-9.71-.09-4.13-.06-8.3-.03-12.5,0h-8.39v-43.07h35.05c25.25,0,50.55,0,75.83-.06,4.48,0,9.3-.13,13.72-1.1,20.14-4.54,32.7-21.14,32.73-43.32,0-13.5.06-27,.13-40.53.13-36.33.22-73.73-.25-110.82ZM230.38,416.09l2.54-.16c.69-.03,1.35-.09,2.04-.13,4.42-.34,8.61-.22,12.9-.22h22.46c25.68.03,52.25.03,78.37-.16,2.73,0,6.01.25,8.14,2.47,2.07,2.19,2.22,5.32,2.07,7.83-.34,6.51-.22,13.19-.16,19.64l.06,4.35c.03,1.72-.13,4.2-1.85,5.92-1.32,1.32-3.16,1.91-5.76,1.91h-.03c-28.38-.06-56.76-.06-85.13-.09h-30.6c-.47,0-.94-.06-1.69-.19-.25-.06-.63-.09-1.03-.16l-2.32-.34v-40.69ZM418.16,471.1c3.6,0,7.05.31,10.24.97,11.46,2.32,16.85,8.86,16.85,20.55v13.25H145.72v-2.69c0-1.63-.03-3.26-.06-4.86-.06-3.6-.16-7.33.19-10.99.6-6.39,4.85-11.24,12-13.72,4.7-1.6,9.84-2.47,14.91-2.47,84.73-.13,171.08-.09,245.41-.03Z"/>
        </g>
        <g id="q60JdX.tif-2" data-name="q60JdX.tif">
          <path class="cls-1" d="M110.35,401.62h-.85c-3.98,0-8.02,0-12.06-.34-13.31-1.19-24.09-12.18-25.09-25.62-.25-3.45-.25-6.95-.25-10.31v-.81c0-35.52,0-89.68.03-125.23h-13.37v4.7c-.09,24.71-.03,63.65.06,85.86.06,13.53.09,27.03.09,40.53.06,22.18,12.59,38.78,32.76,43.32,4.42.97,9.21,1.1,13.72,1.1,25.28.06,82.82.06,108.06.06h1.63v-13.25c-24.18.03-80.59,0-104.74,0Z"/>
        </g>
        <g id="q60JdX.tif-3" data-name="q60JdX.tif">
          <path class="cls-1" d="M532.05,129.81c-.06-20.58-13.69-37.43-33.95-41.47-3.95-.75-8.3-.75-12.47-.75h-.78c-41.97-.03-83.94-.03-125.92-.03h-127.01v13.09h127.01c42.85,0,85.7,0,128.58.03,19.98,0,31.48,11.9,31.48,32.01.03,24.62.03,49.24.03,73.86v37.81h13.09v-25.31c.03-29.73.03-59.48-.06-89.24Z"/>
        </g>
        <g id="astLf3">
          <g>
            <path class="cls-1" d="M491.82,313.26c-8.95-6.81-18.3-13.25-27.94-19-2.28-1.36-7.73-.4-9.61,1.55-1.91,1.99-1.66,6.48-1.51,9.87.07,1.58,2.06,3.09,3.68,5.34h-19.11c0-7.18.11-13.95,0-20.69-.15-5.82-3.06-9.9-9.06-9.68-5.45.18-8.17,4.12-8.17,9.64s.37,10.57-.18,15.76c-.18,1.91-2.32,5.01-3.79,5.15-6.18.55-12.44.22-19.66.22,0-7.44.07-13.91,0-20.43-.07-6.07-2.72-10.49-9.28-10.27-6.26.22-8.06,4.9-8.1,10.45v19.81h-22.82c-1.66-6.77,1.25-16.49-9.5-16.42-10.6.04-7.8,9.68-9.42,16.86-7.11,0-14.17-.26-21.17.11-5.01.26-6.33-1.77-6.18-6.44.26-8.65.04-17.34.07-26.03.04-6-1.1-11.3-8.39-11.93-5.85-.48-8.98,3.79-9.02,12.04-.07,10.46,0,20.87,0,31.55h-23.67c0-6.26.96-12-.33-17.19-.81-3.24-4.6-7.22-7.77-8.03-4.93-1.33-8.43,2.54-8.98,7.62-.48,4.68,0,9.46-.29,14.17-.11,1.47-1.4,2.91-2.21,4.45-2.91-5.89-4.42-11.38-7.8-15.28-8.25-9.57-8.17-9.09-3.39-20.43,2.58-6.11,5.93-7.18,12.04-6.55,4.9.48,10.79,0,14.84-2.39,10.79-6.44,20.95-13.92,31.03-21.39,4.38-3.24,7.07-3.31,11.19.88,9.57,9.72,19.95,18.66,29.89,28.01,3.9,3.68,7.88,4.49,12.88,2.21,8.1-3.72,16.57-6.7,24.52-10.68,8.17-4.09,16.01-5.15,24.85-2.1,7.4,2.54,15.42,3.28,22.9,5.56,7.33,2.28,11.41-.48,14.58-6.74,3.39-6.77,7.22-13.4,10.82-20.1,9.28-17.04,18.48-34.13,27.79-51.21,2.69-4.97,3.28-9.9-2.14-13.03-5.67-3.31-9.98-.41-12.96,4.82-.52.88-.92,1.88-1.44,2.8-7.91,14.5-15.76,29.08-23.78,43.51-4.01,7.29-6.92,18.15-13.03,20.58-6.66,2.65-16.57-2.17-24.85-4.53-7.99-2.28-15.28-2.06-22.79,1.77-6.99,3.53-14.61,5.89-21.61,9.5-5.19,2.65-8.5,1.33-12.37-2.43-9.79-9.5-20.1-18.48-29.93-27.98-4.82-4.68-9.31-4.79-14.69-1.18-8.25,5.56-16.71,10.79-26.47,17.04-1.62-8.17-2.76-15.09-4.45-21.9-2.72-10.86-12.59-15.28-22.6-10.34-2.61,1.25-5.01,2.98-7.69,4.01-1.44.52-3.64.59-4.9-.18-11.04-6.59-12.88-12-8.21-23.6,3.98-9.94-.18-19.33-10.49-21.24-11.6-2.17-23.38-3.57-35.16-4.27-10.09-.63-16.42,7.29-15.17,17.45.37,2.87,1.29,5.67,1.47,8.54.15,1.62-.11,4.23-1.14,4.86-5.12,3.09-10.34,6.74-16.01,7.99-2.43.52-6.15-4.16-9.06-6.7-8.91-7.77-19.51-6.15-24.89,4.34-4.75,9.35-9.24,18.88-13.36,28.53-4.6,10.79.81,20.17,12.33,22.09,2.61.4,5.23.63,7.77,1.25,1.4.33,3.61,1.07,3.83,2.02,1.36,5.85,3.31,11.89,2.87,17.71-.18,2.47-5.56,4.75-8.8,6.74-10.57,6.55-12.11,16.79-3.35,25.58,6.66,6.7,13.66,13.03,20.58,19.51,10.97,10.23,22.27,8.21,27.94-5.78,2.8-6.88,6.63-8.21,13.18-7.07,6.41,1.14,12.26.77,13.58,10.23,2.28,16.12,12.11,19.84,26.73,12.18,5.19-2.69,11.12-5.56,16.75-5.6,72.3-.37,144.6-.26,216.9-.22,2.43,0,4.9.29,7.91.48-.85,1.58-1.07,2.32-1.58,2.83-3.61,3.79-4.23,8.1-.85,12.04,3.76,4.27,8.28,3.57,12.7.48,7.95-5.56,16.09-10.9,23.97-16.6,5.82-4.2,6.7-10.57,1.51-14.54ZM222.65,269.31c-.88,1.88-1.84,3.76-2.72,5.67-7.1,15.02-6.85,16.49,4.9,28.68.88.92,1.51,2.02,2.72,3.64-7.47,4.2-14.5,8.1-22.2,12.37-.81-2.43-1.62-4.23-2.02-6.15-2.91-12.88-6.41-16.05-19.44-17.56-4.71-.55-9.39-1.21-14.1-1.66-12.7-1.25-16.09.7-21.68,12.04-.77,1.62-1.69,3.17-3.13,5.93-6.44-6-12.41-11.56-18.19-16.97.48-1.22.52-1.88.85-2.1q16.93-11.15,13.36-31.14c-.52-2.83-1.03-5.67-1.55-8.54-2.21-12.07-5.6-15.35-17.85-17.3-1.95-.29-3.9-.85-6.88-1.51,3.64-7.92,6.96-15.2,10.82-23.56,2.8,2.39,4.9,4.09,6.96,5.89,7.4,6.52,12.7,7.18,21.46,2.47,5.3-2.83,10.6-5.78,15.83-8.8,10.31-5.96,12-9.68,9.83-21.2-.37-2.02-.44-4.05-.77-7.29,8.84,1.07,16.93,2.02,26.95,3.24-11.23,14.65-6.33,24.55,5.12,34.97,11.49,10.38,21.57,19.44,37.59,5.04,1.95,10.31,3.42,18.19,4.86,25.84-1.25.59-1.69,1.03-2.14,1.03-19.92-1.29-19.99-1.25-28.57,16.97Z"/>
            <path class="cls-1" d="M290.94,139.39c12.62,0,25.25.06,37.87-.04,6.02-.05,10.88,1.88,10.85,8.51-.03,6.63-5.03,8.57-10.94,8.57-24.99,0-49.97.03-74.96,0-5.85,0-10.86-1.83-10.77-8.62.09-6.67,4.81-8.53,10.86-8.46,12.36.14,24.72.04,37.08.03Z"/>
            <path class="cls-1" d="M275.18,192.8c-7.08.01-14.17-.05-21.25.03-5.92.07-10.77-1.68-10.91-8.4-.13-6.68,4.42-8.83,10.51-8.8,14.69.06,29.39.06,44.08,0,5.77-.02,10.12,2.19,10.21,8.3.1,6.61-4.6,8.84-10.59,8.86-7.35.01-14.69,0-22.04.02Z"/>
            <path class="cls-1" d="M183.11,222.63c-15.57-.63-28.97,11.78-29.63,27.39-.66,15.46,11.89,28.94,27.54,29.63,15.46.66,29.08-11.96,29.63-27.5.55-15.65-11.78-28.9-27.54-29.52ZM182.41,262.39c-6.07.22-11.04-4.38-11.49-10.57-.44-6.37,4.45-11.89,10.79-12.11,6-.26,11.19,4.53,11.52,10.57.37,6.55-4.45,11.93-10.82,12.11Z"/>
          </g>
        </g>
      </g>
    </g>
  </g>
</svg>