<?xml version="1.0" encoding="UTF-8"?>
<svg xmlns="http://www.w3.org/2000/svg" version="1.1" viewBox="0 0 594.84 595.28">
  <defs>
    <style>
      .cls-1 {
        fill: #eb2127;
      }
    </style>
  </defs>
  <!-- Generator: Adobe Illustrator 28.6.0, SVG Export Plug-In . SVG Version: 1.2.0 Build 709)  -->
  <g>
    <g id="Layer_1">
      <g id="SLGnmk.tif">
        <g>
          <path class="cls-1" d="M177.49,519.25c-.06-.02-.13-.04-.19-.06-11.32-3.62-18.87-14.33-18.97-26.21-.13-14.69-.06-29.38-.03-44.07.01-6.55,2.27-8.83,8.9-8.84,28.31-.03,56.61-.01,84.92-.02,47.38,0,94.76,0,142.15,0h5.81v-14.85c-.29-.17-.53-.45-.79-.46-10.78-.66-11-.91-12.78-11.75-.14-.88-.18-2.33-.17-3.22.07-7.74-5.53-10.42-12.03-12.14-1.04-.27-2.6.33-3.55,1.03-3.59,2.64-7,5.53-10.54,8.23-4.01,3.05-7.2,2.99-10.68-.41-6.27-6.13-12.42-12.39-18.62-18.6-3.19-3.19-3.61-6.61-.93-10.34,1.71-2.37,3.14-5,5.11-7.11,3.82-4.08,4.09-7.86,1.58-13.05-1.97-4.08-4.08-5.86-8.44-5.87-3.36,0-6.74-.56-10.08-1.05-4.59-.67-7.11-3.32-6.87-8.39.41-8.47.48-16.91.02-25.37-.28-5.13,2.26-7.77,6.91-8.49,2.13-.33,4.25-.95,6.37-.97,6.73-.06,10.93-2.76,12.75-9.68.8-3.02,1.06-5.01-1.08-7.38-2.67-2.97-5.08-6.18-7.48-9.38-2.92-3.89-2.86-6.92.42-10.29,6.21-6.37,12.57-12.61,18.85-18.91,2.68-2.68,6.89-3.1,9.99-.92,3.52,2.48,7.13,4.84,10.52,7.5,2.2,1.72,3.98,1.37,6.61.73,7.51-1.83,9.94-6.54,9.4-13.61-.01-.15.02-.31.03-.46,1.07-11.96,1.97-12.79,14.04-12.79,6.77,0,13.54-.07,20.31.03,5.67.08,7.7,1.88,8.74,7.42.39,2.12,1.06,4.26.99,6.37-.21,6.81,2.96,10.46,9.49,12.3,2.98.84,4.98,1.23,7.37-1.05,2.89-2.74,6.13-5.14,9.31-7.56,3.83-2.92,6.89-2.86,10.3.45,6.4,6.21,12.66,12.57,18.97,18.87,2.67,2.67,3.09,6.88.93,9.98-2.55,3.66-5.38,7.15-7.6,11-.88,1.52-.83,3.87-.54,5.73,1.27,8.01,6.78,9.7,14.06,10.08,12.05.63,12.69,1.75,12.69,13.96,0,6.62.03,13.24,0,19.86-.03,5.85-1.77,7.94-7.6,9.04-4.08.77-8.24,1.16-12.24,2.22-1.57.42-3.13,1.95-4.08,3.38-4.12,6.18-2.76,11.17,2.24,16.8,8.92,10.03,8.5,10.4-.87,19.86-4.55,4.59-9.05,9.23-13.66,13.76-4.05,3.98-6.66,4.11-11.41.85-1.52-1.04-3.24-1.91-4.5-3.21-5.16-5.34-10.8-6.38-16.94-1.98-1.5,1.08-3.03,2.85-3.44,4.56-.85,3.58-.99,7.34-1.35,11.03-.49,4.98-4.65,8.79-9.65,8.82-1.68.01-3.36,0-5.78,0v5.13c0,19.09-.45,38.19.14,57.26.42,13.65-3.42,25.36-17.62,31.56-3.24,1.42-6.77,2.08-10.31,2.08h-200.6c-2.88,0-5.73-.51-8.47-1.4ZM344.41,381.25l11.31,11.4c3.75-2.96,7.51-5.84,11.18-8.85,2.56-2.1,6.11-2.53,9.1-1.13,5.09,2.37,10.28,4.6,15.6,6.4,3.66,1.24,5.63,3.33,6.19,7.12.71,4.81,1.66,9.58,2.48,14.19h16.11c.5-4.57,1.08-8.83,1.39-13.1.39-5.39,3.25-8.2,9.64-9.41,3.25-.61,6.3-1.96,9.04-3.81,4.79-3.24,8.45-3.84,12.38-.88,3.8,2.85,7.73,5.52,10.97,7.83,4.13-3.75,7.96-7.22,11.98-10.87-3.14-4.01-6.01-7.79-9-11.47-2.32-2.86-2.33-5.71-.85-9,2.3-5.12,4.44-10.3,6.25-15.62,1.34-3.93,3.78-5.78,7.78-6.33,4.52-.62,9.01-1.51,13.51-2.28v-16c-4.97-.61-9.68-1.29-14.41-1.74-3.92-.38-5.92-2.57-7.2-6.15-1.84-5.15-4.09-10.15-6.38-15.12-1.66-3.6-1.41-6.65,1.06-9.91,2.76-3.65,5.3-7.46,7.87-11.11l-11.4-11.41c-3.72,2.97-7.46,5.9-11.13,8.91-3.11,2.56-6.19,2.48-9.85.63-4.8-2.43-9.9-4.24-14.96-6.05-3.54-1.27-5.5-3.43-6.1-7.14-.64-3.95-1.17-7.92-2.06-11.81-.22-.98-1.56-2.37-2.45-2.42-4.56-.25-9.13-.11-13.89-.11-.64,5.21-1.29,9.91-1.77,14.63-.46,4.59-3.34,6.59-8.26,7.82-4.09,1.02-7.92,2.89-11.56,5.01-4.09,2.38-7.41,2.57-10.94-.06-3.79-2.83-7.71-5.48-11.21-7.96-4.08,3.8-7.86,7.33-11.77,10.97,2.87,3.62,5.51,7.18,8.39,10.54,2.58,3.01,3.03,7.33,1.18,10.84-2.31,4.39-4.35,9.03-5.68,13.8-1.26,4.53-3.82,6.71-8.26,7.37-4.49.66-8.95,1.55-13.54,2.36,0,4.54.15,8.54-.05,12.52-.15,2.9,1.18,3.72,3.77,3.87,3.37.2,6.72.74,10.09,1.02,4.26.36,6.74,2.41,8.07,6.78,1.5,4.93,3.79,9.58,6.08,14.2,1.89,3.82,1.76,7.09-.84,10.51-2.69,3.53-5.18,7.23-7.88,11.03ZM400.2,454.33h-228.03c0,12.04,0,23.71,0,35.39,0,12,5.04,17,17.15,17,64.6,0,129.19,0,193.79,0,1.38,0,2.77.06,4.15-.04,6.57-.49,12.58-5.06,12.79-11.22.48-13.63.15-27.3.15-41.13Z"/>
          <path class="cls-1" d="M400.4,141.86h-228.23c0,1.91,0,3.83,0,5.76,0,87.44,0,174.88,0,262.32,0,7.35-2.32,10.86-7.1,10.75-4.64-.11-6.78-3.44-6.78-10.56,0-101.3,0-202.59,0-303.89,0-19.59,11.28-30.79,30.99-30.79,64.77,0,129.55,0,194.32,0,19.52,0,30.72,11.11,30.74,30.52.02,23.09.06,46.18-.15,69.27-.02,2.5-1.04,5.62-2.73,7.29-1.32,1.3-5.1,1.82-6.57.84-2.08-1.37-4.15-4.39-4.28-6.8-.49-9.37-.21-18.77-.21-28.16,0-1.99,0-3.98,0-6.55ZM400.4,127.37c0-7.24,0-14,0-20.75-.01-12.4-4.88-17.28-17.3-17.28-64.75,0-129.51,0-194.26,0-1.23,0-2.47-.06-3.69.04-6.79.59-12.51,5.71-12.82,12.37-.39,8.43-.09,16.89-.09,25.62h228.17Z"/>
          <path class="cls-1" d="M311.31,164.4c-.83,2.57-1.25,4.2-1.86,5.76-12.9,32.54-25.81,65.06-38.73,97.59-.4,1-.79,2-1.3,2.94-1.95,3.61-5.43,4.92-8.9,3.42-3.48-1.51-5.07-4.95-3.74-8.76,1.47-4.2,3.22-8.3,4.86-12.44,11.67-29.39,23.32-58.79,35.08-88.14.82-2.04,2.08-4.53,3.84-5.41,1.88-.94,4.95-.95,6.83-.01,1.83.91,2.82,3.52,3.93,5.05Z"/>
          <path class="cls-1" d="M354.53,216.52c-8.21-7.9-15.42-14.83-22.62-21.77-.89-.85-1.78-1.71-2.58-2.64-2.8-3.32-2.8-7.25-.05-9.94,2.79-2.73,6.77-2.82,9.92.27,7.47,7.32,14.77,14.83,22.13,22.26,2.17,2.19,4.38,4.33,6.46,6.59,2.94,3.2,3.25,6.83.26,9.93-9.61,9.97-19.37,19.8-29.24,29.52-2.93,2.88-6.83,2.58-9.53-.08-2.78-2.74-2.9-6.77.1-9.9,6.6-6.89,13.35-13.63,20.11-20.38,1.19-1.19,2.68-2.08,5.04-3.87Z"/>
          <path class="cls-1" d="M218.45,216.3c4.83,4.6,9.08,8.58,13.24,12.66,3.63,3.55,7.19,7.17,10.71,10.83,3.66,3.81,3.94,8.02.85,10.95-3.08,2.93-6.83,2.6-10.57-1-2.21-2.14-4.34-4.37-6.5-6.55-6.81-6.89-13.65-13.77-20.43-20.7-4.31-4.41-4.39-7.65-.2-11.91,9.05-9.22,18.14-18.41,27.28-27.55,3.57-3.58,7.58-3.79,10.57-.79,2.88,2.89,2.69,7.14-.82,10.62-7.76,7.68-15.65,15.23-24.13,23.45Z"/>
          <path class="cls-1" d="M407.62,291.46c20.37.07,36.95,16.83,36.72,37.13-.23,20.12-16.87,36.68-36.86,36.68-20.31,0-36.9-16.67-36.86-37.05.04-20.47,16.51-36.83,37-36.76ZM414.35,349.55c9.98-2.22,17.17-13.03,15.96-23.29-1.49-12.62-11.36-21.26-23.88-20.9-11.37.32-21.1,9.68-21.89,21.04-.76,10.94,6.31,21.43,15.9,23.09,0-1.73,0-3.4,0-5.08,0-6.77-.13-13.55.07-20.31.13-4.53,3.34-7.55,7.23-7.36,3.77.18,6.35,3.08,6.57,7.49.09,1.84.04,3.69.04,5.54,0,6.55,0,13.11,0,19.78Z"/>
          <path class="cls-1" d="M286.65,476.01c9.84,0,19.69-.05,29.53.02,5.63.04,8.46,2.45,8.46,6.9,0,4.39-2.98,6.97-8.46,6.99-19.84.05-39.68.05-59.52,0-5.65-.01-8.9-2.79-8.76-7.22.14-4.24,3.18-6.64,8.76-6.68,10-.06,19.99-.02,29.99-.02Z"/>
          <path class="cls-1" d="M304.01,115.35c-5.69,0-11.38.09-17.07-.03-4.58-.09-7.62-2.99-7.57-6.92.05-3.76,2.93-6.8,7.26-6.87,11.53-.17,23.07-.17,34.6,0,4.65.07,7.39,3.14,7.23,7.25-.16,4.02-2.75,6.44-7.37,6.54-5.69.12-11.38.03-17.07.03Z"/>
        </g>
      </g>
    </g>
  </g>
</svg>