<?xml version="1.0" encoding="UTF-8"?>
<svg xmlns="http://www.w3.org/2000/svg" version="1.1" viewBox="0 0 594.84 647.63">
  <defs>
    <style>
      .cls-1 {
        fill: #eb2127;
      }
    </style>
  </defs>
  <!-- Generator: Adobe Illustrator 28.6.0, SVG Export Plug-In . SVG Version: 1.2.0 Build 709)  -->
  <g>
    <g id="Layer_1">
      <g>
        <g id="BiX05m">
          <path class="cls-1" d="M572.64,356.44h-22.06c0,10.83.01,22.06.05,33.39-7.14,1.37-14.19,2.79-21.03,4.17l-.37.07c-6.8,1.37-13.83,2.79-20.76,4.12-7.9,1.51-12.92,6.07-14.89,13.53-4.08,15.42-10.37,30.55-18.7,44.98-3.57,6.18-3.35,12.55.66,18.42,4.28,6.27,8.48,12.61,12.6,18.8,3.91,5.89,7.94,11.96,12.01,17.94-12.34,12.17-24.59,24.45-36.47,36.33l-10.7,10.71c-5.53-3.65-13.28-8.65-16.3-10.59-1.88-1.24-3.73-2.45-5.55-3.65l-.55-.37c-5.01-3.3-9.74-6.41-14.37-9.64-5.83-4.08-12.23-4.34-18.5-.75-14.48,8.28-29.5,14.55-44.6,18.61-7.82,2.1-12.52,7.16-13.99,15.05-1.3,6.95-2.72,14.01-4.09,20.83l-.09.43c-1.37,6.79-2.78,13.8-4.11,20.87-11.25-.06-22.79-.1-35.19-.1-9.9,0-20.37.02-31.64.06-1.34-6.98-2.74-14.02-4.13-20.84l-.09-.44c-1.43-7.07-2.9-14.39-4.3-21.74-1.37-7.25-5.71-11.92-12.88-13.83-15.73-4.23-31.04-10.58-45.47-18.87-6.43-3.7-12.82-3.38-18.96.94-4.9,3.44-10.06,6.84-15.05,10.11l-4.63,3.05c-.26.17-1.3.83-2.73,1.74l-.81.51c-4.41,2.79-10.44,6.62-12.88,8.26-.11.07-.25.16-.38.26l-11.8-11.8c-11.52-11.54-23.42-23.47-35.27-35.16,3.97-5.86,7.92-11.8,11.75-17.56l.17-.27c4.15-6.25,8.44-12.71,12.74-19.03,4.01-5.89,4.25-11.96.74-18.03-8.41-14.55-14.82-29.97-19.04-45.85-1.87-7.05-6.54-11.35-13.9-12.78-6.47-1.26-12.93-2.56-19.39-3.87-7.7-1.54-15.61-3.14-23.49-4.66.06-23.42.06-45.34,0-66.8,7.63-1.46,15.28-3.01,22.72-4.51l.39-.09c6.56-1.32,13.34-2.7,20.01-3.98,7.08-1.36,11.79-5.7,13.59-12.54,4.15-15.69,10.56-31.14,19.03-45.9,3.49-6.11,3.22-12.47-.8-18.39-3.99-5.89-8-11.92-11.89-17.74l-4.08,2.71,3.97-2.88c-4.09-6.14-8.3-12.46-12.54-18.71,15.06-14.88,30.6-30.4,47.32-47.33,6.13,4.17,12.27,8.26,18.25,12.23,5.56,3.71,11.87,7.9,17.96,12.06,6.32,4.29,12.81,4.56,19.29.8,13.8-8.04,29.09-14.37,45.47-18.83,6.92-1.89,11.13-6.43,12.49-13.53,1.41-7.29,2.87-14.53,4.28-21.55,1.42-7.05,2.88-14.3,4.28-21.59,9.69.04,19.64.07,29.74.07v-22.06c-11.25,0-22.41-.04-33.26-.09-9.36,0-15.73,5.27-17.47,14.44-1.58,8.33-3.27,16.74-4.91,24.88l-.06.32c-1.23,6.11-2.49,12.4-3.7,18.63-16.3,4.67-31.64,11.04-45.68,18.97-5.31-3.59-10.69-7.18-15.91-10.66l-.29-.2c-6.7-4.47-13.65-9.09-20.51-13.8-8.06-5.51-16.6-4.71-23.45,2.21-18.33,18.56-35.19,35.43-51.52,51.53-7.03,6.94-7.83,15.26-2.23,23.44,4.72,6.91,9.45,14.01,14.02,20.87l.13.21c3.69,5.55,7.07,10.62,10.48,15.67-8.17,14.73-14.53,30.06-18.92,45.67-5.94,1.15-11.92,2.37-17.73,3.54l-.18.04c-8.49,1.72-17.27,3.49-25.91,5.11-9.22,1.72-14.47,8.12-14.45,17.57.07,23.65.07,47.83,0,73.9-.02,9.26,5.13,15.56,14.17,17.27,9.02,1.7,18.17,3.55,27.03,5.33,5.69,1.15,11.37,2.3,17.07,3.42,4.44,15.77,10.78,31.11,18.91,45.66-3.65,5.42-7.29,10.88-10.83,16.2l-.44.66c-4.39,6.6-8.92,13.43-13.44,20.07-5.51,8.09-4.64,16.4,2.44,23.39,12.43,12.25,24.99,24.83,37.13,36.98l14.17,14.19c10.64,10.62,21.47,3.3,26.09.17,2.17-1.47,8.57-5.51,12.38-7.93l.17-.11c1.92-1.23,3.35-2.12,3.66-2.33l4.61-3.04c4.39-2.88,8.91-5.86,13.39-8.96,14.55,8.11,29.86,14.46,45.68,18.93,1.21,6.31,2.5,12.67,3.74,18.83l.11.5c1.51,7.49,3.22,15.98,4.75,24.19,1.76,9.41,8.21,14.82,17.81,14.82,28.2-.11,51.37-.1,72.94.04h.15c9.93,0,16.4-5.47,18.21-15.38,1.42-7.72,3-15.59,4.53-23.21l.05-.21c1.29-6.42,2.62-13.03,3.86-19.61,15.46-4.3,30.78-10.62,45.66-18.87,4.03,2.76,8.08,5.42,12.38,8.23l.65.44c1.78,1.16,3.58,2.35,5.44,3.58l.1.07c6.84,4.37,17.81,11.51,20.61,13.5,9.3,6.62,17.54-.02,20.62-3.15l13.38-13.39c12.5-12.54,25.43-25.49,38.31-38.16,7.19-7.08,8.04-15.55,2.38-23.82-4.51-6.6-9.02-13.39-13.39-19.96l-.12-.18c-3.39-5.12-7.21-10.84-11.03-16.49,8.21-14.68,14.56-30,18.88-45.63,6.54-1.26,13.16-2.6,19.63-3.9,7.76-1.57,15.78-3.19,23.9-4.72,9.48-1.79,14.9-8.27,14.85-17.77-.05-12.41-.07-24.78-.06-36.7Z"/>
        </g>
        <g id="HPahC5">
          <g>
            <path class="cls-1" d="M311.04,277.28c31.27,0,61.48-.05,91.68.05,4.25.01,8.61.27,12.74,1.2,17.36,3.9,30.13,18.24,31.97,35.94.43,4.13,1.63,6.18,5.99,7.55,22.14,6.98,36.8,27.47,36.68,50.39-.12,22.7-14.72,42.7-36.71,49.73-3.82,1.22-5.45,2.8-5.91,6.97-2.4,21.79-19.21,37.66-41.1,37.75-70.66.29-141.32.3-211.98,0-22.34-.1-39.24-16.56-41.28-38.95-.3-3.27-1.54-4.39-4.44-5.32-23.34-7.53-38.07-27.28-38.02-50.66.05-23.13,14.83-42.95,37.75-50.26,3.15-1.01,4.46-2.22,4.76-5.76,1.82-22.04,19.48-38.43,41.63-38.57,29.2-.18,58.41-.05,87.61-.06,2.21,0,4.43,0,7.48,0,0-7.13.33-13.84-.23-20.47-.14-1.68-2.89-3.44-4.78-4.62-11.27-6.99-17.04-17.06-15.9-30.24,1.16-13.44,8.58-22.9,21.36-27.24,12.81-4.36,24.31-1.16,33.49,8.74,13.85,14.93,9.87,38.77-8.21,48.7-3.67,2.01-4.85,4.09-4.64,8,.3,5.45.07,10.93.07,17.13ZM300.09,445.75c34.08,0,68.16,0,102.24,0,16.46,0,24.38-7.88,24.39-24.38.02-33.06.01-66.12,0-99.18,0-15.57-8.22-23.8-23.78-23.8-68.37-.01-136.73,0-205.1,0-15.44,0-23.8,8.31-23.82,23.81-.04,33.06-.03,66.12-.01,99.18,0,16.39,7.99,24.34,24.46,24.35,33.88.02,67.76,0,101.63.02ZM152.55,400.98v-57.78c-12.11,3.36-20.61,15.44-20.64,28.91-.03,13.35,8.49,25.44,20.64,28.86ZM448.22,401.09c13.23-4.33,22.01-17.96,20.65-31.17-1.39-13.49-10.49-25.14-20.65-26.2v57.37ZM300.28,234.95c5.72.03,10.57-4.65,10.65-10.26.08-5.5-4.84-10.52-10.41-10.62-5.61-.1-10.45,4.68-10.51,10.39-.06,5.85,4.45,10.46,10.27,10.49Z"/>
            <path class="cls-1" d="M332.03,361.64c-.04-17.46,13.89-31.53,31.35-31.64,17.66-.12,32.02,14.19,31.91,31.78-.11,17.32-14.29,31.32-31.74,31.32-17.45,0-31.47-14-31.51-31.46ZM363.81,371.97c5.78-.11,10.26-4.79,10.15-10.63-.11-5.74-4.9-10.4-10.58-10.29-5.57.11-10.4,5.14-10.28,10.72.12,5.64,5.02,10.31,10.71,10.2Z"/>
            <path class="cls-1" d="M268.73,361.44c.08,17.49-13.8,31.52-31.29,31.65-17.55.13-31.64-13.66-31.82-31.11-.18-17.79,13.84-31.98,31.6-31.99,17.45,0,31.43,13.95,31.51,31.45ZM247.6,361.91c.16-5.74-4.38-10.63-10.07-10.83-5.61-.2-10.59,4.47-10.81,10.13-.21,5.72,4.33,10.57,10.1,10.76,5.77.2,10.62-4.33,10.78-10.06Z"/>
          </g>
        </g>
        <g>
          <path class="cls-1" d="M375.72,202.68h-22.55c-7.87,0-14.27-6.4-14.27-14.27v-57.92c0-7.87,6.4-14.27,14.27-14.27h22.55c7.87,0,14.27,6.4,14.27,14.27v57.92c0,7.87-6.4,14.27-14.27,14.27ZM353.17,130.3c-.1,0-.18.08-.18.18v57.92c0,.1.08.18.18.18h22.55c.1,0,.18-.08.18-.18v-57.92c0-.1-.08-.18-.18-.18h-22.55Z"/>
          <path class="cls-1" d="M364.85,129.28c-3.89,0-7.05-3.16-7.05-7.05v-39.05c0-3.89,3.16-7.05,7.05-7.05s7.05,3.16,7.05,7.05v39.05c0,3.89-3.16,7.05-7.05,7.05Z"/>
          <path class="cls-1" d="M364.85,241.91c-3.89,0-7.05-3.16-7.05-7.05v-39.05c0-3.89,3.16-7.05,7.05-7.05s7.05,3.16,7.05,7.05v39.05c0,3.89-3.16,7.05-7.05,7.05Z"/>
        </g>
        <g>
          <path class="cls-1" d="M455.91,228.99h-22.55c-7.87,0-14.27-6.4-14.27-14.27v-103.76c0-7.87,6.4-14.27,14.27-14.27h22.55c7.87,0,14.27,6.4,14.27,14.27v103.76c0,7.87-6.4,14.27-14.27,14.27ZM433.35,110.78c-.1,0-.18.08-.18.18v103.76c0,.1.08.18.18.18h22.55c.1,0,.18-.08.18-.18v-103.76c0-.1-.08-.18-.18-.18h-22.55Z"/>
          <path class="cls-1" d="M445.03,109.76c-3.89,0-7.05-3.16-7.05-7.05v-39.05c0-3.89,3.16-7.05,7.05-7.05s7.05,3.16,7.05,7.05v39.05c0,3.89-3.16,7.05-7.05,7.05Z"/>
          <path class="cls-1" d="M445.03,268.23c-3.89,0-7.05-3.16-7.05-7.05v-39.05c0-3.89,3.16-7.05,7.05-7.05s7.05,3.16,7.05,7.05v39.05c0,3.89-3.16,7.05-7.05,7.05Z"/>
        </g>
        <path class="cls-1" d="M536.77,290.41h-22.55c-7.87,0-14.27-6.4-14.27-14.27V64.18c0-7.87,6.4-14.27,14.27-14.27h22.55c7.87,0,14.27,6.4,14.27,14.27v211.96c0,7.87-6.4,14.27-14.27,14.27ZM514.22,64c-.1,0-.18.08-.18.18v211.96c0,.1.08.18.18.18h22.55c.1,0,.18-.08.18-.18V64.18c0-.1-.08-.18-.18-.18h-22.55Z"/>
        <path class="cls-1" d="M525.9,62.98c-3.89,0-7.05-3.16-7.05-7.05V16.89c0-3.89,3.16-7.05,7.05-7.05s7.05,3.16,7.05,7.05v39.05c0,3.89-3.16,7.05-7.05,7.05Z"/>
        <path class="cls-1" d="M525.9,329.65c-3.89,0-7.05-3.16-7.05-7.05v-39.05c0-3.89,3.16-7.05,7.05-7.05s7.05,3.16,7.05,7.05v39.05c0,3.89-3.16,7.05-7.05,7.05Z"/>
      </g>
    </g>
  </g>
</svg>