<?xml version="1.0" encoding="UTF-8"?>
<svg xmlns="http://www.w3.org/2000/svg" version="1.1" viewBox="0 0 594.84 595.28">
  <defs>
    <style>
      .cls-1 {
        fill: #eb2127;
      }
    </style>
  </defs>
  <!-- Generator: Adobe Illustrator 28.6.0, SVG Export Plug-In . SVG Version: 1.2.0 Build 709)  -->
  <g>
    <g id="Layer_1">
      <g>
        <g id="vDr7zz.tif">
          <g>
            <path class="cls-1" d="M133.41,475.31c-6.63,0-11.11.25-15.55-.05-9.63-.66-15.44-5.9-15.51-15.63-.25-34.1-.26-68.2-.02-102.3.07-10.4,6.27-15.57,16.5-15.9,4.38-.14,8.77-.02,14.58-.02,0-6.47,0-11.3,0-16.13,0-78.06-.01-156.13,0-234.19,0-17.68.24-17.88,17.92-17.88,69.38,0,138.76.1,208.15-.15,7.95-.03,13.57,2.13,19.31,7.94,25.11,25.41,51.03,50.03,76.1,75.48,3.7,3.76,6.27,10.4,6.31,15.73.44,53.41.23,106.82.26,160.23,0,2.41.55,4.82.8,6.93,1.08.7,1.73,1.48,2.44,1.54q27.97,2.5,27.97,30.98c0,26.3.02,52.59,0,78.89-.02,21-3.09,24.1-24.1,24.64-1.61.04-3.22.25-7.18.57,0,10.83-.32,21.7.09,32.53.38,9.94-3.43,13.77-13.71,13.74-100.17-.27-200.35-.26-300.52,0-10.06.03-14.36-3.36-13.95-13.52.43-10.59.1-21.2.1-33.41ZM359.45,89.17h-209.32v251.31h294.94v-166.84c-23.08,0-45.52.02-67.96,0-16.7-.02-17.63-.94-17.65-17.19-.03-22.12,0-44.25,0-67.28ZM476.8,357.54H118.07v101.99h358.73v-101.99ZM445.21,476.09H149.87v29.82h295.34v-29.82ZM427.18,157.06c-16.01-17.04-33.17-35.3-51.17-54.45v54.45h51.17Z"/>
            <path class="cls-1" d="M373,262.45c2.83-2.93,2.82-7.6-.05-10.49-5.94-5.98-11.46-11.33-16-17.41-.23-.31-.44-.64-.63-.98-3.58-6.48,4.31-13.73,10.55-9.74.38.24.73.5,1.06.79,8.58,7.51,15.84,16.5,23.91,24.62,5.34,5.38,5.81,10.29.38,15.84-8.87,9.05-17.19,18.71-26.6,27.15-.91.82-2.18,1.23-3.63,1.45-5.06.75-9.47-3.95-8.29-8.92.23-.96.58-1.82,1.14-2.52,5.45-6.81,11.63-13.05,18.14-19.78Z"/>
            <path class="cls-1" d="M221.78,252.08c-2.81,2.88-2.81,7.49.02,10.35,5.79,5.86,11.44,11.41,16.15,17.68.54.72.95,1.53,1.27,2.41,2.35,6.42-4.89,12.65-10.61,8.9-.29-.19-.57-.4-.83-.63-8.85-7.84-16.56-16.96-24.89-25.41-5.29-5.37-5.66-10.3-.18-15.85,8.9-9.03,17.12-18.79,26.51-27.25.96-.86,2.34-1.24,3.93-1.4,4.97-.5,9.06,4.03,7.96,8.91-.24,1.06-.62,2.01-1.23,2.76-5.48,6.77-11.66,12.96-18.08,19.54Z"/>
            <path class="cls-1" d="M317.35,223.19c-8.97,26.02-17.23,50.44-26.15,74.62-.27.73-.93,1.32-1.8,1.82-4.44,2.56-10.39.28-11.77-4.65-.22-.79-.28-1.53-.07-2.19,8.11-25.31,16.73-50.47,25.85-75.44.99-2.71,4.93-6.11,9.19-5.3,6.57,1.24,5.54,8.86,4.75,11.14Z"/>
          </g>
        </g>
        <rect class="cls-1" x="179.03" y="400.01" width="236.78" height="17.06" rx="8.53" ry="8.53"/>
      </g>
    </g>
  </g>
</svg>