<?xml version="1.0" encoding="UTF-8"?>
<svg xmlns="http://www.w3.org/2000/svg" version="1.1" viewBox="0 0 594.84 595.28">
  <defs>
    <style>
      .cls-1 {
        fill: #eb2127;
      }
    </style>
  </defs>
  <!-- Generator: Adobe Illustrator 28.6.0, SVG Export Plug-In . SVG Version: 1.2.0 Build 709)  -->
  <g>
    <g id="Layer_1">
      <g>
        <g id="BiX05m">
          <path class="cls-1" d="M465.13,223.49c0,6.66,0,13.59.04,20.6.02,6.23-3.67,10.65-9.87,11.81-4.95.94-9.9,1.93-14.51,2.87l-2.11.42c-3.07.62-6.13,1.23-9.2,1.82-.43,1.54-.91,3.11-1.41,4.64-.14.43-.28.85-.43,1.28-.36,1.09-.75,2.18-1.15,3.27-1.38,3.72-2.97,7.43-4.72,11.07l-.37.76c-1.08,0-2.15,0-3.24,0h-8.32c-1.94,0-3.88,0-5.82,0l2.26-4.35c1.28-2.48,2.47-4.97,3.55-7.49.47-1.09.92-2.18,1.35-3.28.51-1.27.98-2.56,1.43-3.84.91-2.61,1.73-5.28,2.44-7.97,1.31-4.96,4.63-7.98,9.86-8.97,3.99-.77,7.98-1.57,11.96-2.37l.86-.17c3.91-.79,7.94-1.59,11.96-2.37-.06-13.79-.04-27.22-.01-38.93-3.98-.77-7.95-1.57-11.81-2.34-4.55-.91-9.01-1.8-13.47-2.67-4.79-.91-7.99-3.88-9.23-8.58-2.52-9.42-6.34-18.64-11.37-27.39-2.39-4.16-2.21-8.49.53-12.53,2.54-3.7,4.98-7.37,7.48-11.11,2.25-3.38,4.57-6.86,6.91-10.3-9.52-9.38-18.77-18.63-27.58-27.56-3.62,2.47-7.24,4.87-10.65,7.15-3.6,2.39-7.18,4.8-10.76,7.23-4,2.72-8.33,2.91-12.52.53-8.92-5.09-18.15-8.92-27.43-11.37-4.67-1.24-7.63-4.45-8.55-9.27-.76-4-1.55-7.99-2.36-11.97-.9-4.47-1.77-8.86-2.61-13.25-13.63.09-27.14.06-38.96,0-.76,3.92-1.54,7.84-2.31,11.64l-.13.66c-.88,4.36-1.75,8.73-2.6,13.09-.89,4.66-3.78,7.78-8.33,9.02-9.85,2.69-19.07,6.5-27.41,11.35-2.96,1.72-7.59,3.03-12.82-.53-3.62-2.46-7.27-4.89-10.91-7.32-3.33-2.22-6.83-4.57-10.38-6.96-9.72,9.83-18.78,18.89-27.57,27.57,2.4,3.55,4.82,7.19,7.18,10.71l.2.31c2.34,3.52,4.69,7.03,7.05,10.53,2.69,3.96,2.87,8.21.51,12.28-5.09,8.9-8.94,18.21-11.44,27.66-1.21,4.55-4.34,7.45-9.05,8.37-3.45.65-6.87,1.34-10.29,2.03l-2.11.42c-4.25.86-8.61,1.74-12.99,2.59.04,12.51.04,25.29,0,38.91,3.88.75,7.76,1.52,11.54,2.28l1.89.38c3.95.8,7.86,1.58,11.78,2.34,6.09,1.19,8.4,5.29,9.25,8.52.77,2.89,1.65,5.73,2.63,8.46.46,1.29.94,2.58,1.45,3.86.41,1.05.84,2.1,1.29,3.15h-16.65c-.4-1.07-.79-2.15-1.15-3.24-.14-.39-.27-.78-.4-1.17-.53-1.61-1.02-3.22-1.47-4.8-2.31-.45-4.67-.93-7.02-1.4l-4.5-.9c-4.8-.97-9.77-1.96-14.66-2.89-5.94-1.13-9.47-5.44-9.45-11.52.04-15.83.04-30.53,0-44.91-.02-6.18,3.57-10.55,9.62-11.68,4.7-.88,9.49-1.85,14.12-2.79l2.33-.47c2.92-.59,5.83-1.17,8.75-1.75v-.7h.97c2.61-8.97,6.28-17.78,10.95-26.26-1.59-2.35-3.17-4.72-4.75-7.08l-1.28-1.92c-2.87-4.32-5.68-8.55-8.59-12.82-3.67-5.34-3.13-11.01,1.47-15.55,9.97-9.82,20.21-20.06,31.31-31.31,4.49-4.53,10.31-5.08,15.57-1.47,4.16,2.84,8.38,5.65,12.47,8.38l1.78,1.19c2.52,1.68,5.03,3.36,7.54,5.05,8.25-4.6,17.28-8.35,26.84-11.13.73-3.76,1.47-7.45,2.17-10.91,1.12-5.59,2.05-10.26,2.98-15.1,1.13-6.01,5.48-9.61,11.63-9.61,13.29.06,28.88.11,44.36-.01,6.73-.08,11.12,3.62,12.35,10.34.86,4.68,1.82,9.48,2.76,14.12l.24,1.23c.62,3.09,1.32,6.51,1.98,9.95,9.1,2.61,18.11,6.34,26.85,11.13,3.05-2.06,6.09-4.09,9.05-6.06l1.28-.85c3.73-2.49,7.58-5.06,11.31-7.64,5.45-3.73,11.21-3.19,15.81,1.48,9.65,9.81,20.11,20.27,31.11,31.1,4.68,4.61,5.22,10.37,1.49,15.81-2.88,4.19-5.66,8.37-8.25,12.25-2.09,3.15-4.2,6.28-6.31,9.41,4.77,8.66,8.51,17.66,11.14,26.86,3.06.59,6.08,1.2,9.11,1.8l2.66.53c4.71.95,9.59,1.93,14.38,2.84,5.98,1.14,9.53,5.43,9.52,11.48-.02,7.44-.04,15.64-.04,24.3Z"/>
        </g>
        <g id="izV4kM.tif">
          <g>
            <path class="cls-1" d="M469.12,282.26c-4.83-7.29-10.96-13.26-20.03-14.46-6.39-.84-12.94-.74-19.42-.82-.73-.01-1.4-.02-2.03-.03-.17,0-.34-.01-.51-.01h-51.93c-7.15,0-14.02,2.74-19.21,7.64l-28.33,26.77h-62.32l-26.09-26.08c-5.24-5.24-12.36-8.19-19.77-8.19h-50.1c-.25.01-.52.01-.8,0-.87-.03-1.74-.06-2.61-.09-5.63-.14-11.26-.06-16.89.05-7.07.13-13.33,2.57-18.57,7.35-9.46,8.64-16.6,15.17-25.23,30.95-1.67,3.06-3.09,6.63-3.86,10.15-10.7,48.6-21.2,97.24-31.94,145.85-2.73,12.36-4.49,24.63-.45,36.98,8.12,24.86,25.14,39.95,51.08,43.06,24.44,2.93,44.14-6.77,57.7-27.34,8.52-12.91,15.72-26.68,23.76-39.91,8.34-13.74,20.51-22.23,36.53-24.31,7.23-.94,14.62-.53,21.94-.81,4.75-.17,7.87-3.03,8.04-7.19.18-4.25-3.13-7.57-8.03-7.76-4.16-.16-8.33-.07-12.5-.04-26.34.15-46.38,11.41-59.92,34.07-4.19,7-8.32,14.04-12.35,21.13-1.25,2.21-2.42,3.02-5.12,2.04-5.94-2.14-12.04-3.87-18.1-5.65-7.31-2.15-11.39-6.93-12.73-14.44-1.88-10.65-4.08-21.25-6.09-31.89-2.16-11.45-8.28-19.79-19.06-24.55-4.26-1.88-8.38-4.13-12.74-5.74-3.67-1.36-4.58-3.14-3.67-7.07,4.12-17.84,8.65-35.63,11.54-53.69,3.62-22.54,10.52-43.1,27.75-59.05.02-.01.03-.02.05-.05h.01s.05-.04.07-.06c4.7-3.64,8.35-7.11,13.93-7.08,8.1.05,16.18.07,24.29.07,2.78.01,5.55.02,8.33.01,9.95,0,19.91-.02,29.87-.09,5.56-.04,9.96,1.81,13.71,5.88,6.2,6.74,12.65,13.27,18.89,19.98,6.38,6.86,14.14,10.2,23.54,10.14,17.67-.11,35.32-.12,52.99.01,9.39.07,17.2-3.17,23.6-10.01,6.37-6.81,12.91-13.49,19.25-20.33,3.63-3.93,7.93-5.7,13.29-5.66,8.38.05,16.76.08,25.13.08,1.94,0,3.88,0,5.82,0h8.32c1.08,0,2.15,0,3.24,0,6.82-.01,13.67-.02,20.49-.05,5.41-.02,9.69,1.9,12.96,6.2.9,1.19,1.81,2.43,2.94,3.39,3.03,2.62,6.4,2.96,9.56.44,3.3-2.62,4.16-6.18,1.78-9.77ZM117.09,434.01c6.25,5.02,2.44,46.71,14.43,56.3,11.99,9.59,33.56,15.1,33.56,15.1,0,0-17.71,32.61-54.9,18.22-40.54-15.68-25.89-59.69-25.89-59.69l7.92-42.2s21.57,9.6,24.89,12.28Z"/>
            <path class="cls-1" d="M524.81,469.18c-11.05-50.72-22.08-101.43-33.2-152.13-.81-3.71-1.94-7.43-3.56-10.84-1.99-4.26-6.17-5.59-10.02-3.85-3.76,1.69-5.13,5.75-3.55,10.16.96,2.65,2,5.3,2.61,8.04,6,27.3,11.85,54.62,17.93,81.9.79,3.52-.14,5.14-3.36,6.37-4.19,1.6-8.17,3.73-12.3,5.49-11.34,4.85-17.85,13.39-20.01,25.49-1.89,10.64-4.08,21.23-6.08,31.87-1.32,7.03-5.25,11.66-12.19,13.74-6.05,1.81-12.15,3.53-18.06,5.74-3.11,1.16-4.39.19-5.84-2.4-4.42-7.83-8.9-15.62-13.7-23.22-11.13-17.66-27.05-29.09-47.85-30.58-22.04-1.57-44.25-.82-66.4-.82-4.71-.01-7.7,4.1-6.9,8.55.85,4.79,4.18,6.35,8.73,6.34,17.99-.05,35.98,0,53.96-.02,20.95-.02,36.76,8.92,47.35,27.06,7.3,12.51,14.25,25.24,22.13,37.38,13.54,20.82,33.24,30.78,57.86,27.94,26.13-3.03,43.25-18.24,51.37-43.32,1.16-3.61,1.75-7.42,2.61-11.12v-11c-.51-2.25-1.03-4.51-1.52-6.76ZM480.99,523.63c-37.2,14.39-54.9-18.22-54.9-18.22,0,0,21.58-5.51,33.57-15.1,11.99-9.59,8.18-51.28,14.42-56.3,3.33-2.68,24.89-12.28,24.89-12.28l7.92,42.2s14.66,44.01-25.89,59.69Z"/>
            <path class="cls-1" d="M177.1,308.3h-.14c-3.47-.03-6.83.52-9.99,1.55-12.9,4.22-22.45,16.49-22.5,30.72-.07,17.78,14.59,32.43,32.43,32.42,11.41,0,21.49-5.98,27.26-14.94,2.21-3.43,3.8-7.31,4.57-11.45.37-1.96.56-3.99.55-6.06-.08-17.6-14.5-32.04-32.18-32.24ZM199.02,348.4c-.84,2.5-2.1,4.79-3.7,6.82-4.29,5.48-10.95,9-18.45,9-12.93,0-23.41-10.47-23.41-23.41,0-7.67,3.69-14.47,9.38-18.74,2.19-1.64,4.68-2.92,7.37-3.71,2.11-.63,4.35-.96,6.66-.96,12.93,0,23.41,10.48,23.41,23.41,0,2.66-.44,5.21-1.26,7.59Z"/>
            <path class="cls-1" d="M342.37,366.22c-4.55,0-8.88.97-12.8,2.69-3.21,1.41-6.15,3.33-8.71,5.65-2.15,1.95-4.05,4.19-5.61,6.66-1.46,2.29-2.65,4.78-3.5,7.43-1.03,3.2-1.58,6.62-1.57,10.17.06,17.95,14.57,32.27,32.56,32.15,17.7-.13,31.93-14.5,31.96-32.27.03-17.93-14.49-32.52-32.33-32.48ZM342.44,422c-12.93,0-23.41-10.48-23.41-23.41,0-3.64.83-7.07,2.3-10.15,1.42-2.95,3.46-5.56,5.92-7.67,4.09-3.49,9.39-5.59,15.18-5.59,12.93,0,23.41,10.48,23.41,23.41s-10.48,23.41-23.41,23.41Z"/>
            <path class="cls-1" d="M238.89,391.06c0-4.56-.15-8.39.04-12.2.24-4.73,3.28-7.81,7.37-7.85,4.09-.04,7.15,3.04,7.53,7.72.16,1.99.07,4,.08,5.99,0,1.82,0,3.65,0,6.31,3.86,0,7.44-.06,11.02.01,5.65.12,9.18,3.21,9.03,7.79-.14,4.49-3.4,7.14-8.97,7.22-3.46.05-6.92,0-11.09,0,0,4.11.09,7.72-.02,11.32-.18,5.7-2.8,8.69-7.45,8.72-4.67.03-7.33-2.96-7.55-8.61-.13-3.32-.13-6.65-.23-9.98,0-.29-.28-.58-.73-1.47-3.48,0-7.27.09-11.05-.02-4.82-.14-7.87-2.89-8.07-7.08-.21-4.28,3.02-7.63,7.9-7.87,3.79-.19,7.6-.04,12.2-.04Z"/>
            <path class="cls-1" d="M409.19,361.43c0-7.67,2.29-11.25,7.28-11.36,5.17-.12,7.76,3.74,7.75,11.54,0,1.16.06,2.33-.03,3.48-.4,4.91-3.55,8.02-7.89,7.83-4.15-.18-6.87-3.23-7.09-8-.05-1.16,0-2.32-.01-3.48Z"/>
            <path class="cls-1" d="M407.23,340.78c-.05,4.09-3.21,7.05-7.82,7.32-1.32.07-2.66.01-3.98.01v-.04c-.18,0-.36,0-.54,0-1.14.01-2.3.08-3.44-.02-4.25-.38-6.75-2.84-7-6.99-.26-4.24,2.17-7.01,6.24-7.7,3.08-.5,6.3-.42,9.42-.15,2.66.23,4.8,1.63,6.02,3.6.72,1.17,1.11,2.54,1.09,3.97Z"/>
            <path class="cls-1" d="M437.18,347.98c-1.65,0-3.77.65-4.86-.13-2.32-1.68-5.01-3.78-5.89-6.29-1.2-3.43.81-6.95,4.48-7.63,4.12-.76,8.54-.77,12.7-.16,3.68.54,5.42,3.71,5.14,7.43-.29,3.95-2.58,6.37-6.6,6.81-1.63.18-3.3.03-4.96.03,0-.02,0-.04,0-.06Z"/>
            <path class="cls-1" d="M423.78,325.39c-.67,4.08-3.77,6.15-8.02,5.68-1.15-.13-2.15-.42-3-.88-2.09-1.11-3.27-3.17-3.51-6-.13-1.48-.02-2.98-.02-4.47h.02c0-1.48-.13-2.99.02-4.46.43-4.01,2.78-6.33,6.74-6.66.26-.02.51-.04.75-.04,3.61-.03,6.31,1.9,6.93,5.53.63,3.68.69,7.63.07,11.3Z"/>
            <path class="cls-1" d="M285.26,349.45c-.03,4.82-3.67,7.5-10.19,7.5-2.48,0-4.49-.35-6.04-1.05-2.48-1.11-3.79-3.12-3.95-6.02-.05-.8.01-1.55.16-2.25.72-3.47,3.77-5.58,8.42-5.7,7.67-.21,11.64,2.37,11.6,7.54Z"/>
            <path class="cls-1" d="M327.66,349.52c-.03,2.61-1.05,4.56-2.98,5.79-1.61,1.06-3.85,1.61-6.69,1.62-1.48,0-3.03.14-4.44-.2-3.82-.92-6.09-3.49-6.03-7.42.06-3.93,2.36-6.46,6.23-7.25,1.42-.29,2.96-.05,4.45-.05,5.61-.05,8.93,2.21,9.39,6.31.06.38.08.77.07,1.18Z"/>
          </g>
        </g>
        <path class="cls-1" d="M296.81,278.61c-35.76,0-64.85-29.09-64.85-64.85,0-15.03,5.26-29.68,14.81-41.26,2.22-2.69,6.2-3.07,8.88-.85,2.69,2.22,3.07,6.2.85,8.88-7.69,9.32-11.92,21.12-11.92,33.22,0,28.8,23.43,52.23,52.23,52.23s52.23-23.43,52.23-52.23-23.43-52.23-52.23-52.23c-7.37,0-14.49,1.5-21.16,4.46-3.18,1.41-6.91-.02-8.33-3.21-1.41-3.19.02-6.91,3.21-8.33,8.3-3.68,17.14-5.55,26.28-5.55,35.76,0,64.85,29.09,64.85,64.85s-29.09,64.85-64.85,64.85Z"/>
      </g>
    </g>
  </g>
</svg>