<?xml version="1.0" encoding="UTF-8"?>
<svg xmlns="http://www.w3.org/2000/svg" version="1.1" viewBox="0 0 594.84 595.28">
  <defs>
    <style>
      .cls-1 {
        fill: #eb2127;
      }
    </style>
  </defs>
  <!-- Generator: Adobe Illustrator 28.6.0, SVG Export Plug-In . SVG Version: 1.2.0 Build 709)  -->
  <g>
    <g id="Layer_1">
      <g>
        <g>
          <g id="BiX05m">
            <path class="cls-1" d="M288.35,509.01h0ZM479.8,359.92h0ZM350.46,359.89h0ZM350.17,359.88h0Z"/>
          </g>
          <g id="_x38_Gawki">
            <g>
              <g>
                <path class="cls-1" d="M414.92,564.31c-50.75.05-92.63-41.72-91.63-93.56.98-50.32,41.65-89.93,91.29-90.16,52.39-.25,93.23,42.33,92.44,93.3-.78,50.52-42.06,90.64-92.1,90.42ZM439.2,436.17c0-.23.02-.33,0-.43-1.18-5.49-2.24-11.01-3.57-16.46-1.72-7.04-4.17-13.83-7.59-20.24-1.95-3.65-4.21-7.09-7.4-9.79-2.09-1.77-4.43-2.99-7.28-2.94-3.16.06-5.6,1.6-7.8,3.67-3.28,3.07-5.55,6.86-7.51,10.83-3.39,6.87-5.78,14.1-7.47,21.56-.95,4.17-1.73,8.38-2.59,12.56-.11.56-.12.94.65,1,5.44.43,10.86,1.06,16.3,1.32,5.08.25,10.18.25,15.26.13,5.25-.13,10.49-.54,15.73-.85,1.09-.06,2.17-.24,3.26-.36ZM439.26,508.71c-17.23-1.72-34.29-1.72-51.57.45.94,4.45,1.76,8.71,2.75,12.94,1.98,8.49,4.67,16.74,8.87,24.43,1.97,3.6,4.26,6.97,7.53,9.55,4.41,3.48,9.26,3.41,13.56-.18,3.47-2.89,5.86-6.58,7.91-10.52,2.61-4.99,4.55-10.25,6.19-15.63,2.09-6.83,3.53-13.79,4.75-21.04ZM385.02,469.57h56.89c.03-9.34-.67-18.55-1.84-27.77-17.77,1.98-35.36,1.83-53.03-.37-1.31,9.34-1.82,18.68-2.01,28.14ZM441.9,475.39h-56.88c.18,9.46.71,18.81,1.98,28.14,17.75-2.24,35.34-2.33,53.06-.41,1.18-9.26,1.88-18.44,1.84-27.73ZM355.46,434.16c-.47,1.4-.94,2.75-1.39,4.11-3.24,9.82-4.86,19.93-5.27,30.24-.03.84.16,1.16,1.09,1.15,9.45-.04,18.9-.02,28.34-.02.35,0,.7-.04,1.23-.08,0-1.81-.05-3.51,0-5.21.26-7.63.76-15.24,1.83-22.8.11-.79-.13-1.05-.89-1.16-5.99-.9-11.89-2.25-17.71-3.94-2.37-.69-4.71-1.49-7.24-2.29ZM355.43,510.84c8.56-3.04,17.12-5.08,25.68-6.41-.7-9.77-1.39-19.39-2.08-29.08.01,0-.15-.04-.32-.04-9.69,0-19.37,0-29.06-.02-.78,0-.89.33-.84.97.29,3.64.43,7.29.87,10.91.67,5.48,1.78,10.89,3.36,16.19.73,2.46,1.56,4.89,2.39,7.47ZM471.95,435.13c-1.77.54-3.33,1.03-4.9,1.48-6.76,1.93-13.62,3.39-20.59,4.29-.67.09-.85.33-.74.96.17,1.02.3,2.05.42,3.07.95,7.85,1.35,15.73,1.47,23.63.01.92.28,1.09,1.14,1.09,4.92-.04,9.85-.01,14.77,0,4.56,0,9.11,0,13.67,0,.58,0,1.07.02,1-.82-.22-3-.29-6.02-.62-9.01-.64-5.86-1.73-11.64-3.35-17.32-.7-2.44-1.49-4.84-2.28-7.37ZM447.93,475.37c-.66,9.59-1.31,19.05-1.96,28.52,8.68,1.29,17.34,3.11,25.9,5.92,4.01-11.17,6.08-22.63,6.32-34.44h-30.26ZM469.85,515.19c-.39-.17-.59-.28-.8-.35-7.69-2.48-15.57-4.09-23.55-5.31-.66-.1-.69.25-.77.73-.42,2.44-.83,4.88-1.31,7.3-1.29,6.46-2.95,12.83-5.17,19.05-2.14,6-4.7,11.8-8.4,17.04-.64.9-1.31,1.79-1.96,2.68.08.07.16.14.24.21,20.52-7.04,32.95-22.26,41.72-41.35ZM469.97,429.79c-1.88-3.58-3.59-7.06-5.51-10.42-3.56-6.22-7.93-11.84-13.1-16.81-5.6-5.39-11.94-9.7-19.17-12.62-1.37-.55-2.78-1-4.39-1.57.19.39.23.52.31.61,3.8,4.63,6.44,9.92,8.66,15.43,3.26,8.09,5.44,16.5,7.06,25.06.37,1.96.72,3.92,1.09,5.98,8.48-1.1,16.71-2.93,25.06-5.66ZM398.99,556.56c.05-.08.1-.16.15-.24-.19-.26-.38-.5-.56-.77-1.54-2.34-3.23-4.6-4.58-7.05-3.73-6.77-6.31-14.02-8.16-21.5-1.35-5.47-2.34-11.04-3.51-16.56-.04-.2-.38-.5-.54-.47-1.77.28-3.56.53-5.3.95-4.45,1.06-8.89,2.17-13.32,3.34-1.83.48-3.6,1.17-5.48,1.79.15.38.24.66.37.92.81,1.65,1.6,3.31,2.45,4.94,3.23,6.24,7.19,11.98,11.93,17.17,5.99,6.55,12.91,11.84,21.09,15.37,1.79.77,3.64,1.41,5.47,2.11ZM357.58,428.83c8.09,2.95,16.27,4.8,24.56,6.15.66-3.38,1.26-6.64,1.94-9.87,1.53-7.25,3.55-14.35,6.36-21.21,1.62-3.96,3.46-7.84,5.9-11.39.9-1.3,1.81-2.59,2.72-3.88-.07-.07-.15-.13-.22-.2-20.09,6.87-32.45,21.67-41.27,40.4ZM488.79,517.23c2.53-3.91,4.53-8.1,6.28-12.41,3.72-9.17,5.69-18.73,6.25-28.59.04-.7-.16-.94-.88-.93-5.23.03-10.46.02-15.69,0-.62,0-.84.16-.9.84-.39,4.77-.71,9.55-1.31,14.29-.71,5.65-2.05,11.18-3.79,16.61-.5,1.55-.99,3.1-1.46,4.55,3.85,1.89,7.62,3.74,11.48,5.63ZM492.58,469.65s0-.01,0-.02c2.61,0,5.23,0,7.84,0,.6,0,.98-.08.88-.82-.53-4.28-.85-8.6-1.61-12.84-1.74-9.78-5.35-18.89-10.37-27.45-.45-.76-.73-.9-1.59-.45-3.2,1.67-6.45,3.24-9.72,4.76-.71.33-.72.57-.52,1.25,1.44,5.08,2.99,10.14,4.17,15.28,1.45,6.34,2,12.82,2.19,19.32.03.87.37.98,1.08.97,2.55-.03,5.09-.01,7.64-.01ZM341.49,427.67c-.21.35-.51.79-.76,1.25-.99,1.86-1.98,3.72-2.95,5.59-2.44,4.75-4.35,9.72-5.67,14.88-1.06,4.17-1.8,8.44-2.52,12.69-.38,2.24-.4,4.53-.58,6.8-.03.45.05.77.63.77,4.26-.01,8.51,0,12.77,0,.51,0,.67-.21.7-.72.17-2.94.25-5.89.62-8.81.54-4.27,1.06-8.58,2.04-12.76,1.16-4.97,2.81-9.82,4.22-14.73.07-.24-.09-.72-.29-.82-2.7-1.39-5.42-2.74-8.22-4.14ZM350.2,512.84c-4.51-12.05-6.74-24.55-7.13-37.45h-14.05c.54,15.12,4.74,29.05,12.49,41.91,2.93-1.5,5.77-2.96,8.68-4.46ZM485.71,423.01c-5.42-7.78-11.74-14.21-19.05-19.66-5.13-3.82-10.6-7.06-16.5-9.56.03.16.11.26.2.34,2.66,2.48,5.43,4.87,7.97,7.47,3.86,3.97,7.21,8.38,9.97,13.17,2.33,4.05,4.37,8.27,6.52,12.43.23.45.4.73.96.47,3.25-1.54,6.52-3.06,9.95-4.67ZM475.2,516.88c-5.82,13.48-13.81,25.05-25.04,34.27,14.4-6.46,26.25-16.02,35.53-29.15-3.56-1.74-6.97-3.4-10.49-5.11ZM372.16,397.84c-10.88,6.36-20.18,14.48-27.48,25.06,2.57,1.33,5.08,2.62,7.62,3.93,5.02-10.93,11.32-20.7,19.86-28.98ZM372.3,547.27c-.14-.34-.15-.41-.19-.45-4.2-3.97-7.9-8.36-11.11-13.16-2.91-4.35-5.55-8.84-7.77-13.58-.87-1.85-.88-1.89-2.7-1.02-1.95.93-3.85,1.96-5.85,2.99,7.37,10.48,16.51,18.74,27.63,25.22Z"/>
                <path class="cls-1" d="M415.34,566.03c-.17,0-.33,0-.5,0-25.18,0-48.8-9.94-66.53-28-17.73-18.06-27.23-41.97-26.74-67.31.99-51.27,41.85-91.61,93.01-91.85h.46c25.34,0,48.99,9.82,66.66,27.67,17.84,18.03,27.45,41.96,27.05,67.38-.79,50.88-42.65,92.11-93.41,92.12ZM414.92,562.58h0c.13,0,.28,0,.41,0,48.89,0,89.2-39.71,89.96-88.72.38-24.49-8.88-47.53-26.06-64.9-17.01-17.2-39.8-26.65-64.21-26.65-.15,0-.3,0-.44,0-49.27.23-88.62,39.09-89.58,88.47-.47,24.41,8.67,47.43,25.75,64.83,17.08,17.39,39.83,26.97,64.07,26.97.03,0,.06,0,.08,0ZM413.54,560.37c-2.64,0-5.28-.98-7.77-2.94-3.85-3.04-6.28-6.99-7.97-10.08-3.85-7.04-6.72-14.95-9.04-24.87-.68-2.91-1.29-5.85-1.9-8.84-.28-1.36-.56-2.74-.86-4.13l-.39-1.83,1.86-.23c16.83-2.11,33.82-2.26,51.95-.45l1.84.18-.31,1.82c-1.41,8.4-2.94,15.16-4.8,21.26-1.94,6.33-3.94,11.39-6.32,15.93-1.77,3.38-4.31,7.68-8.34,11.04-2.52,2.1-5.24,3.15-7.97,3.15ZM389.77,510.65c.16.77.32,1.54.48,2.3.61,2.97,1.21,5.87,1.88,8.75,2.24,9.61,5.01,17.23,8.71,24,2.28,4.17,4.46,6.95,7.08,9.02,3.76,2.98,7.7,2.92,11.38-.15,3.56-2.97,5.87-6.9,7.49-9.99,2.27-4.34,4.2-9.21,6.07-15.34,1.68-5.51,3.09-11.58,4.39-19-16.52-1.53-32.09-1.4-47.48.4ZM399.76,558.59l-1.39-.42c-.58-.22-1.16-.44-1.74-.65-1.27-.47-2.55-.94-3.8-1.48-8.05-3.48-15.14-8.65-21.68-15.79-4.76-5.2-8.86-11.1-12.19-17.54-.64-1.24-1.25-2.49-1.86-3.74l-.6-1.23c-.11-.23-.2-.46-.3-.74l-.78-2.01,1.72-.57c.58-.19,1.15-.39,1.72-.59,1.25-.44,2.54-.88,3.86-1.23,4.14-1.09,8.51-2.19,13.36-3.35,1.57-.38,3.17-.62,4.71-.86l.72-.11c1.18-.19,2.29.81,2.5,1.82.4,1.88.78,3.77,1.16,5.66.72,3.57,1.46,7.26,2.34,10.84,1.99,8.03,4.6,14.92,8,21.08.9,1.63,1.94,3.15,3.05,4.77.49.72.99,1.44,1.46,2.16.1.16.22.31.33.46l.86,1.16-1.45,2.37ZM360.02,517.07l.19.38c.6,1.23,1.2,2.45,1.83,3.67,3.19,6.17,7.12,11.82,11.67,16.8,6.2,6.78,12.91,11.67,20.5,14.96.22.1.44.19.65.28-.83-1.23-1.65-2.49-2.38-3.81-3.54-6.43-6.27-13.6-8.33-21.92-.9-3.65-1.65-7.38-2.38-10.99-.31-1.52-.61-3.05-.93-4.57-1.37.21-2.68.43-3.98.74-4.82,1.15-9.16,2.24-13.28,3.33-1.18.31-2.35.72-3.58,1.15ZM382.05,511.67h-.01.01ZM380.63,510.8h0s0,0,0,0ZM427.75,558.49l-1.95-1.69.7-1.5.59-.79c.46-.61.91-1.23,1.35-1.85,3.12-4.42,5.72-9.7,8.18-16.63,2.06-5.77,3.73-11.92,5.1-18.8.42-2.11.79-4.24,1.15-6.36l.15-.89c.39-2.32,2.18-2.22,2.73-2.14,9.24,1.41,16.81,3.12,23.82,5.37.19.06.38.14.63.26l1.94.85-.74,1.6c-10.26,22.35-23.84,35.78-42.73,42.27l-.94.32ZM446.28,511.4v.04c-.38,2.16-.75,4.32-1.18,6.46-1.41,7.05-3.12,13.36-5.23,19.29-2.29,6.43-4.71,11.53-7.54,15.88,15.04-6.52,26.33-18.39,35.16-36.91-6.28-1.95-13.07-3.48-21.21-4.76ZM439.09,558.01l9.99-8.2c10.45-8.58,18.48-19.57,24.55-33.61l.72-1.66,13.94,6.79-1.17,1.66c-9.38,13.28-21.23,23-36.23,29.73l-11.79,5.29ZM476.06,519.22c-4.27,9.49-9.45,17.61-15.69,24.55,8.86-5.55,16.36-12.53,22.72-21.12l-7.03-3.43ZM375.89,551.36l-4.46-2.59c-11.5-6.69-20.71-15.1-28.18-25.71l-1.14-1.62,3.58-1.85c1.37-.72,2.71-1.42,4.07-2.07,1.06-.51,1.97-.95,3.02-.59,1.02.36,1.43,1.22,1.98,2.41,2.06,4.38,4.56,8.75,7.65,13.37,3.13,4.68,6.79,9.01,10.86,12.87l.29.27,2.3,5.51ZM347.23,522.67c4.33,5.88,9.26,11.03,14.89,15.55-.89-1.18-1.74-2.38-2.56-3.6-3.19-4.77-5.78-9.28-7.9-13.8-.05-.1-.1-.21-.15-.32-.09.04-.18.08-.25.12-1.33.64-2.64,1.32-3.97,2.02l-.06.03ZM340.87,519.57l-.83-1.38c-7.91-13.12-12.2-27.5-12.74-42.74l-.06-1.79h17.51l.05,1.67c.39,13.09,2.75,25.51,7.02,36.9l.54,1.44-11.48,5.89ZM330.83,477.11c.75,13.45,4.56,26.19,11.35,37.9l5.88-3.02c-3.89-10.86-6.12-22.58-6.65-34.89h-10.58ZM489.41,519.45l-14.19-6.96,1.91-5.97c1.84-5.75,3.06-11.08,3.72-16.3.47-3.73.77-7.57,1.07-11.29l.23-2.93c.13-1.54,1.08-2.43,2.61-2.43h.01c5.22.02,10.45.02,15.67,0,.33-.02,1.28,0,1.98.74.7.74.65,1.7.63,2.02-.59,10.37-2.74,20.18-6.38,29.14-2.01,4.95-4.11,9.1-6.43,12.69l-.83,1.29ZM479.41,510.7l8.74,4.29c1.89-3.11,3.64-6.66,5.32-10.82,3.39-8.36,5.43-17.48,6.07-27.14-4.71.02-9.36.02-14.02,0l-.17,2.17c-.29,3.75-.6,7.63-1.08,11.45-.68,5.42-1.94,10.96-3.85,16.92l-1,3.13ZM354.34,513.07l-1.33-4.1c-.56-1.72-1.11-3.41-1.62-5.1-1.58-5.3-2.72-10.84-3.42-16.47-.31-2.48-.47-4.99-.63-7.42-.08-1.19-.15-2.37-.25-3.56-.03-.36-.1-1.32.6-2.08.47-.5,1.12-.76,1.96-.76h0c6.97.02,13.95.02,20.92.02h8.14c.9,0,1.53.33,1.86.98l.16.31,2.22,31-1.57.24c-9.03,1.41-17.33,3.48-25.37,6.33l-1.68.6ZM350.6,477.03c.07.93.13,1.82.18,2.71.16,2.38.32,4.85.61,7.23.67,5.44,1.78,10.79,3.3,15.91.49,1.66,1.04,3.32,1.59,5.01l.24.74c7.25-2.47,14.72-4.33,22.75-5.66l-1.86-25.93h-6.84c-6.66,0-13.32,0-19.97-.01ZM472.93,511.97l-1.59-.53c-7.66-2.52-16.03-4.43-25.61-5.85l-1.58-.23,2.18-31.72h33.63l-.04,1.76c-.25,12.05-2.41,23.83-6.42,34.99l-.57,1.58ZM447.8,502.42c8.47,1.32,16.02,3.04,23,5.23,3.34-9.8,5.23-20.06,5.62-30.56h-26.87l-1.75,25.33ZM385.52,505.45l-.23-1.69c-1.16-8.49-1.79-17.49-1.99-28.34l-.03-1.76h60.35v1.72c.05,8.68-.56,17.82-1.84,27.95l-.21,1.68-1.68-.18c-17.9-1.95-35.12-1.82-52.66.4l-1.7.21ZM386.79,477.12c.22,9.22.77,17.09,1.7,24.49,16.67-1.98,33.08-2.11,50.07-.38,1.04-8.66,1.58-16.58,1.61-24.11h-53.39ZM349.85,471.4c-.39,0-1.38-.03-2.09-.77-.74-.77-.7-1.79-.68-2.18.45-11.09,2.2-21.14,5.36-30.71.3-.92.61-1.84.93-2.77l1.01-2.96,4.03,1.29c1.63.53,3.19,1.04,4.78,1.5,6.08,1.76,11.81,3.04,17.49,3.89,1.73.26,2.59,1.4,2.34,3.11-.93,6.59-1.51,13.78-1.82,22.62-.04,1.13-.03,2.27-.02,3.44v3.33s-2.07.14-2.07.14c-.33.03-.6.05-.87.05h-7.6c-6.92,0-13.82,0-20.73.03h-.05ZM356.55,436.33c-.28.84-.56,1.66-.84,2.49-3,9.08-4.68,18.61-5.16,29.12,6.77-.02,13.43-.02,20.08-.02l7.09-.04c-.01-1.22-.02-2.4.02-3.59.3-8.66.86-15.76,1.75-22.29-5.69-.9-11.32-2.16-17.28-3.89-1.62-.47-3.23-.99-4.89-1.53l-.78-.25ZM484.9,471.39c-2.42,0-2.74-1.85-2.76-2.65-.22-7.49-.9-13.52-2.15-18.99-.9-3.94-2.05-7.91-3.16-11.76l-.99-3.43c-.16-.57-.65-2.3,1.46-3.29,3.72-1.73,6.78-3.23,9.65-4.73,1.64-.85,2.94-.48,3.87,1.11,5.34,9.1,8.89,18.53,10.58,28.02.52,2.91.83,5.86,1.14,8.73.15,1.4.3,2.8.47,4.2.12,1-.22,1.63-.54,1.98-.69.78-1.7.81-2.07.77-1.9-.01-3.8-.01-5.69,0l-4.29.02c-1.83,0-3.65,0-5.47.01-.02,0-.04,0-.06,0ZM479.31,434.14l.83,2.89c1.12,3.89,2.29,7.91,3.21,11.95,1.26,5.51,1.97,11.55,2.21,18.95,1.7-.01,3.28,0,4.87,0l4.28-.02c1.58,0,3.16,0,4.74,0-.12-1.05-.24-2.09-.35-3.14-.3-2.8-.61-5.7-1.11-8.49-1.59-8.93-4.92-17.83-9.9-26.44-2.64,1.37-5.46,2.75-8.79,4.3ZM448.73,471.38c-2.3,0-2.81-1.51-2.83-2.79-.14-8.8-.61-16.47-1.46-23.45-.12-1-.24-2-.41-2.99-.05-.3-.2-1.2.39-1.99.6-.81,1.53-.93,1.83-.97,6.64-.86,13.49-2.28,20.34-4.24,1.06-.3,2.12-.63,3.24-.97l3.27-.99,1.25,4.01c.54,1.7,1.06,3.36,1.54,5.04,1.59,5.56,2.74,11.49,3.41,17.6.21,1.92.32,3.87.42,5.74.06,1.11.12,2.22.2,3.33.06.79-.14,1.44-.6,1.94-.69.74-1.57.75-2.09.73h-17.48c-3.66-.02-7.32-.02-10.99,0-.01,0-.03,0-.04,0ZM447.57,442.49c.11.75.2,1.49.29,2.23.84,6.94,1.32,14.54,1.47,23.2,3.48-.03,6.95-.02,10.43-.01h16.65c-.05-.78-.09-1.56-.14-2.35-.1-1.83-.2-3.73-.41-5.56-.65-5.92-1.76-11.65-3.3-17.03-.47-1.65-.99-3.28-1.52-4.95l-.23-.75c-1.14.35-2.21.68-3.29.99-6.72,1.91-13.43,3.34-19.96,4.22ZM342.42,471.38c-4.26-.01-8.51-.01-12.76,0h0c-.91,0-1.46-.39-1.77-.72-.45-.49-.65-1.13-.58-1.92.05-.67.09-1.35.13-2.03.09-1.61.19-3.27.47-4.92.74-4.38,1.49-8.65,2.55-12.82,1.31-5.16,3.27-10.29,5.8-15.24.95-1.84,1.92-3.67,2.89-5.49.26-.49.48-.84.68-1.15l1.02-1.65,3.2,1.6c2.19,1.09,4.33,2.16,6.46,3.26,1.01.52,1.42,1.91,1.16,2.82-.47,1.65-.97,3.28-1.47,4.92-.97,3.18-1.97,6.48-2.73,9.74-.91,3.87-1.42,7.95-1.92,11.9l-.09.69c-.27,2.12-.38,4.32-.49,6.46-.04.75-.08,1.49-.12,2.23-.1,1.73-1.32,2.35-2.43,2.35ZM335.19,467.92c2.09,0,4.17,0,6.26,0,.02-.44.04-.87.07-1.3.11-2.2.22-4.47.51-6.72l.09-.69c.51-4.03,1.04-8.2,1.99-12.25.79-3.37,1.81-6.72,2.79-9.95.41-1.36.83-2.72,1.23-4.08-1.85-.95-3.72-1.88-5.62-2.82l-.36-.18c-.99,1.86-1.92,3.61-2.83,5.37-2.42,4.72-4.28,9.6-5.53,14.51-1.03,4.05-1.77,8.25-2.49,12.55-.25,1.46-.33,2.96-.42,4.54-.02.34-.04.68-.06,1.01,1.46,0,2.92,0,4.38,0ZM443.63,471.3h-60.37l.04-1.76c.22-11.05.86-20.06,2.03-28.35l.24-1.68,1.69.21c17.78,2.21,34.99,2.33,52.63.37l1.69-.19.22,1.68c1.27,9.98,1.88,19.14,1.86,28v1.72ZM386.78,467.85h53.4c-.05-7.67-.58-15.61-1.62-24.15-16.76,1.74-33.17,1.63-50.05-.35-.94,7.25-1.5,15.12-1.73,24.5ZM413.96,439.19c-3.21,0-6.22-.07-9.1-.21-3.59-.17-7.21-.51-10.72-.83-1.88-.17-3.76-.35-5.64-.5-.82-.06-1.44-.37-1.86-.92-.62-.82-.43-1.75-.35-2.14.27-1.33.54-2.66.81-4,.57-2.87,1.15-5.75,1.8-8.61,1.85-8.12,4.34-15.3,7.61-21.94,1.68-3.42,4.1-7.79,7.88-11.33,1.86-1.74,4.8-4.05,8.94-4.13,3.03-.09,5.7,1.04,8.43,3.34,3.75,3.18,6.14,7.17,7.8,10.3,3.3,6.18,5.9,13.13,7.74,20.64.94,3.84,1.75,7.75,2.54,11.54.34,1.66.69,3.31,1.04,4.96.06.27.05.49.04.64v1.54l-2.53.45c-.79.1-1.57.2-2.36.25-1.34.08-2.68.17-4.01.25-3.85.25-7.84.5-11.78.6-2.18.06-4.27.08-6.29.08ZM389.87,434.31c1.54.13,3.06.27,4.59.41,3.47.32,7.05.65,10.57.82,4.61.22,9.56.26,15.13.12,3.87-.1,7.82-.35,11.64-.6,1.34-.09,2.69-.17,4.03-.25.46-.03.92-.08,1.37-.13-.25-1.18-.5-2.37-.74-3.56-.78-3.76-1.59-7.65-2.51-11.43-1.8-7.33-4.23-13.82-7.44-19.84-2.26-4.24-4.42-7.11-6.99-9.29-2.08-1.76-4.02-2.54-6.13-2.52-2.28.04-4.33,1.03-6.65,3.2-3.37,3.16-5.59,7.18-7.14,10.34-3.15,6.39-5.55,13.32-7.34,21.18-.65,2.83-1.21,5.67-1.78,8.52-.2,1.01-.4,2.02-.61,3.04ZM443.5,437.37l-.67-3.7c-.24-1.31-.47-2.59-.71-3.88-1.79-9.46-4.07-17.55-6.96-24.73-2.6-6.46-5.19-11.08-8.39-14.99-.19-.23-.29-.44-.38-.63l-2.06-4.12,5.53,1.95c1.04.36,2.01.69,2.96,1.08,7.13,2.88,13.76,7.24,19.73,12.98,5.24,5.04,9.75,10.83,13.4,17.2,1.33,2.33,2.53,4.66,3.8,7.12.57,1.11,1.14,2.22,1.74,3.35l.95,1.81-1.94.63c-8.35,2.72-16.65,4.6-25.38,5.73l-1.63.21ZM432.36,391.87c2.16,3.31,4.08,7.14,6,11.9,2.98,7.4,5.32,15.7,7.15,25.38.24,1.29.48,2.59.71,3.91l.08.46c7.25-1.02,14.21-2.58,21.18-4.75-.27-.52-.54-1.04-.8-1.55-1.25-2.43-2.43-4.73-3.73-6.99-3.49-6.09-7.8-11.62-12.8-16.43-5.42-5.21-11.4-9.22-17.81-11.93ZM383.51,436.95l-1.65-.27c-9.6-1.57-17.51-3.55-24.87-6.23l-1.78-.65.81-1.71c10.28-21.83,23.71-34.95,42.27-41.3l.99-.34,2.06,1.93-1.77,2.53c-.6.85-1.21,1.71-1.8,2.57-2.05,2.98-3.82,6.39-5.73,11.06-2.58,6.31-4.63,13.15-6.27,20.91-.47,2.21-.89,4.42-1.33,6.69l-.93,4.8ZM359.97,427.85c6.22,2.14,12.92,3.8,20.8,5.15l.29-1.5c.44-2.28.87-4.52,1.34-6.75,1.68-7.97,3.79-15,6.45-21.51,1.94-4.74,3.75-8.26,5.84-11.37-14.76,6.37-25.9,17.94-34.72,35.97ZM475.37,429.51c-.68,0-1.49-.32-2.1-1.51-.57-1.11-1.13-2.22-1.7-3.33-1.52-3-3.09-6.09-4.78-9.03-2.67-4.64-5.94-8.96-9.71-12.83-1.71-1.76-3.58-3.46-5.38-5.1-.85-.77-1.69-1.54-2.52-2.32-.37-.35-.61-.77-.71-1.26l-.65-3.2,3.01,1.27c5.78,2.45,11.45,5.73,16.86,9.76,7.66,5.7,14.02,12.27,19.44,20.06l1.17,1.68-4.67,2.19c-2.42,1.13-4.77,2.23-7.13,3.35-.26.12-.67.27-1.14.27ZM460.04,400.9c3.77,3.95,7.05,8.33,9.75,13.02,1.74,3.02,3.33,6.15,4.87,9.19.44.86.87,1.71,1.31,2.57,2.05-.97,4.1-1.93,6.21-2.91l.94-.44c-4.94-6.75-10.68-12.52-17.48-17.59-1.84-1.37-3.7-2.64-5.59-3.83ZM353.12,429.19l-10.97-5.65,1.11-1.61c7.14-10.35,16.31-18.72,28.03-25.57l12.29-7.18-10.22,9.91c-7.79,7.55-14.16,16.86-19.49,28.46l-.75,1.64ZM347.24,422.28l4.26,2.2c3.11-6.54,6.57-12.36,10.44-17.56-5.66,4.53-10.53,9.62-14.7,15.37Z"/>
              </g>
              <g>
                <path class="cls-1" d="M415.34,564.96c-.16,0-.34,0-.5,0-24.89,0-48.24-9.83-65.76-27.68-17.53-17.86-26.92-41.49-26.43-66.54.98-50.68,41.37-90.56,91.94-90.8.15,0,.3,0,.46,0,25.05,0,48.43,9.7,65.89,27.36,17.63,17.82,27.13,41.48,26.74,66.61-.78,50.3-42.16,91.06-92.34,91.06ZM414.92,563.66h0c.14,0,.28,0,.41,0,49.47,0,90.27-40.19,91.03-89.78.38-24.78-8.98-48.1-26.37-65.67-17.21-17.4-40.27-26.97-64.97-26.97-.15,0-.3,0-.45,0-49.86.23-89.68,39.56-90.65,89.52-.48,24.7,8.78,48,26.06,65.6,17.28,17.6,40.3,27.29,64.83,27.29h.09ZM413.54,559.28c-2.41,0-4.83-.89-7.1-2.69-3.7-2.92-6.05-6.75-7.7-9.75-3.8-6.95-6.64-14.77-8.93-24.6-.68-2.91-1.27-5.78-1.89-8.81-.28-1.36-.56-2.74-.86-4.14l-.15-.69.7-.09c16.75-2.1,33.67-2.25,51.71-.45l.69.07-.12.69c-1.41,8.37-2.92,15.08-4.77,21.13-1.91,6.26-3.9,11.26-6.24,15.74-1.72,3.29-4.19,7.48-8.07,10.72-2.3,1.92-4.79,2.88-7.28,2.88ZM388.48,509.72c.24,1.16.48,2.31.71,3.45.62,3.03,1.21,5.89,1.89,8.78,2.27,9.71,5.07,17.42,8.81,24.27,2.35,4.3,4.62,7.19,7.36,9.35,4.15,3.28,8.67,3.22,12.74-.17,3.7-3.09,6.09-7.14,7.75-10.32,2.31-4.41,4.26-9.34,6.15-15.52,1.78-5.82,3.25-12.28,4.62-20.27-17.44-1.69-33.81-1.55-50.02.43ZM427.98,557.28l-.98-.85.96-1.3c.46-.61.91-1.23,1.35-1.85,3.18-4.51,5.82-9.87,8.32-16.89,2.07-5.81,3.75-12.01,5.14-18.95.43-2.14.79-4.28,1.16-6.43l.15-.85c.07-.44.25-1.45,1.51-1.26,9.19,1.4,16.7,3.09,23.65,5.33.16.05.31.12.52.21l.96.42-.28.61c-10.14,22.07-23.51,35.32-42.1,41.7l-.36.12ZM445.4,510.18s-.02.09-.02.13l-.16.91c-.37,2.16-.74,4.32-1.17,6.47-1.4,7.01-3.1,13.26-5.19,19.14-2.54,7.13-5.23,12.59-8.48,17.2-.33.46-.66.92-1,1.38,17.3-6.39,29.93-19.11,39.6-39.89-.05-.02-.09-.04-.13-.05-6.88-2.22-14.33-3.9-23.45-5.28ZM398.76,557.17c-.57-.22-1.14-.43-1.72-.64-1.27-.47-2.54-.94-3.78-1.47-7.91-3.42-14.88-8.5-21.31-15.53-4.69-5.13-8.74-10.96-12.03-17.31-.64-1.24-1.26-2.5-1.87-3.75l-.59-1.2c-.09-.19-.17-.39-.26-.63l-.38-.98.65-.22c.59-.19,1.16-.4,1.74-.59,1.29-.45,2.5-.87,3.78-1.21,4.12-1.09,8.49-2.18,13.33-3.34,1.52-.36,3.09-.61,4.6-.84l.75-.12c.57-.09,1.19.53,1.28.98.4,1.87.77,3.75,1.15,5.63.72,3.59,1.47,7.31,2.36,10.91,2.01,8.13,4.66,15.11,8.1,21.34.92,1.67,2.03,3.28,3.1,4.85.49.72.98,1.44,1.46,2.16.11.17.23.33.35.49l.44.6-.51.83-.65.04ZM398.89,556.5l.1.06-.1-.06ZM358.53,516.45c.03.08.06.16.1.23l.59,1.2c.61,1.25,1.22,2.49,1.86,3.73,3.24,6.25,7.22,11.98,11.84,17.03,6.31,6.9,13.13,11.87,20.87,15.21,1.22.53,2.47.99,3.71,1.45l.18.07c-.36-.53-.72-1.07-1.09-1.6-1.09-1.59-2.21-3.23-3.16-4.95-3.5-6.34-6.19-13.42-8.22-21.66-.9-3.63-1.65-7.36-2.37-10.97-.37-1.85-.74-3.7-1.13-5.55l-.57.09c-1.49.23-3.03.47-4.5.82-4.84,1.16-9.19,2.25-13.3,3.34-1.23.32-2.42.74-3.68,1.18-.37.13-.74.26-1.11.38ZM381.88,510.61h0,0ZM381.68,510.57s0,.01,0,.02c0,0,0-.01,0-.02ZM445.97,553.75l3.78-3.1c10.59-8.69,18.72-19.82,24.85-34.02l.27-.63,11.79,5.75-.44.63c-9.27,13.12-20.97,22.72-35.79,29.37l-4.46,2ZM475.53,517.77c-5.46,12.44-12.46,22.54-21.31,30.72,12.35-6.31,22.36-14.93,30.49-26.24l-9.18-4.48ZM373.65,548.81l-1.68-.98c-11.36-6.61-20.47-14.92-27.84-25.4l-.43-.61,2.48-1.28c1.36-.71,2.7-1.41,4.06-2.06.95-.46,1.58-.76,2.19-.54.6.21.88.8,1.37,1.85,2.08,4.42,4.6,8.83,7.73,13.51,3.18,4.75,6.88,9.14,11.02,13.05.13.13.18.26.23.39l.86,2.07ZM345.63,522.29c6.28,8.78,13.82,15.99,22.96,21.93-2.99-3.16-5.72-6.58-8.14-10.2-3.16-4.73-5.72-9.2-7.82-13.66-.26-.56-.53-1.12-.66-1.21h0c-.14,0-.74.29-1.17.5-1.34.65-2.67,1.34-4.02,2.04l-1.15.6ZM341.27,518.15l-.31-.52c-7.82-12.96-12.05-27.17-12.58-42.22l-.02-.68h15.36l.02.63c.4,13.21,2.78,25.74,7.09,37.24l.2.54-9.74,5ZM329.7,476.04c.62,14.38,4.67,27.96,12.06,40.4l7.63-3.91c-4.16-11.3-6.5-23.57-6.95-36.48h-12.74ZM489.02,518.07l-12.5-6.13,1.63-5.09c1.86-5.81,3.09-11.21,3.76-16.49.48-3.77.78-7.63,1.07-11.37l.23-2.89c.08-.99.56-1.44,1.54-1.44h0c5.23.01,10.45.02,15.68-.01.33-.04.85.04,1.2.4.34.36.36.84.34,1.22-.59,10.25-2.71,19.94-6.3,28.8-1.98,4.89-4.06,8.98-6.34,12.51l-.32.49ZM478.11,511.26l10.45,5.12c2.12-3.35,4.05-7.22,5.91-11.81,3.54-8.72,5.63-18.27,6.2-28.38,0-.12,0-.2,0-.24-.03,0-.1,0-.21,0h-.01c-5.23.03-10.46.02-15.69.01-.11.02-.18,0-.22.01,0,.03-.01.1-.02.23l-.23,2.89c-.29,3.75-.6,7.63-1.08,11.43-.68,5.36-1.92,10.84-3.81,16.73l-1.28,4.01ZM355.02,511.68l-.98-3.02c-.57-1.73-1.12-3.41-1.62-5.11-1.56-5.25-2.7-10.73-3.38-16.3-.3-2.45-.46-4.94-.62-7.36-.08-1.19-.16-2.39-.25-3.58-.03-.42-.02-.9.32-1.26.38-.41.98-.42,1.18-.41,7.22.02,14.43.01,21.65.02h7.41c.61,0,.79.19.9.39l.07.25,2.13,29.67-.59.09c-9.11,1.42-17.47,3.5-25.56,6.38l-.63.22ZM349.45,475.97s0,.11.02.25c.1,1.2.17,2.4.25,3.59.16,2.4.32,4.87.62,7.28.67,5.49,1.8,10.9,3.34,16.08.5,1.69,1.05,3.36,1.61,5.08l.57,1.75c7.8-2.73,15.85-4.73,24.57-6.12l-2-27.91h-7.11c-7.22,0-14.44,0-21.65-.02-.11-.03-.17,0-.21.01ZM472.27,510.63l-.6-.2c-7.71-2.54-16.15-4.46-25.79-5.9l-.6-.09,2.05-29.73h31.53v.67c-.26,11.94-2.4,23.6-6.37,34.65l-.21.6ZM446.66,503.33c9.22,1.39,17.35,3.25,24.81,5.66,3.72-10.54,5.75-21.62,6.06-32.97h-28.98l-1.88,27.31ZM386.44,504.26l-.09-.64c-1.15-8.46-1.78-17.42-1.98-28.21v-.67s58.18,0,58.18,0v.65c.05,8.63-.56,17.72-1.84,27.81l-.08.64-.64-.07c-17.98-1.96-35.28-1.82-52.91.41l-.64.08ZM385.69,476.05c.21,10.17.81,18.71,1.87,26.75,17.3-2.14,34.3-2.27,51.93-.4,1.19-9.53,1.76-18.16,1.75-26.36h-55.56ZM349.87,470.32c-.43,0-.97-.05-1.34-.44s-.4-.92-.38-1.39c.44-10.99,2.18-20.94,5.3-30.42.31-.94.63-1.87.95-2.82l.65-1.91,2.97.96c1.65.54,3.25,1.05,4.86,1.52,6.13,1.78,11.9,3.06,17.63,3.92,1.14.17,1.6.78,1.44,1.9-.94,6.63-1.52,13.85-1.83,22.73-.04,1.15-.03,2.29-.02,3.48v2.32s-1.08.08-1.08.08c-.3.02-.55.04-.79.04h-7.51c-6.94,0-13.89,0-20.83.02h-.02ZM349.48,468.99s.09.04.41.03c6.94-.03,13.88-.03,20.83-.02h7.51c.18,0,.36-.01.57-.03v-1.1c-.02-1.2-.03-2.37.01-3.53.31-8.93.89-16.19,1.84-22.87.03-.24.01-.33,0-.35,0,0-.09-.04-.35-.08-5.79-.87-11.61-2.17-17.8-3.96-1.62-.47-3.23-.99-4.9-1.53l-1.75-.56-.24.7c-.32.94-.64,1.87-.95,2.8-3.09,9.36-4.8,19.2-5.24,30.06-.01.31.02.42.03.44,0,0,0,0,0,0ZM484.9,470.31c-.78,0-1.65-.2-1.69-1.61-.22-7.57-.91-13.67-2.18-19.2-.91-3.96-2.06-7.94-3.17-11.79-.33-1.15-.66-2.3-.99-3.45-.26-.9-.19-1.52.88-2.02,3.74-1.74,6.82-3.25,9.69-4.75,1.12-.59,1.81-.39,2.45.7,5.27,8.99,8.79,18.3,10.45,27.67.51,2.86.82,5.8,1.13,8.64.15,1.41.3,2.82.48,4.23.06.49-.03.86-.27,1.14-.37.42-.95.41-1.26.42-1.92-.01-3.83-.01-5.75,0l-2.09.02h-2.11c-1.84,0-3.69,0-5.53.01h-.05ZM484.58,469s.14.02.36,0c1.85-.02,3.69-.02,5.54-.01h1.45s0-.02,0-.02h2.74c1.92,0,3.84,0,5.75,0,.12.02.19,0,.24,0,0-.02,0-.05,0-.08-.18-1.42-.33-2.83-.48-4.25-.3-2.82-.62-5.73-1.12-8.55-1.64-9.21-5.1-18.38-10.29-27.23-.19-.32-.27-.38-.28-.39,0,0-.1.01-.44.19-2.89,1.51-5.99,3.02-9.74,4.77-.19.09-.26.14-.28.16.02-.02.04.09.11.32.33,1.15.66,2.3.99,3.45,1.12,3.87,2.27,7.87,3.19,11.86,1.28,5.61,1.98,11.79,2.21,19.45,0,.23.04.32.05.34,0,0,0,0,.02,0ZM448.73,470.31c-1.23,0-1.74-.5-1.76-1.73-.14-8.83-.62-16.54-1.47-23.57-.12-1.02-.25-2.03-.42-3.04-.05-.32-.09-.79.19-1.18.29-.39.77-.5,1.11-.54,6.7-.87,13.59-2.3,20.5-4.27,1.05-.3,2.09-.62,3.2-.96l2.31-.7.93,2.96c.54,1.7,1.06,3.37,1.54,5.04,1.57,5.5,2.71,11.36,3.37,17.42.21,1.9.32,3.84.42,5.71.06,1.11.12,2.22.2,3.33.04.49-.07.86-.32,1.13-.37.4-.89.39-1.3.39h-17.82c-3.55-.02-7.11-.02-10.66,0h-.04ZM448.33,468.99s.14.03.42.02c3.56-.03,7.12-.02,10.68-.02h17.77c.13,0,.27.01.36,0,0-.03,0-.06,0-.11-.08-1.12-.14-2.23-.21-3.35-.1-1.85-.21-3.77-.41-5.64-.66-5.99-1.78-11.78-3.33-17.21-.48-1.67-1-3.32-1.53-5.01l-.54-1.73-1.07.33c-1.11.34-2.16.66-3.22.97-6.96,1.98-13.92,3.43-20.69,4.31-.1.01-.17.03-.21.04,0,.03.01.08.03.17.17,1.03.3,2.07.43,3.1.86,7.07,1.34,14.83,1.48,23.7,0,.31.04.41.05.43,0,0,0,0,.01,0ZM342.42,470.3h0c-4.25,0-8.51-.01-12.76,0h0c-.42,0-.75-.13-.98-.37-.32-.35-.33-.79-.3-1.1.05-.68.09-1.37.13-2.05.09-1.58.18-3.21.45-4.8.74-4.36,1.48-8.62,2.53-12.74,1.3-5.09,3.22-10.14,5.72-15.02.93-1.82,1.9-3.63,2.86-5.43l.09-.17c.18-.34.39-.67.58-.96l.51-.83,2.15,1.07c2.24,1.12,4.44,2.21,6.62,3.34.5.26.76,1.08.62,1.58-.47,1.64-.97,3.28-1.47,4.92-.97,3.19-1.98,6.5-2.75,9.79-.92,3.93-1.44,8.03-1.94,12l-.09.69c-.27,2.16-.39,4.38-.49,6.53-.04.74-.07,1.49-.12,2.23-.06,1.11-.77,1.34-1.35,1.34ZM332.49,468.99c3.34,0,6.63,0,9.93.01.02.08.04.04.05-.11.04-.74.08-1.48.12-2.21.11-2.18.22-4.43.5-6.63l.09-.69c.51-4,1.03-8.14,1.97-12.14.78-3.33,1.79-6.65,2.77-9.87.5-1.63.99-3.26,1.46-4.9h0s-.04-.11-.07-.14c-2.06-1.04-4.25-2.13-6.49-3.24l-1.08-.54c-.14.22-.29.46-.42.71l-.09.17c-.96,1.8-1.92,3.6-2.85,5.41-2.45,4.79-4.34,9.75-5.61,14.74-1.04,4.07-1.78,8.3-2.51,12.63-.26,1.52-.35,3.12-.44,4.66-.04.69-.08,1.39-.13,2.08,0,.02,0,.04,0,.06.95,0,1.89,0,2.83,0ZM442.56,470.23h-58.21v-.67c.23-10.99.87-19.96,2.03-28.22l.09-.64.64.08c17.86,2.22,35.16,2.34,52.88.37l.64-.07.08.64c1.27,9.93,1.87,19.04,1.85,27.86v.65ZM385.68,468.92h55.57c0-8.37-.58-17.02-1.76-26.4-17.39,1.89-34.39,1.77-51.91-.36-1.07,7.87-1.68,16.41-1.9,26.77ZM413.94,438.12c-3.19,0-6.17-.07-9.03-.21-3.57-.17-7.18-.51-10.67-.83-1.88-.17-3.77-.35-5.65-.5-.51-.04-.86-.2-1.08-.5-.33-.44-.22-.99-.16-1.28.27-1.33.54-2.67.81-4,.56-2.82,1.14-5.73,1.79-8.58,1.83-8.04,4.29-15.14,7.52-21.7,1.64-3.33,4-7.6,7.65-11.02,2.78-2.6,5.32-3.79,8.23-3.84,2.69-.08,5.2.96,7.71,3.09,2.81,2.39,5.14,5.47,7.55,9.98,3.26,6.11,5.83,12.97,7.65,20.39.93,3.81,1.74,7.71,2.53,11.49.35,1.67.69,3.33,1.05,4.99.03.14.03.25.02.38v.77s-1.61.19-1.61.19c-.76.1-1.51.19-2.27.24-1.36.08-2.72.17-4.08.26-3.82.25-7.78.5-11.68.6-2.18.05-4.27.08-6.28.08ZM388.59,435.28s.06,0,.1.01c1.89.15,3.78.32,5.67.5,3.48.32,7.08.65,10.62.82,4.62.22,9.6.26,15.21.12,3.87-.1,7.81-.35,11.62-.59,1.36-.09,2.72-.18,4.08-.26.73-.04,1.45-.14,2.18-.23l.4-.05c-.33-1.6-.65-3.16-.97-4.72-.78-3.76-1.59-7.65-2.52-11.44-1.82-7.42-4.28-13.99-7.53-20.09-2.33-4.37-4.56-7.33-7.24-9.6-2.29-1.94-4.43-2.82-6.84-2.78-2.57.05-4.84,1.13-7.36,3.49-3.5,3.28-5.78,7.41-7.37,10.65-3.19,6.47-5.62,13.47-7.42,21.41-.65,2.83-1.22,5.74-1.78,8.54-.27,1.34-.53,2.67-.81,4.01-.02.09-.03.16-.04.21ZM444.38,436.17l-.47-2.57c-.24-1.36-.48-2.68-.73-4.01-1.8-9.52-4.1-17.68-7.02-24.93-2.64-6.56-5.28-11.27-8.56-15.26-.1-.12-.16-.24-.23-.41l-.88-1.78,1.53.54c.53.19,1.03.36,1.52.53,1.02.35,1.97.67,2.9,1.05,6.99,2.82,13.52,7.12,19.38,12.75,5.17,4.97,9.61,10.67,13.22,16.96,1.33,2.31,2.52,4.64,3.79,7.1.57,1.1,1.14,2.22,1.73,3.34l.36.68-.74.24c-8.29,2.7-16.53,4.56-25.18,5.68l-.61.08ZM429.5,389.65c2.98,3.94,5.43,8.47,7.87,14.52,2.96,7.34,5.28,15.57,7.09,25.18.25,1.33.49,2.66.74,4.02l.24,1.35c8.1-1.08,15.83-2.82,23.6-5.31-.47-.9-.92-1.78-1.38-2.67-1.26-2.45-2.45-4.76-3.76-7.05-3.54-6.18-7.91-11.79-12.99-16.67-5.75-5.52-12.13-9.72-18.97-12.48-.79-.32-1.59-.6-2.45-.89ZM382.66,435.73l-.62-.1c-9.54-1.56-17.38-3.52-24.68-6.18l-.67-.25.3-.65c10.14-21.55,23.38-34.49,41.65-40.74l.37-.13.7.65-.11.67-.84,1.2c-.63.89-1.26,1.78-1.87,2.68-2.1,3.05-3.9,6.52-5.83,11.26-2.61,6.37-4.68,13.27-6.33,21.1-.46,2.21-.89,4.42-1.33,6.68l-.74,3.8ZM358.48,428.46c6.87,2.45,14.26,4.29,23.14,5.77l.5-2.56c.44-2.27.86-4.49,1.33-6.7,1.67-7.9,3.76-14.88,6.4-21.32,1.98-4.83,3.82-8.38,5.97-11.51.6-.87,1.2-1.73,1.81-2.58-16.99,6.24-29.47,18.65-39.14,38.9ZM475.38,428.44c-.68,0-1-.62-1.16-.92-.57-1.11-1.14-2.23-1.71-3.35-1.52-3-3.09-6.1-4.79-9.06-2.72-4.72-6.04-9.11-9.87-13.04-1.73-1.78-3.61-3.48-5.42-5.13-.85-.77-1.69-1.54-2.53-2.32-.21-.19-.33-.42-.39-.69l-.25-1.22,1.14.48c5.69,2.41,11.29,5.65,16.64,9.63,7.57,5.64,13.85,12.12,19.2,19.81l.44.63-3.39,1.59c-2.46,1.15-4.86,2.28-7.26,3.41-.25.12-.47.17-.66.17ZM453.26,395.92l.05.05c1.83,1.66,3.72,3.38,5.48,5.19,3.91,4.01,7.29,8.49,10.06,13.3,1.72,2.98,3.3,6.1,4.83,9.12.57,1.11,1.13,2.23,1.7,3.34.02.04.06.11.09.17,2.47-1.16,4.84-2.27,7.27-3.41l1.98-.93c-5.17-7.3-11.22-13.48-18.46-18.87-4.21-3.14-8.57-5.8-13.01-7.95ZM352.62,427.72l-8.89-4.58.42-.61c7.05-10.22,16.11-18.48,27.69-25.25l4.65-2.72-3.86,3.75c-7.88,7.65-14.33,17.06-19.72,28.79l-.28.62ZM345.65,422.66l6.35,3.27c4.53-9.74,9.81-17.89,16.05-24.78-9.1,5.98-16.46,13.06-22.4,21.5Z"/>
                <path class="cls-1" d="M415.34,566.69h-.48c-25.37,0-49.16-10.02-67.02-28.2-17.86-18.19-27.42-42.26-26.92-67.78,1-51.62,42.14-92.25,93.66-92.49h.47c25.51,0,49.34,9.9,67.12,27.87,17.96,18.16,27.63,42.25,27.24,67.85-.79,51.15-42.99,92.76-94.06,92.76ZM382.89,388.82c-33.09,12.59-56.48,44.18-57.22,81.98-.47,24.23,8.61,47.09,25.57,64.36,16.95,17.27,39.54,26.77,63.6,26.77h.5c7.23,0,14.27-.87,21.02-2.53l12.3-10.09c10.37-8.51,18.34-19.42,24.36-33.37l.99-2.29,15.24,7.43-1.61,2.28c-9.45,13.38-21.39,23.17-36.5,29.95l-11.83,5.3c37.07-10.45,64.72-44.5,65.34-84.77.38-24.31-8.81-47.19-25.87-64.43-16.88-17.06-39.52-26.46-63.74-26.46h-.45c-10.01.05-19.6,1.7-28.54,4.72l-12.23,11.86c-7.73,7.5-14.06,16.74-19.35,28.27l-1.04,2.26-12.24-6.31,1.54-2.22c7.2-10.43,16.43-18.86,28.24-25.76l11.92-6.97ZM476.38,520.1c-3.54,7.75-7.68,14.55-12.5,20.56,6.93-4.89,12.96-10.78,18.22-17.77l-5.72-2.79ZM348.22,422.05l2.99,1.54c2.24-4.65,4.65-8.92,7.26-12.86-3.8,3.45-7.2,7.21-10.25,11.32ZM413.54,561.01c-2.81,0-5.63-1.06-8.17-3.06-3.94-3.11-6.42-7.13-8.14-10.28-3.88-7.1-6.77-15.05-9.1-25.03-.67-2.87-1.25-5.7-1.87-8.69-.31-1.53-.6-2.9-.89-4.3l-.53-2.53,2.56-.32c16.89-2.12,33.93-2.27,52.1-.45l2.53.25-.42,2.51c-1.42,8.45-2.95,15.23-4.82,21.35-1.95,6.36-3.97,11.46-6.36,16.04-1.8,3.43-4.38,7.81-8.5,11.24-2.58,2.14-5.48,3.28-8.39,3.28ZM390.55,511.21l.33,1.61c.62,3.01,1.2,5.86,1.88,8.73,2.23,9.55,4.98,17.12,8.64,23.83,2.23,4.09,4.37,6.81,6.91,8.82,3.49,2.76,7.15,2.71,10.56-.14,3.47-2.89,5.74-6.75,7.33-9.8,2.25-4.31,4.17-9.15,6.03-15.22,1.62-5.3,2.98-11.13,4.25-18.22-15.96-1.44-31.02-1.31-45.93.38ZM427.6,559.24l-1.08-.94-1.97.72,1.1-1.48-.98-.86,1.91-2.58c.51-.69.93-1.25,1.33-1.82,3.08-4.38,5.66-9.61,8.1-16.47,2.04-5.72,3.7-11.85,5.08-18.72.42-2.12.79-4.25,1.15-6.38l.15-.85c.38-2.29,2.04-2.89,3.47-2.68,9.29,1.42,16.89,3.13,23.93,5.4.2.06.42.15.71.28l2.54,1.12-1.01,2.2c-10.34,22.52-24.04,36.06-43.11,42.61l-1.3.44ZM446.82,512.15c-.34,1.96-.68,3.93-1.07,5.88-1.42,7.09-3.14,13.43-5.26,19.38-1.99,5.6-4.08,10.2-6.46,14.18,13.75-6.53,24.21-17.81,32.55-35.02-5.89-1.79-12.25-3.21-19.76-4.41ZM398.5,558.92l-.36-.14c-.45-.17-.91-.34-1.36-.51l-.33-.12c-1.3-.48-2.59-.96-3.86-1.51-8.13-3.52-15.3-8.73-21.9-15.95-4.8-5.25-8.93-11.2-12.29-17.68-.65-1.25-1.27-2.52-1.89-3.79l-.59-1.2c-.12-.23-.22-.49-.33-.79l-1.02-2.65,2.37-.78c.58-.19,1.15-.39,1.71-.59,1.4-.48,2.61-.9,3.91-1.25,4.12-1.09,8.5-2.19,13.37-3.35,1.6-.38,3.19-.63,4.74-.87l.75-.12c.52-.09,1.03,0,1.49.22l.51-.31v.61c.63.45,1.09,1.12,1.24,1.8.37,1.75.73,3.5,1.08,5.26l.08.39c.68,3.39,1.45,7.22,2.34,10.84,1.98,7.98,4.57,14.83,7.94,20.92.87,1.58,1.94,3.14,2.98,4.66.53.77,1.02,1.5,1.51,2.23.08.13.17.24.26.36l1.18,1.6-.82,1.33.83,1.25-1.31-.48-.29.48-1.91.13ZM360.93,517.45c.58,1.18,1.12,2.28,1.68,3.37,3.17,6.12,7.06,11.72,11.58,16.66,5.77,6.3,11.97,10.96,18.92,14.19-.41-.65-.82-1.32-1.19-2.01-3.57-6.47-6.31-13.69-8.39-22.08-.9-3.65-1.65-7.37-2.37-10.97-.27-1.36-.54-2.69-.81-4-1.12.18-2.24.38-3.31.63-4.82,1.15-9.16,2.24-13.26,3.33-.93.25-1.87.56-2.84.89ZM379.81,553.58l-3.15-2.05.56,1.35-6.11-3.55c-11.58-6.74-20.87-15.21-28.38-25.91l-1.57-2.23,4.23-2.19c1.38-.72,2.73-1.42,4.1-2.08,1.1-.53,2.23-1.08,3.53-.61,1.27.45,1.77,1.51,2.35,2.74,2.04,4.34,4.53,8.69,7.6,13.28,3.11,4.65,6.73,8.94,10.77,12.76.42.39.58.82.66,1.02l1.3,3.12,4.11,4.35ZM348.21,522.89c3.14,4.19,6.59,8,10.39,11.46-2.96-4.48-5.39-8.74-7.4-12.98-1.01.49-1.99,1-2.99,1.52ZM340.62,520.42l-1.14-1.91c-7.97-13.21-12.29-27.7-12.83-43.05l-.09-2.46h18.82l.06,2.31c.39,13.02,2.74,25.36,6.98,36.69l.74,1.98-12.54,6.44ZM331.52,477.77c.82,12.88,4.48,25.11,10.91,36.39l4.82-2.47c-3.73-10.58-5.9-21.98-6.47-33.91h-9.26ZM489.64,520.29l-15.22-7.46,2.08-6.51c1.83-5.71,3.04-11,3.69-16.18.47-3.75.77-7.58,1.06-11.29l.23-2.89c.16-1.9,1.38-3.03,3.26-3.03,5.21.01,10.41.02,15.61,0,.76-.07,1.79.16,2.53.93.9.95.83,2.13.81,2.51-.6,10.45-2.76,20.32-6.42,29.35-2.02,4.99-4.15,9.18-6.49,12.8l-1.15,1.77ZM480.2,510.37l7.7,3.78c1.75-2.95,3.38-6.31,4.97-10.22,3.28-8.09,5.29-16.91,5.98-26.24-4.27.01-8.5.01-12.72,0l-.12,1.54c-.29,3.76-.6,7.66-1.09,11.51-.69,5.47-1.96,11.04-3.88,17.04l-.83,2.59ZM353.92,513.9l-1.52-4.71c-.57-1.74-1.12-3.44-1.63-5.15-1.58-5.33-2.74-10.9-3.44-16.58-.31-2.5-.47-5.02-.63-7.45l-.02-.34c-.07-1.07-.14-2.14-.23-3.21-.03-.4-.13-1.6.77-2.57.6-.64,1.46-1.04,2.47-.97,4.91.01,9.84.01,14.78.01h14.24c1.46,0,2.13.73,2.44,1.34l.25.9,2.24,31.26-2.17.33c-9,1.4-17.25,3.46-25.25,6.3l-2.3.82ZM351.3,477.68c.04.58.08,1.14.12,1.7l.02.32c.15,2.25.31,4.79.61,7.18.66,5.4,1.77,10.72,3.28,15.8.49,1.66,1.03,3.31,1.58,5l.04.11c6.91-2.32,14.02-4.08,21.64-5.37l-1.77-24.74h-9.12c-5.47,0-10.93,0-16.39-.01ZM473.32,512.79l-2.2-.72c-7.62-2.51-15.96-4.41-25.51-5.83l-2.17-.32,2.27-32.93h2.68l-.51-1.02c-1.66-.29-2.61-1.48-2.64-3.36-.13-8.77-.61-16.42-1.46-23.38-.12-.99-.24-1.98-.41-2.96-.17-.97,0-1.81.51-2.49.51-.69,1.28-1.1,2.28-1.22,6.61-.86,13.42-2.27,20.23-4.22,1.04-.3,2.07-.61,3.16-.95l3.95-1.2,1.44,4.6c.54,1.71,1.07,3.39,1.56,5.08,1.6,5.59,2.75,11.55,3.43,17.71.21,1.95.32,3.91.43,5.8.06,1.1.12,2.2.2,3.3.09,1.22-.37,2-.77,2.43-.85.92-1.96.93-2.49.94h-17.88c-3.13-.02-6.26-.02-9.38,0v.96h30.57l-.05,2.43c-.25,12.13-2.43,23.97-6.46,35.2l-.78,2.18ZM448.49,501.87c8.02,1.28,15.21,2.91,21.89,4.97,3.12-9.34,4.92-19.11,5.35-29.09h-25.58l-1.66,24.13ZM454.76,467.26c1.11,0,2.22,0,3.33,0h17.62c-.03-.54-.06-1.09-.09-1.64-.1-1.83-.2-3.72-.41-5.54-.65-5.9-1.75-11.59-3.27-16.92-.46-1.62-.97-3.22-1.49-4.86l-.06-.21c-.92.28-1.8.55-2.68.8-6.52,1.86-13.04,3.25-19.41,4.15.07.54.14,1.07.2,1.6.82,6.81,1.3,14.22,1.47,22.62,1.62,0,3.21-.01,4.79-.01ZM384.97,506.19l-.32-2.34c-1.16-8.52-1.79-17.54-2-28.41l-.05-2.42h61.66v2.37c.06,8.69-.55,17.86-1.84,28.04l-.29,2.31-2.32-.25c-17.84-1.94-35.02-1.81-52.51.4l-2.33.3ZM387.45,477.77c.22,8.65.74,16.08,1.6,23.11,16.29-1.89,32.33-2.02,48.93-.37.97-8.15,1.47-15.62,1.53-22.74h-52.06ZM484.47,472.44l-.24-.44c-1.68-.24-2.69-1.41-2.74-3.24-.22-7.46-.89-13.45-2.13-18.86-.89-3.89-2.03-7.83-3.13-11.64l-1.01-3.52c-.67-2.34.62-3.5,1.81-4.05,3.71-1.73,6.77-3.23,9.62-4.71.26-.14.52-.25.77-.33l.04-.16.13.11c1.54-.44,2.87.16,3.8,1.74,5.37,9.17,8.96,18.67,10.66,28.24.52,2.93.84,5.89,1.15,8.76l.03.28c.14,1.31.28,2.62.45,3.92.15,1.24-.29,2.04-.69,2.5-.88.99-2.07,1-2.52,1-1.96-.01-3.87-.01-5.78,0l-2.08.02h-2.13c-1.83,0-3.67,0-5.51,0h-.07c-.06,0-.12,0-.18,0l-.25.4ZM480.09,434.5l.68,2.38c1.12,3.87,2.28,7.88,3.21,11.96,1.23,5.39,1.94,11.28,2.2,18.44,1.47,0,2.87,0,4.28,0l4.2-.02c1.35,0,2.71,0,4.06,0-.09-.81-.18-1.62-.27-2.42-.3-2.79-.61-5.67-1.1-8.44-1.54-8.68-4.74-17.31-9.51-25.69-2.39,1.23-4.88,2.45-7.75,3.79ZM477.93,433.7l-1.53.44,1.53-.44ZM348.72,472.18l-.1-.29c-.44-.13-.92-.37-1.34-.81-.93-.97-.88-2.19-.87-2.66.45-11.15,2.21-21.26,5.39-30.89.27-.83.56-1.66.84-2.5l1.31-3.85,4.59,1.48c1.71.55,3.25,1.06,4.81,1.5,6.06,1.76,11.75,3.02,17.41,3.87,2.07.31,3.18,1.79,2.89,3.85-.93,6.57-1.5,13.74-1.81,22.55-.04,1.12-.03,2.23-.02,3.38l.02,3.96-2.7.19c-.33.03-.62.05-.92.05h-7.51c-6.93,0-13.88,0-20.82.03h-.03c-.18,0-.52,0-.93-.08l-.22.22ZM356.96,437.14c-.21.63-.42,1.25-.63,1.88-2.91,8.84-4.58,18.1-5.09,28.28,6.49-.04,12.98-.03,19.49-.04h6.34c0-1.01,0-2,.03-2.99.29-8.4.83-15.35,1.67-21.73-5.5-.89-10.96-2.14-16.73-3.81-1.64-.47-3.27-1-4.95-1.55l-.13-.04ZM342.42,472.03h0c-4.26-.01-8.51-.02-12.76,0-1.16,0-1.87-.51-2.26-.93-.58-.63-.84-1.44-.76-2.42.05-.66.09-1.34.13-2.01.09-1.62.19-3.3.47-4.99.74-4.4,1.5-8.7,2.56-12.88,1.33-5.21,3.3-10.39,5.85-15.38.94-1.83,1.91-3.64,2.88-5.46l.09-.17c.2-.38.43-.75.64-1.08l1.33-2.15,3.55,1.77c2.26,1.13,4.46,2.22,6.64,3.35,1.31.67,1.82,2.4,1.49,3.58-.47,1.65-.98,3.3-1.48,4.94-.97,3.21-1.96,6.46-2.72,9.68-.9,3.85-1.42,7.9-1.91,11.83l-.09.7c-.26,2.08-.37,4.27-.48,6.39l-.02.38c-.03.63-.06,1.25-.1,1.88-.11,1.8-1.31,2.96-3.07,2.96ZM332.49,467.26c2.8,0,5.57,0,8.34,0l.04-.68c.11-2.21.22-4.49.51-6.77l.09-.69c.51-4.03,1.04-8.21,2-12.31.79-3.39,1.81-6.74,2.8-9.98.36-1.2.73-2.39,1.08-3.59-1.59-.8-3.24-1.62-4.92-2.46-.85,1.59-1.7,3.19-2.52,4.8-2.4,4.67-4.24,9.51-5.48,14.38-1.02,4.01-1.75,8.2-2.48,12.49-.24,1.45-.33,3.05-.41,4.47v.24s-.02.05-.02.08h.99ZM444.28,471.95h-61.68l.05-2.42c.22-11.06.87-20.1,2.04-28.43l.32-2.32,2.33.29c17.72,2.2,34.89,2.32,52.48.37l2.33-.26.29,2.32c1.28,10,1.89,19.19,1.86,28.08v2.37ZM387.45,467.2h52.07c-.07-7.27-.58-14.75-1.53-22.78-16.39,1.66-32.43,1.55-48.91-.34-.87,6.89-1.4,14.32-1.63,23.13ZM413.94,439.85c-3.24,0-6.22-.07-9.11-.21-3.61-.18-7.24-.51-10.75-.83l-.38-.03c-1.75-.16-3.5-.32-5.26-.46-1.26-.1-1.96-.7-2.32-1.18-.8-1.06-.55-2.27-.47-2.67.26-1.27.52-2.54.77-3.82.6-3,1.18-5.93,1.83-8.8,1.86-8.18,4.37-15.4,7.66-22.08,1.71-3.47,4.16-7.91,8.02-11.52,3.12-2.92,6.01-4.25,9.38-4.31,3.07-.08,5.97,1.05,8.86,3.5,2.98,2.53,5.44,5.77,7.96,10.49,3.33,6.24,5.95,13.24,7.8,20.79.94,3.85,1.76,7.76,2.54,11.54.35,1.66.69,3.32,1.05,4.98.08.37.06.66.06.81v2.23s-3.13.37-3.13.37c-.78.1-1.58.2-2.38.25-1.36.08-2.71.17-4.07.26-3.88.25-7.83.5-11.74.6-2.2.06-4.3.08-6.32.08ZM390.66,433.72c1.28.11,2.57.23,3.86.35,3.46.32,7.04.65,10.54.82,4.57.22,9.5.26,15.09.12,3.91-.1,7.97-.36,11.56-.59l4.09-.26c.21-.01.41-.03.62-.05l-.6-2.88c-.79-3.82-1.59-7.66-2.5-11.38-1.78-7.28-4.19-13.72-7.38-19.69-2.22-4.16-4.33-6.97-6.84-9.1-1.97-1.67-3.71-2.4-5.7-2.37-2.13.04-3.99.95-6.21,3.03-3.29,3.08-5.47,7.04-7,10.15-3.13,6.35-5.51,13.23-7.29,21.03-.64,2.82-1.22,5.7-1.77,8.5-.15.78-.31,1.55-.47,2.33ZM442.97,438.09l-.76-4.19c-.24-1.35-.48-2.67-.73-3.99-1.78-9.41-4.04-17.46-6.93-24.61-2.57-6.39-5.13-10.96-8.29-14.82-.25-.3-.37-.58-.46-.77l-2.76-5.55,7.05,2.49c1.05.36,2.02.69,2.98,1.08,7.2,2.91,13.9,7.32,19.93,13.11,5.29,5.08,9.83,10.92,13.52,17.35,1.34,2.35,2.55,4.69,3.82,7.16l.1.19c.53,1.04,1.07,2.08,1.63,3.14l1.31,2.5-2.68.87c-8.39,2.74-16.73,4.62-25.5,5.76l-2.24.29ZM434.05,393.34c1.74,2.93,3.32,6.22,4.92,10.18,3,7.44,5.35,15.78,7.19,25.5.24,1.24.46,2.48.69,3.75,6.74-.98,13.22-2.43,19.71-4.41l-.44-.84c-1.26-2.46-2.44-4.74-3.72-6.98-3.46-6.04-7.73-11.52-12.69-16.28-4.8-4.62-10.06-8.29-15.66-10.93ZM384.03,437.7l-2.28-.37c-9.64-1.57-17.58-3.56-24.99-6.26l-2.44-.89,1.1-2.36c10.36-22,23.91-35.23,42.65-41.64l1.34-.46,1.03.96,1.74-.64-.96,1.37.32.3-.32,1.97-1.27,1.81c-.56.79-1.11,1.58-1.66,2.37-2.02,2.94-3.77,6.32-5.66,10.94-2.57,6.28-4.61,13.08-6.23,20.8-.44,2.09-.85,4.19-1.26,6.33l-1.12,5.77ZM360.88,427.47c5.83,1.96,12.07,3.5,19.37,4.78l.17-.9c.44-2.28.87-4.51,1.34-6.73,1.69-8.01,3.81-15.08,6.49-21.62,1.58-3.86,3.08-6.93,4.71-9.62-13.46,6.39-23.77,17.37-32.08,34.09ZM475.38,430.16c-1.14,0-2.04-.62-2.68-1.84-.58-1.13-1.15-2.25-1.72-3.37-1.43-2.82-3.05-6.02-4.75-8.98-2.64-4.59-5.88-8.87-9.61-12.7-1.72-1.77-3.65-3.52-5.34-5.06-.85-.77-1.7-1.55-2.54-2.34-.46-.42-.77-.98-.9-1.6l-.35-1.72-2.47-2.47,2.18,1.04-.26-1.28,4.17,1.76c5.82,2.46,11.54,5.77,17,9.84,7.72,5.75,14.13,12.36,19.59,20.21l1.61,2.31-5.24,2.46c-2.46,1.15-4.86,2.28-7.25,3.41-.47.22-.94.33-1.4.33ZM463.89,404.28c2.41,2.93,4.57,6.05,6.45,9.32,1.73,3,3.3,6.11,4.83,9.12l.3.59c.26.5.51,1.01.77,1.51l5.86-2.75c-4.79-6.43-10.33-11.94-16.87-16.81-.45-.33-.9-.66-1.34-.98Z"/>
              </g>
            </g>
          </g>
        </g>
        <g id="a6YYDB">
          <g>
            <path class="cls-1" d="M511.36,311.41c-1.12-7.73-4.73-14.29-10.71-19.44-5.89-5.08-12.76-7.84-20.49-7.86-61.62-.07-123.26-.04-184.9-.04H110.09c-1.23,0-2.49.07-3.7.26-7.24,1.18-13.53,4.16-18.71,9.48-5.91,6.08-8.87,13.37-9.13,21.74-.2,5.89,1.25,11.47,4.2,16.61,3.61,6.3,8.76,10.84,15.41,13.7,4.05,1.73,8.27,2.6,12.67,2.43.66-.04,1.16.02,1.31.9.77,4.66,1.6,9.3,2.45,13.94,1.27,6.83,2.6,13.66,3.83,20.51,1.9,10.35,3.74,20.71,5.6,31.06,1.27,7.03,2.54,14.05,3.83,21.06,1.03,5.67,2.12,11.32,3.15,16.99,1.18,6.54,2.32,13.09,3.5,19.65.9,5.03,1.97,10.03,2.76,15.08,1.05,6.65,2.69,13.04,6.43,18.78,3.85,5.91,8.84,10.55,15.02,13.9,6.35,3.46,13.22,4.75,20.33,4.77,52.32.02,107.82.02,160.15,0-3.3-5.14-7.24-10.59-9.52-16.33-50.3,0-102.68-.02-152.98-.04-5.54,0-10.4-2.1-14.64-5.69-5.27-4.46-7.68-10.29-8.71-16.92-.68-4.34-1.58-8.65-2.38-12.98-1.21-6.76-2.39-13.53-3.61-20.29-1.58-8.78-3.22-17.58-4.82-26.36-1.31-7.11-2.63-14.21-3.9-21.32-1.47-8.23-2.89-16.48-4.38-24.73-1.38-7.71-2.85-15.41-4.29-23.11-.5-2.69-.99-5.36-1.49-8.05-.04-.2,0-.42,0-.74h333.41c-.31,1.77-.59,3.44-.88,5.12-1.34,7.46-2.69,14.91-4.05,22.35-.63,3.46-1.65,8.18-2.29,11.62,5.25,2.32,10.19,6.15,14.89,9.36.06-.26.51-2.88.57-3.13,1.38-7.64,2.71-15.28,4.09-22.92,1.29-7.14,2.61-14.29,3.92-21.41.15-.76.48-1.07,1.33-1.1,2.34-.11,4.71-.17,7-.64,7.35-1.57,13.44-5.3,18.17-11.19,5.91-7.35,8.1-15.78,6.77-25ZM491.22,327.04c-3.44,3.66-7.7,5.21-12.72,5.21-61.11-.04-122.21-.04-183.3-.04H110.82c-7.92,0-14.89-5.82-15.94-13.61-.64-4.66.46-8.97,3.66-12.63,2.93-3.37,6.52-5.32,10.99-5.62,1.55-.11,3.09-.22,4.64-.22,121.5-.02,242.97-.04,364.47.02,7.4,0,12.96,3.41,15.83,10.38,2.34,5.67,1.05,11.93-3.26,16.5Z"/>
            <path class="cls-1" d="M254.85,223.32c0-6.82-.02-13.64.02-20.45,0-.98-.32-1.44-1.17-1.92-5.15-2.88-9.91-6.32-14.33-10.23-7.72-6.82-13.96-14.8-18.78-23.9-4.24-8-7.04-16.46-8.59-25.37-.95-5.48-1.36-11-1.13-16.54.42-10.23,2.55-20.1,6.48-29.59,3.3-7.96,7.78-15.2,13.27-21.78,3.78-4.53,8.06-8.61,12.73-12.25,5.19-4.05,10.78-7.51,16.77-10.19,7.11-3.18,14.51-5.48,22.29-6.59,5.6-.8,11.22-1.26,16.83-.89,4.78.32,9.56,1.03,14.27,1.94,6.44,1.25,12.58,3.54,18.48,6.43,5.78,2.83,11.2,6.26,16.18,10.35,3.8,3.13,7.34,6.5,10.56,10.24,3.78,4.38,7.22,8.99,9.88,14.11,2.08,4,3.9,8.13,5.65,12.29,2.26,5.35,3.44,11.04,4.29,16.74.87,5.87,1,11.81.61,17.76-.37,5.62-1.32,11.11-2.8,16.51-2.02,7.37-5.04,14.33-8.97,20.9-4.36,7.29-9.78,13.71-16.03,19.42-4.42,4.04-9.3,7.5-14.52,10.44-1.06.6-1.56,1.22-1.55,2.56.07,13.81.14,27.63-.01,41.44-.06,5.38-1.94,10.26-5.39,14.51-3.86,4.76-8.86,7.49-14.79,8.63-1.12.22-2.28.31-3.43.31-11.01.02-22.01.12-33.02-.03-5.83-.08-11.03-2.08-15.5-6.01-4.53-3.99-7.05-8.98-8.04-14.83-.21-1.26-.26-2.56-.27-3.84-.03-6.73-.01-13.46-.01-20.19h0ZM303.2,188.66c.27.04.44.09.6.09,7.04,0,14.08.01,21.12-.01.46,0,.95-.19,1.37-.41,7.19-3.78,13.59-8.58,19.04-14.65,4.74-5.28,8.61-11.08,11.61-17.51,3.85-8.24,5.82-16.92,6.31-25.94.28-5.19-.26-10.35-1.27-15.44-1.46-7.34-4.04-14.26-7.79-20.75-3.78-6.55-8.47-12.31-14.15-17.31-5.43-4.78-11.47-8.54-18.09-11.47-7.74-3.43-15.87-5.19-24.25-5.52-4.26-.17-8.59.19-12.84.73-6.47.83-12.67,2.83-18.56,5.64-9.03,4.31-16.82,10.24-23.26,17.94-4.53,5.41-8.23,11.31-10.88,17.85-3.67,9.04-5.47,18.4-5.08,28.19.18,4.48.76,8.86,1.78,13.21,2.63,11.26,7.85,21.2,15.52,29.82,4.92,5.53,10.62,10.17,17.03,13.9,2.02,1.18,4.06,1.88,6.5,1.8,5.83-.18,11.67-.06,17.51-.06.48,0,.97,0,1.55,0v-42.32c-4.37-1.76-8.18-4.3-11.06-8.13-4.08-5.42-5.5-11.48-4.56-18.15.82-5.81,3.46-10.6,7.86-14.45,5.65-4.95,12.21-6.73,19.58-5.71,4.98.69,9.34,2.79,12.93,6.26,5.85,5.66,8.37,12.69,7.28,20.72-1.22,9-6.34,15.29-14.59,18.98-1,.45-1.3.92-1.3,1.95.03,13.14.02,26.29.02,39.43,0,.43.04.86.07,1.33ZM319.28,236.17h-48.1c0,3.1,0,6.08,0,9.06,0,.25.11.51.19.76,1.5,4.6,4.44,5.97,8.43,6.11,4.23.15,8.46.06,12.69.03,6.58-.06,13.16-.08,19.73-.29,2.6-.09,4.54-1.62,5.8-3.9,2.06-3.75.86-7.8,1.24-11.76ZM271.21,219.86h47.96v-14.66h-47.96v14.66ZM295.24,131.64c3.81.33,7.79-3.49,7.82-7.73.02-4.16-3.44-8.07-7.96-8.1-4.2-.03-7.85,3.68-7.93,7.89-.08,4.16,3.85,8.31,8.08,7.94Z"/>
            <path class="cls-1" d="M535.75,166.74c.1,5.88-2.13,10.97-5.07,15.86-3.01,5.01-5.93,10.07-8.88,15.12-3.28,5.62-6.55,11.24-9.82,16.86-3.05,5.24-6.09,10.49-9.15,15.73-3.75,6.42-7.51,12.82-11.28,19.23-3,5.11-5.96,10.25-9.04,15.32-1.66,2.73-5.49,3.96-8.66,3.02-3.48-1.03-5.75-4.01-5.87-7.36-.08-2.21.74-4.04,1.8-5.86,5.63-9.63,11.25-19.26,16.87-28.89,5.84-10.02,11.67-20.04,17.53-30.05,4.69-8.02,9.49-15.98,14.08-24.07,3.47-6.13.05-13.84-6.95-15.45-4.79-1.1-9.76,1.04-12.75,6.6-2.89,5.38-6.12,10.57-9.18,15.85-3.02,5.21-6.03,10.43-9.05,15.63-2.8,4.82-5.64,9.62-8.45,14.44-3.12,5.36-6.2,10.73-9.32,16.09-4.13,7.07-8.29,14.12-12.42,21.18-3.52,6.03-7.01,12.09-10.53,18.12-2.39,4.08-7.24,5.26-11.4,2.81-3.59-2.11-4.81-7.17-2.6-11,3.32-5.75,6.68-11.48,10.02-17.23,5.23-8.99,10.46-17.99,15.71-26.98,4.66-7.99,9.35-15.95,14.02-23.94,4.84-8.29,9.67-16.59,14.51-24.88,2.37-4.05,4.55-8.22,7.2-12.08,3.84-5.6,9.37-9.01,15.98-10.38,9.6-2,18.13.39,25.11,7.32,4.07,4.05,6.64,9.04,7.25,14.87.14,1.36.24,2.73.36,4.09Z"/>
            <path class="cls-1" d="M81.4,139.81c7.89.08,14.67,2.88,19.94,8.74,2.25,2.5,3.91,5.56,5.66,8.47,3.3,5.5,6.46,11.09,9.68,16.63,3.05,5.24,6.09,10.49,9.16,15.72,5.61,9.59,11.23,19.17,16.83,28.77,3.86,6.62,7.67,13.27,11.52,19.89,3.51,6.04,7.13,12.03,10.56,18.12,2.53,4.5.34,10.38-5.1,11.79-3.14.82-7.18-.52-9.3-4.26-3.7-6.51-7.47-12.97-11.25-19.44-4.1-7.03-8.25-14.03-12.35-21.06-4.46-7.64-8.86-15.32-13.32-22.96-3.56-6.11-7.18-12.2-10.74-18.31-3.19-5.47-6.3-10.98-9.52-16.42-1.3-2.2-2.54-4.52-4.25-6.36-3-3.23-6.93-4.04-11.07-2.61-3.92,1.36-6.21,4.23-7.03,8.41-.66,3.38.77,6.04,2.32,8.72,3.29,5.71,6.64,11.38,9.97,17.07,3.73,6.38,7.47,12.75,11.2,19.13,3.04,5.2,6.05,10.41,9.09,15.61,3.74,6.42,7.51,12.82,11.25,19.24,2.27,3.9,4.55,7.81,6.77,11.74,1.91,3.39.74,7.41-1.64,9.55-3.2,2.9-7.31,2.75-10.37.6-1.89-1.34-2.75-3.42-3.87-5.3-3.95-6.66-7.84-13.36-11.74-20.06-4.32-7.42-8.62-14.86-12.95-22.28-4.71-8.06-9.48-16.1-14.17-24.17-3.29-5.67-6.69-11.29-9.69-17.12-2.26-4.39-2.9-9.2-2.27-14.19.46-3.62,1.48-6.97,3.23-10.15,2.17-3.94,5.2-7.09,8.96-9.45,4.39-2.77,9.24-4.2,14.49-4.08Z"/>
            <path class="cls-1" d="M166.81,131.77c-5.52,0-11.05,0-16.57,0-3.56,0-6.92-3.06-7.44-6.57-.79-5.38,3.2-9.59,8.47-9.53,10.38.12,20.76.05,31.13.03,3.46,0,6.12,1.35,7.66,4.5,1.56,3.18,1.07,6.27-1.12,8.93-1.3,1.58-3.12,2.63-5.31,2.64-5.61.02-11.22,0-16.84,0Z"/>
            <path class="cls-1" d="M423.43,131.77c-5.39,0-10.78-.11-16.17.04-3.84.1-7.12-3.35-7.75-6.11-.89-3.89,1.27-8.29,5.09-9.49.92-.29,1.91-.48,2.86-.48,10.65-.03,21.29-.08,31.94,0,4.91.04,7.51,3.07,8.13,7.22.6,3.96-2.36,7.85-6.35,8.73-.43.09-.88.09-1.32.09-5.48,0-10.96,0-16.44,0Z"/>
            <path class="cls-1" d="M198.85,164.05c.15,2.84-1.21,5.03-3.54,6.61-7.89,5.3-15.82,10.54-23.71,15.83-4.64,3.11-11.37,1.14-12.67-4.84-.65-3.01.59-6.57,3.31-8.4,8.07-5.43,16.14-10.86,24.29-16.18,2.72-1.77,5.73-1.78,8.55-.07,2.57,1.56,3.93,3.86,3.78,7.05Z"/>
            <path class="cls-1" d="M423.36,187.89c-1.75.13-3.31-.51-4.79-1.5-7.78-5.21-15.56-10.43-23.39-15.57-4.42-2.9-4.69-8.04-2.71-11.18,2.64-4.18,7.7-4.97,11.65-2.37,7.9,5.2,15.75,10.48,23.62,15.73,2.45,1.64,3.84,4.02,3.79,6.89-.08,4.56-3.42,8.15-8.17,7.99Z"/>
            <path class="cls-1" d="M391.34,82.52c.08-1.9,1.38-4.17,3.91-5.85,7.89-5.22,15.69-10.57,23.62-15.73,5.13-3.35,12.19-.59,12.66,6.49.18,2.67-.95,5.14-3.32,6.73-8.14,5.48-16.26,10.98-24.47,16.34-2.66,1.74-5.62,1.74-8.46.16-2.48-1.38-3.93-4.01-3.94-8.15Z"/>
            <path class="cls-1" d="M198.86,83.54c.07,3.36-1.37,5.68-4.12,7.2-2.87,1.59-5.81,1.38-8.45-.34-7.71-5.01-15.33-10.18-22.98-15.28-2.03-1.35-3.73-2.9-4.28-5.46-.75-3.45.37-6.75,3.12-8.68,2.69-1.89,6.35-1.91,9.25.02,8.14,5.4,16.29,10.79,24.38,16.27,2.19,1.48,3.14,3.76,3.08,6.27Z"/>
            <path class="cls-1" d="M303.12,428.65c0,16.08,0,32.17,0,48.25,0,3.57-2.43,6.67-5.92,7.58-3.6.94-7.54-.68-9.09-3.94-.59-1.24-1-2.7-1-4.06-.06-32.12-.04-64.24-.05-96.36,0-3.98,3.65-7.98,8.41-7.74,4.18.21,7.67,3.54,7.67,7.76,0,16.17,0,32.34,0,48.51h-.02Z"/>
            <path class="cls-1" d="M214.96,428.52c0-16.22,0-32.44,0-48.66,0-3.86,3.52-7.21,7.39-7.49,4.99-.36,8.76,3.83,8.74,8.56-.08,31.9-.04,63.81-.05,95.71,0,4.27-3.2,7.84-7.55,8.08-3.81.21-7.38-1.85-8.49-6.48-.09-.38-.04-.8-.04-1.2,0-16.17,0-32.35,0-48.52Z"/>
          </g>
        </g>
      </g>
    </g>
  </g>
</svg>