<?xml version="1.0" encoding="UTF-8"?>
<svg xmlns="http://www.w3.org/2000/svg" version="1.1" viewBox="0 0 594.84 616.58">
  <defs>
    <style>
      .cls-1 {
        fill: #eb2127;
      }
    </style>
  </defs>
  <!-- Generator: Adobe Illustrator 28.6.0, SVG Export Plug-In . SVG Version: 1.2.0 Build 709)  -->
  <g>
    <g id="Layer_1">
      <g id="_x35_Vf5dC.tif">
        <g>
          <path class="cls-1" d="M25.78,601.25c-3.9,0-8.57-.92-11.29-3.72-4.17-4.3-4.2-11.02-4.31-18.92-.17-11.68.19-25.15.2-38.69.01-17.9,3.04-24,18.45-24.08,2.12-.01,4.23,0,6.84,0v-24.45c-3.33,0-6.58.09-9.82-.02-9.45-.32-15.47-5.96-15.58-15.29-.21-18.18-.2-36.36-.02-54.54.08-8.31,6.66-15.06,14.97-15.43,3.45-.15,6.91-.03,10.66-.03v-24.44c-3.51,0-6.76.11-9.99-.02-9.78-.39-15.6-6.12-15.67-15.8-.13-17.69-.13-35.39,0-53.08.08-10.52,5.73-16.06,16.41-16.13,19.64-.12,39.28-.04,58.92-.04,2.08,0,4.16,0,6.91,0,0-11.38-.03-22.02.02-32.67.02-4.62-.82-9.98,5.91-10.73,4.54-.51,6.38,2.84,6.38,10.82,0,10.64,0,21.27,0,32.57,2.76,0,4.85,0,6.93,0,24.89,0,49.78,0,74.67,0,1.56,0,3.11.03,4.67.03,4.33,0,6.68,2.53,6.64,6.49-.04,3.92-2.95,5.65-6.75,5.73-1.94.04-3.89.06-5.83.06-46.87,0-93.73,0-140.6.01-5.44,0-10.89.33-16.33.22-5.36-.11-5.27,3.16-5.04,10.18v40.53c-.09,7.04-.44,9.39,4.39,9.25,5.05-.15,10.11.09,15.16.09,77.2,0,154.41,0,231.61,0q8.28,0,8.3-8.32c0-15.17-.16-30.34.09-45.5.08-5.06-1.54-6.82-6.68-6.73-15.55.27-31.11.17-46.67.05-6.41-.05-9.81-4.85-6.51-9.19,1.19-1.56,3.84-2.82,5.84-2.84,17.3-.2,34.61-.26,51.92,0,8.38.13,14.33,6.15,14.42,14.5.2,18.47.19,36.94.02,55.42-.08,8.65-6,14.57-14.61,15.1-3.45.21-6.93.04-10.8.04v26.05c2.65-2.42,4.37-3.6,5.58-5.16,5.23-6.75,10.26-13.66,15.47-20.43,2.29-2.98,5.13-5.04,9-2.65,3.81,2.35,3.22,5.8,1.9,9.28-5.23,13.73-7.36,27.8-4.14,42.3,2.7,12.16,8.96,22.19,19.16,30.13,5.16-6.35,6.93-13.43,6.68-21.18-.12-3.73-.56-7.76,4.12-9.15,4.85-1.44,6.91,2.1,9.01,5.53,12.67,20.72,25.72,41.22,34.29,64.13,3.61,9.66,3.57,9.68,13.85,9.68,6.03,0,12.06.03,18.09,0,4.06-.02,6.97,1.47,7.05,5.9.08,4.47-2.8,6.04-6.87,6.04-8.52,0-17.04,0-26.52,0,0,5.17.45,9.8-.07,14.32-3.42,29.26-21.36,47-47.27,57.7-8.13,3.36-16.76,6.87-25.63,7.09H90.34c-2.4,0-4.75-1.01-6.2-2.92-1.11-1.46-1.6-3.2-.91-5.46,1.3-4.28,4.34-4.47,13.11-4.47,47.83,0,95.66,0,143.49,0,2.03,0,4.06,0,7.83,0-21.96-15.26-34.59-34-34.57-59.92-1.48-.17-2.6-.4-3.72-.4-60.27.02-120.55.08-180.82.03-5.87,0-5.63,3.38-5.3,11.32l.07,37.11c.16,8.32-1.19,12.03,4.74,11.91l26.23.23c3.13.18,6.45.14,8.48,1.66,2.64,1.97,2.4,10.42-2.19,10.92H25.78ZM263.72,418.43c.53.13.15-.04-.22-.04-78.51,0-157.03.04-235.54-.02-4.31,0-5.3,2.16-5.29,5.79.03,16.32.05,32.65-.05,48.97-.02,3.85,1.22,5.8,5.41,5.5,3.48-.25,6.99.02,10.49.02,60.05.01,120.11,0,180.16.1,3.94,0,5.58-1.45,6.74-5.74s2.94-8.69,5.18-12.7,3.26-10.37,9.55-9.28c5.21.9,5.15,5.36,5.65,9.54.59,4.95,1.83,9.82,2.77,14.65,5.11-19.18,10.07-37.77,15.15-56.8ZM281.99,415.21c-7.31,12.26-13.27,25.63-15.67,40.05-2.15,12.95-2.35,26.22-3.75,39.31-.26,2.4-1.6,5.92-3.36,6.61-2.14.84-5.51-.24-7.84-1.46-2.12-1.1-3.78-3.33-5.25-5.36-3.25-4.47-6.24-9.13-9.8-14.38-6.76,19.48-11.82,38.54-9.57,58.65,1.59,14.19,9.78,24.63,21.98,34.44-4.07-12.82-2.69-23.79,2.31-33.94,5.73-11.64,12.36-22.87,19.09-33.98,1.15-1.9,5.11-3.6,7.13-3.04,2.04.56,3.73,3.85,4.74,6.28.91,2.21.69,4.89.97,7.36l2.07.29c1.8-3.94,3.97-7.76,5.29-11.85,2.4-7.4.05-14.48-1.78-21.7-.65-2.57.43-6.75,2.3-8.52,3.08-2.91,6.56-.78,8.94,2.22,3.25,4.11,6.91,8.04,9.38,12.59,4.5,8.28,8.25,16.96,12.33,25.51,6.56-2.54,8.56-1.75,11.77,5.08.99,2.11,1.94,4.24,2.77,6.42,5.61,14.77,9.29,29.81,5.87,46.12,15.71-9.33,24.8-31.02,21.32-50.02-4.37-23.83-16.49-44.19-28.99-64.36-.12-.19-.68-.1-.56-.09-3.18,4.89-5.96,9.8-9.37,14.23-4.31,5.6-7.2,5.91-12.78,1.72-10.79-8.11-19.48-18.1-23.57-31.1-2.75-8.76-4.03-17.98-5.99-27.08ZM48.81,405.61h207.55v-23.43H48.81v23.43ZM48.78,515.19h165.69c1.6-8.12,3.09-15.67,4.6-23.31H48.78v23.31ZM271.85,524.38c-4.22,10.4-8.55,19.46-11.57,28.95-3.29,10.36.78,19.07,8.76,25.97,14.09,12.17,37.47,12.24,51.69.26,11.11-9.36,13.6-27.16,6.41-38.01-4.58,1.71-9.19,5.21-12.95,4.45-6.32-1.26-3.6-7.88-4.1-12.43-.04-.38,0-.78-.02-1.16-.54-8.77-2.13-17.27-5.48-24.4-4.18,6.26-7.67,13.06-12.62,18.55-7.76,8.6-10.94,8.13-20.12-2.16Z"/>
          <path class="cls-1" d="M340.81,196.62c-5.86-59.5,41.08-104.57,93.64-103.02,49.18,1.45,94.07,44.84,87.8,103.8,6.91-.95,13.75-1.02,20.03-2.91,21.76-6.53,36.53-29.57,34.97-53.5-1.63-24.99-17.91-44.72-40.81-48.9-4.69-.86-9.66-.37-14.49-.29-5.35.09-7.7-1.78-7.56-7.12.4-15.27-3.52-29.19-12.31-41.72-2.3-3.28-2.69-6.7.88-9.22,3.79-2.68,6.92-1.1,9.38,2.42,7.73,11.05,12.61,23.26,13.63,36.69.36,4.81,2.02,5.92,6.52,6.34,30.47,2.85,54.39,27.42,56.67,57.8,2.55,34.04-16.38,62.65-46.86,70.14-6.14,1.51-12.72,1.12-19.03,2.05-1.82.27-4.39,1.74-4.95,3.27-13.11,36-38.44,56.92-76.35,62.59-1.32.2-2.6.62-4.35,1.05,0,10.55,0,21.03,0,31.5,0,1.94.04,3.89-.08,5.83-.24,3.71-2.32,5.73-6.02,5.68-3.74-.05-5.73-2.23-5.77-5.92-.09-9.52-.05-19.05-.07-28.58,0-2.7,0-5.4,0-8.5-5.02-.93-9.99-1.12-14.39-2.81-10.26-3.94-20.34-8.41-30.31-13.04-4.3-1.99-7.62-5.27-4.73-10.66,2.08-3.88,5.58-3.73,11.52.19,32.59,21.49,75.01,17.1,101.03-11.42,22.53-24.7,27.62-53.4,14.95-84.4-11.95-29.25-40.49-47.76-72-47.43-31.64.33-55.41,14.85-69.74,42.69-14.13,27.47-11.44,54.81,5.49,80.68.64.97,1.39,1.87,2.02,2.85,2.15,3.31,2.74,6.7-.9,9.21-3.4,2.35-7.05,1.7-9.1-1.84-4.93-8.54-9.87-17.12-13.89-26.1-1.74-3.88-3.39-5.07-7.45-5.08-16.12-.03-32.38.85-48.31-1.02-22.8-2.68-40.49-25.13-40.16-48.15.06-4.09,1.6-7.03,5.77-7.36,4.34-.34,5.85,2.73,6.6,6.61,1.09,5.67,1.64,11.7,4.04,16.82,6.31,13.41,17.08,20.78,32.31,20.77,13.95,0,27.9,0,42.38,0Z"/>
          <path class="cls-1" d="M297.23,107.64c1.84-6.86,3.53-13.17,5.48-20.45-4.4,0-8.59.07-12.77-.02-4.08-.08-7.64-1.35-7.47-6.17.17-4.69,3.62-5.97,7.79-5.84.58.02,1.17-.03,1.75,0,10.95.73,20.02-.92,29.28-9.2,17.17-15.35,41.17-15.3,60.72-3.04,1.44.9,2.92,1.75,4.78,2.85,3.24-14.06,9.12-26.31,18.57-36.75C426.16,6.04,459.61-.09,486.78,14.19c.69.36,1.38.72,2.05,1.1,3.65,2.09,5.77,4.95,3.35,9.06-2.21,3.75-5.43,3.17-9.15,1.85-7.61-2.7-15.31-6.37-23.17-6.93-29.85-2.14-55.65,19.38-60.86,49.65-.53,3.06-.39,6.28-1.29,9.2-.78,2.55-2.2,6.28-4.06,6.78-2.27.6-6.12-.86-7.86-2.75-7.97-8.66-17.28-14.5-29.18-15.25-23.34-1.48-43.68,16.16-46.39,39.95-.13,1.16-.22,2.32-.32,3.48-.82,9.88-1.38,10.37-11.34,9.92-12.25-.55-21.78,4.57-29.16,14.1-.95,1.23-1.68,2.62-2.63,3.84-2.32,2.99-5.2,4.24-8.57,1.85-3.24-2.29-3.52-5.38-1.5-8.7,8.3-13.64,20.25-21.68,36.23-23.48,1.34-.15,2.69-.15,4.29-.23Z"/>
          <path class="cls-1" d="M478.68,183.57c-1.24,1.17-4.09,3.78-5.24,4.68-2.99,2.33-6.56,1.39-8.14.07-2.56-2.13-2.22-6.38-.97-7.93,4.98-6.16,10.64-11.85,16.51-17.2,3.03-2.76,6.57-1.57,9.26,1.44,4.27,4.78,8.51,9.59,12.76,14.39,2.67,3.02,3.4,6.29.34,9.31-3.04,3-6.31,2.29-9.32-.4-.55-.49-1.16-.91-2.23-1.73-.77,4.19-1.26,7.94-2.16,11.59-6.65,27.1-30,45.48-58.06,45.88-4.62.07-8.56-1.14-8.61-6.36-.04-4.85,3.69-6.11,8.05-6.42,23.53-1.7,39.49-13.53,45.31-33.6,1.12-3.86,1.55-7.92,2.31-11.88l.2-1.83Z"/>
          <path class="cls-1" d="M385.33,175.9c1.92-1.47,3.25-2.62,4.35-3.17,3.72-1.87,6.06-.01,7.68,1.53,1.33,1.27,1.62,5.72.44,7.14-4.98,5.93-10.48,11.46-16.21,16.7-3.09,2.83-6.57,1.64-9.23-1.37-4.25-4.8-8.4-9.69-12.64-14.5-2.89-3.27-4.4-6.84-.63-10.19,3.66-3.25,7.19-1.88,10.01,1.66.6.76,1.75,3.18,2.21,4.05l.5-2.13c.47-1.76.98-3.5,1.39-5.27,6.4-27.89,32.07-47.51,60.65-46.33,1.16.05,2.33.12,3.48.31,4.13.67,7.9,2.02,7.31,7.19-.58,5.05-4.32,5.64-8.63,5.52-26.34-.75-45.69,13.8-50.66,38.86Z"/>
          <path class="cls-1" d="M104.76,143.58c0,6.61-.02,13.22.01,19.83.02,4.17-1.27,7.56-5.98,7.69-4.71.13-6.31-3.1-6.31-7.34-.01-13.61-.04-27.22.02-40.83.02-3.9,1.46-7.07,5.94-7.12,4.75-.05,6.3,3.12,6.31,7.35.02,6.8,0,13.61,0,20.41Z"/>
          <path class="cls-1" d="M437.38,429.4c0,6.58-.01,13.17,0,19.75,0,4.05-1.74,6.98-5.92,7.18-4.32.2-6.21-2.81-6.23-6.78-.09-13.94-.09-27.89,0-41.83.02-3.96,1.86-7,6.17-6.89,4.2.11,5.99,3.01,5.99,7.08,0,7.17,0,14.33,0,21.5Z"/>
          <path class="cls-1" d="M92.48,211.57c0-6.58,0-13.17,0-19.75,0-4.17,1.47-7.59,6.07-7.62,4.52-.03,6.23,3.18,6.23,7.45-.02,13.55.01,27.11-.02,40.66,0,4.2-1.61,7.34-6.34,7.26-4.45-.08-5.88-3.18-5.91-7.09-.07-6.97-.02-13.94-.02-20.91Z"/>
          <path class="cls-1" d="M104.73,87.32c0,3.57.17,6.43-.04,9.26-.28,3.8-2.59,6.77-6.26,5.95-2.29-.51-5.22-3.59-5.64-5.92-.87-4.89-.44-10.04-.2-15.07.2-4.08,2.58-6.36,6.79-6.37,8.92-.02,17.84-.06,26.75.03,3.87.04,6.39,2.19,6.46,6.03.07,3.94-2.63,5.97-6.41,6.05-6.92.15-13.85.04-21.45.04Z"/>
          <path class="cls-1" d="M437.38,495.67c0,6.4.37,12.82-.19,19.17-.21,2.41-2.16,6.08-4.03,6.61-2.7.76-6.64-.05-8.92-1.72-1.23-.9-.19-5.02,0-7.67.14-1.89.85-3.75.87-5.62.1-9.69.03-19.38.06-29.07.01-4.25,1.02-8.06,6.26-7.92,5.17.14,6,3.93,5.96,8.2-.06,6.01-.02,12.02-.02,18.03Z"/>
          <path class="cls-1" d="M173.19,87.2c-6.61,0-13.22.04-19.82-.01-4.04-.03-7.59-1.07-7.59-6,0-4.8,3.25-6.12,7.46-6.11,13.41.03,26.82.06,40.23-.02,4.28-.02,7.57,1.42,7.65,6,.09,4.69-3.36,6.13-7.53,6.13-6.8,0-13.61,0-20.41,0Z"/>
          <path class="cls-1" d="M437.44,360.33c0,6.8,0,13.6,0,20.41,0,4.04-1.56,6.93-5.98,7-4.5.08-6.03-2.87-6.04-6.88-.02-13.8,0-27.6,0-41.4,0-4.06,1.68-7.1,5.97-7.08,4.59.03,6.15,3.22,6.09,7.54-.1,6.8-.03,13.6-.03,20.41Z"/>
          <path class="cls-1" d="M241.79,75.09c6.8,0,13.59.02,20.39,0,4.26-.02,7.37,1.46,7.35,6.23-.02,4.56-3.25,5.84-7.12,5.86-13.79.05-27.57.04-41.36-.02-4.02-.02-6.93-1.79-6.79-6.2.14-4.38,3.09-5.88,7.13-5.86,6.8.03,13.59,0,20.39,0Z"/>
          <path class="cls-1" d="M79.21,338.55c0-4.27-.09-8.55.04-12.82.11-3.83,2.2-6.42,6.01-6.61,4.2-.21,6.56,2.53,6.65,6.53.21,8.74.21,17.49,0,26.23-.09,3.98-2.37,6.79-6.59,6.6-4.17-.19-6.07-3.04-6.11-7.1-.04-4.27,0-8.55,0-12.82Z"/>
          <path class="cls-1" d="M64.26,338.79c0,4.46.11,8.93-.04,13.39-.13,3.88-2.5,6.77-6.15,6.1-2.36-.43-5.86-3.46-6.01-5.53-.65-9.26-.65-18.63,0-27.89.15-2.08,3.65-5.15,6.01-5.57,3.61-.65,6.04,2.2,6.16,6.11.14,4.46.03,8.93.03,13.39Z"/>
          <path class="cls-1" d="M106.9,338.85c0-4.46-.1-8.92.03-13.37.11-3.87,2.31-6.33,6.13-6.37,3.82-.04,6.15,2.38,6.2,6.27.12,8.91.13,17.83,0,26.74-.05,3.85-2.26,6.32-6.13,6.35-3.88.04-6.07-2.38-6.19-6.25-.15-4.45-.03-8.91-.04-13.37Z"/>
          <path class="cls-1" d="M79.23,557.96c0-4.27-.12-8.55.03-12.82.13-3.85,2.31-6.32,6.14-6.44,3.88-.12,6.35,2.37,6.45,6.12.24,9.12.43,18.29-.23,27.37-.15,2.09-3.56,5.07-5.93,5.62-3.73.86-6.16-2.06-6.39-5.85-.28-4.65-.07-9.32-.07-13.99Z"/>
          <path class="cls-1" d="M64.27,558.24c0,4.46.07,8.92-.03,13.38-.09,3.83-1.99,6.29-5.99,6.46-4.03.17-6.35-2.26-6.45-5.99-.25-9.11-.25-18.23,0-27.33.11-3.77,2.58-6.15,6.54-5.9,3.89.25,5.87,2.69,5.91,6.57.05,4.27.01,8.53,0,12.8Z"/>
          <path class="cls-1" d="M106.86,558.21c0-4.26-.05-8.53.02-12.79.07-4.14,2.25-6.77,6.39-6.7,3.82.06,5.98,2.58,6.02,6.46.08,8.72.09,17.44,0,26.15-.04,4.07-2.06,6.75-6.37,6.65-4.35-.1-6.01-2.98-6.06-6.99-.05-4.26-.01-8.52,0-12.79Z"/>
          <path class="cls-1" d="M91.99,448.52c0,4.27.13,8.55-.03,12.81-.15,3.92-1.91,6.94-6.23,6.97-4.58.04-6.49-2.96-6.52-7.23-.05-8.35-.04-16.7,0-25.05.02-4.09,2.04-6.88,6.19-7,4.19-.12,6.34,2.68,6.53,6.68.21,4.26.05,8.54.05,12.81Z"/>
          <path class="cls-1" d="M64.27,448.88c0,4.27.06,8.54-.02,12.8-.07,3.81-1.87,6.4-5.84,6.62-4.33.25-6.57-2.47-6.67-6.43-.22-8.92-.2-17.84.04-26.76.1-3.78,2.54-6.24,6.42-6.09,3.8.15,5.99,2.54,6.05,6.46.07,4.46.02,8.92.02,13.38Z"/>
          <path class="cls-1" d="M119.31,448.44c0,4.46.08,8.91-.03,13.37-.09,3.79-1.92,6.39-5.93,6.51-4.29.13-6.4-2.44-6.45-6.55-.1-8.72-.07-17.44-.01-26.15.03-3.87,2.13-6.44,5.94-6.56,4.13-.13,6.38,2.45,6.46,6.6.09,4.26.02,8.52.02,12.79Z"/>
        </g>
      </g>
    </g>
  </g>
</svg>