<?xml version="1.0" encoding="UTF-8"?>
<svg xmlns="http://www.w3.org/2000/svg" version="1.1" viewBox="0 0 594.84 595.28">
  <defs>
    <style>
      .cls-1 {
        fill: #eb2127;
      }
    </style>
  </defs>
  <!-- Generator: Adobe Illustrator 28.6.0, SVG Export Plug-In . SVG Version: 1.2.0 Build 709)  -->
  <g>
    <g id="Layer_1">
      <g id="al7AaP.tif">
        <g>
          <path class="cls-1" d="M540.08,506.5c-.56,1.25-1.18,2.49-1.66,3.77-3.88,10.18-13.01,16.94-23.88,16.96-47.56.1-95.12.14-142.67-.02-14.16-.05-25.23-11.5-25.4-25.82-.18-14.96-.05-29.92-.05-44.88,0-1.71,0-3.42,0-5.44h-96.46c0,1.73,0,3.41,0,5.08,0,14.49.03,28.98-.01,43.46-.05,16.61-10.97,27.65-27.45,27.67-46.3.04-92.6.04-138.9,0-16.26-.01-27.28-11.05-27.3-27.3-.04-41.57-.04-83.15,0-124.72.01-16.29,10.97-27.41,27.19-27.44,46.46-.07,92.91-.08,139.37,0,15.95.03,26.95,11.19,27.09,27.11.04,4.34,0,8.67,0,14.35,13.34-14.26,25.75-27.53,38.37-41.03-1.01-1.22-1.83-2.33-2.77-3.33-20.73-22.22-41.47-44.44-62.23-66.63-6.35-6.79-11.31-6.7-17.8.25-14.09,15.07-28.17,30.15-42.26,45.21-1.07,1.15-2.11,2.38-3.37,3.29-3.08,2.25-6.27,2.11-9.01-.5-2.76-2.63-2.89-5.81-.95-9.02.64-1.06,1.59-1.95,2.44-2.87,14.4-15.42,28.79-30.85,43.24-46.24,11.75-12.52,26.01-12.6,37.75-.1,20.05,21.35,40.01,42.79,60.01,64.19,1.49,1.59,2.98,3.19,5.29,5.66,1.19-1.63,2.06-3.12,3.21-4.36,20.29-21.77,40.59-43.54,60.94-65.25,11.96-12.76,26.14-12.77,38.08-.03,23.69,25.28,47.35,50.59,70.92,75.97,2.22,2.39,4.42,3.44,7.72,3.38,10.7-.21,21.42-.1,32.12-.07,14.39.03,22.89,6.12,27.62,19.69.14.4.54.71.82,1.06v27.4c-2.32,3.22-5,5.86-9.4,4.26-4.32-1.57-4.91-5.21-4.8-9.26.13-4.88.04-9.76.03-14.64-.03-9.9-4.46-14.34-14.44-14.34-45.49-.02-90.99-.02-136.48,0-9.93,0-14.38,4.49-14.39,14.41-.01,40.77-.01,81.54,0,122.31,0,9.97,4.42,14.41,14.35,14.41,45.49.01,90.99.01,136.48,0,10.21,0,14.48-4.35,14.48-14.74.01-21.57.05-43.13-.04-64.7-.02-4.08.59-7.76,4.92-9.18,4.32-1.42,7.19.95,9.3,4.52v77.48ZM152.66,513.12c22.99,0,45.98.01,68.97,0,9.62,0,14.13-4.51,14.13-14.17.02-40.94.02-81.89,0-122.83,0-9.6-4.55-14.13-14.21-14.13-45.67-.02-91.34-.02-137,0-9.63,0-14.09,4.54-14.09,14.21-.01,40.94-.01,81.89,0,122.83,0,9.64,4.48,14.09,14.17,14.1,22.68.02,45.35,0,68.03,0ZM346.41,436.39c0-2.12,0-3.83,0-5.53,0-18.11-.01-36.21,0-54.32.01-18.08,10.66-28.72,28.78-28.74,24.88-.02,49.75,0,74.63,0h5.74c-22.77-24.36-44.54-47.75-66.44-71.03-4.72-5.02-10.2-4.71-15.16.59-40.66,43.46-81.28,86.95-121.88,130.47-.91.98-2,2.32-2.03,3.51-.18,8.29-.09,16.58-.09,25.05h96.45Z"/>
          <path class="cls-1" d="M307.63,43.5c4.58,2.1,7.31,5.67,8.68,10.48.73,2.56,1.85,5.01,2.8,7.51,4.29,11.36,4.26,11.42,15.56,15.78,1.37.53,3.37.28,4.78-.31,5.94-2.48,11.78-5.22,17.64-7.89,5.31-2.41,9.95-1.67,14.25,2.44q14.11,13.48,6.06,31.33c-.26.57-.43,1.22-.81,1.7-5.87,7.36-2.51,14.39.91,21.3.58,1.18,2.24,2.05,3.59,2.59,5.83,2.33,11.76,4.44,17.61,6.72,6.13,2.39,8.26,5.53,8.35,12.18.05,3.78.02,7.56-.01,11.33-.04,5.33-2.62,8.92-7.55,10.83-6.01,2.33-12.13,4.39-17.99,7.03-1.97.89-3.57,3.01-4.89,4.89-4.88,6.89-3.56,13.62.58,20.42,1.95,3.2,3.17,6.83,4.71,10.28,2.26,5.07,1.18,9.51-2.62,13.38-2.65,2.7-5.34,5.35-8.01,8.02-4.02,4.03-8.66,4.85-13.82,2.53-5.88-2.63-11.66-5.5-17.64-7.89-1.76-.7-4.09-.41-6.07-.05-8.84,1.58-12.9,7.66-14.83,15.86-.68,2.88-2.02,5.61-3.09,8.4-.39,1.02-.78,2.07-1.33,3.01-5.27,9-14.12,5.64-21.76,6.07-5.33.3-9.44-2.22-11.46-7.4-2.29-5.85-4.58-11.71-6.64-17.65-.99-2.87-2.77-4.28-5.42-5.82-7.08-4.12-13.41-3.35-20.06.76-3.32,2.04-7.1,3.35-10.71,4.88-4.85,2.06-9.27,1.25-13.02-2.44-14.87-14.63-14.92-13.37-6.46-31.62.2-.43.35-.9.63-1.26,5.88-7.44,3.03-14.66-.69-21.74-.62-1.18-2.21-2.06-3.55-2.59-5.84-2.33-11.76-4.42-17.62-6.7-6.12-2.38-8.3-5.57-8.39-12.17-.05-3.78,0-7.56,0-11.33,0-5.35,2.62-8.97,7.49-10.89,5.99-2.37,12.14-4.36,18.02-6.97,1.98-.88,3.61-2.99,4.91-4.87,4.75-6.86,3.75-13.59-.5-20.41-2.06-3.3-3.36-7.09-4.9-10.71-2-4.7-1.11-8.94,2.41-12.6,2.62-2.72,5.31-5.38,8.01-8.02,4.78-4.68,8.75-5.38,14.98-2.62,5.46,2.42,10.8,5.14,16.37,7.25,2.03.77,4.66.53,6.89.11,8.09-1.54,12.43-6.74,14.2-14.67.81-3.64,2.09-7.38,4.06-10.51,1.9-3.02,4.96-5.32,7.51-7.93,6.3,0,12.6,0,18.9,0ZM361.95,82.46c-6.68,3.01-13.1,6.46-19.91,8.74-3.38,1.13-7.63.73-11.21-.13-4.37-1.05-8.72-2.87-12.58-5.2-3.02-1.83-6.12-4.5-7.68-7.56-2.91-5.71-4.88-11.92-6.94-18.02-.98-2.91-2.97-2.73-5.17-2.61-2.19.12-4.65-.82-5.71,2.51-1.57,4.94-3.83,9.66-5.33,14.62-1.99,6.59-5.72,10.93-12.7,12.45-2.86.63-5.59,2.11-8.2,3.54-4.37,2.39-8.56,2.44-13.05.28-6.33-3.04-12.8-5.79-19.03-8.57q-6.55,5.69-3.29,12.9c1.88,4.15,3.79,8.29,5.63,12.47,3.9,8.86-4.66,29.33-13.71,32.81-5.57,2.15-11.1,4.46-16.78,6.26-3.25,1.03-2.79,3.24-2.84,5.55-.05,2.39-.26,4.51,2.92,5.51,5.24,1.64,10.24,4.04,15.48,5.7,5.8,1.84,9.23,5.44,10.83,11.31.94,3.45,2.62,6.74,4.24,9.96,1.91,3.8,2.05,7.44.23,11.31-2.69,5.69-5,11.55-7.87,17.14-1.49,2.89-.07,4.25,1.68,5.97,1.83,1.79,3.21,3.53,6.37,1.89,5.57-2.9,11.27-5.74,17.22-7.63,3.28-1.04,7.36-.74,10.78.11,4.37,1.09,8.38,3.52,12.66,5.05,4.01,1.43,6.63,3.96,8.06,7.95,2.13,5.92,4.6,11.71,6.56,17.68,1.02,3.12,3.13,2.94,5.53,2.94,2.39,0,4.52.22,5.55-2.91,1.9-5.82,4.37-11.45,6.38-17.24,1.51-4.37,4.31-7.09,8.66-8.59,4-1.38,7.92-3.04,11.74-4.86,3.98-1.9,7.79-2.05,11.78-.17,5.26,2.48,10.7,4.6,15.85,7.3,3.12,1.63,4.97.92,7.31-1.41,2.24-2.24,2.83-3.93,1.23-6.86-2.32-4.27-3.82-8.99-6.15-13.25-3.14-5.77-3.42-11.18.09-16.92,1.62-2.64,2.68-5.71,3.55-8.71,1.39-4.8,4.24-7.84,9-9.44,5.36-1.81,10.52-4.23,15.93-5.86,3.58-1.08,3.79-3.24,3.93-6.33.15-3.33-1.15-4.75-4.16-5.68-4.2-1.3-8.17-3.36-12.39-4.52-7.02-1.93-11.52-5.87-13.2-13.18-.73-3.16-2.44-6.12-3.94-9.06-1.86-3.65-1.92-7.18-.2-10.87,2.45-5.27,4.51-10.76,7.29-15.85,1.88-3.45,1.47-5.75-1.57-7.94-1.01-.72-1.86-1.65-2.89-2.57Z"/>
          <path class="cls-1" d="M510.85,245.25c0,24.71,0,49.42,0,74.14,0,1.42.11,2.86-.1,4.24-.58,3.73-2.79,5.97-6.6,6.17-3.85.21-6.27-1.9-7.18-5.5-.42-1.64-.27-3.44-.27-5.16-.01-48.95,0-97.9-.01-146.86,0-9.82-2.83-12.66-12.62-12.67-16.05-.01-32.11,0-48.16-.01-1.57,0-3.2.13-4.7-.24-3.85-.95-5.97-3.48-5.61-7.55.34-3.82,2.66-6.24,6.44-6.26,19.52-.09,39.05-.48,58.54.25,11.54.43,20.2,11.24,20.25,23.42.1,25.34.03,50.68.03,76.02Z"/>
          <path class="cls-1" d="M85.51,245.17c0-24.72-.02-49.44,0-74.17.02-15.99,9.54-25.51,25.57-25.56,16.85-.05,33.7-.04,50.55,0,5.15.01,8.01,2.29,8.35,6.39.39,4.67-2.85,7.72-8.51,7.74-16.22.05-32.44.02-48.66.02-10.47,0-13.14,2.66-13.14,13.1,0,48.66,0,97.31,0,145.97,0,1.42.06,2.84-.02,4.25-.26,4.66-3.23,7.78-7.25,7.7-4.04-.09-6.86-3.2-6.87-7.98-.06-19.68-.03-39.37-.03-59.05,0-6.14,0-12.28,0-18.42Z"/>
          <path class="cls-1" d="M402.37,437.53c0-10.54-.05-21.08.01-31.62.07-12.06,8.95-17.35,19.42-11.53,18.95,10.53,37.83,21.18,56.8,31.69,4.57,2.53,7.89,5.73,7.96,11.29.08,5.76-3.27,9.11-8.01,11.73-18.83,10.42-37.58,20.99-56.39,31.46-10.82,6.02-19.72.89-19.79-11.4-.06-10.54-.01-21.08-.01-31.62ZM416.69,467.39c18.06-10.11,35.34-19.77,53.33-29.84-18.21-10.17-35.51-19.83-53.33-29.78v59.62Z"/>
          <path class="cls-1" d="M153.01,464.61c15.25,0,30.5.01,45.76.01,10.13,0,10.46,4.84,10.54,7.82.1,3.46-1.31,4.75-4.76,5.82-1.32.41-2.78.49-4.18.49-31.45.03-62.9.02-94.34.02-.94,0-1.9.02-2.82-.11-4.16-.62-6.65-3.44-6.38-7.37.28-4.08,2.66-6.3,6.66-6.56,3.29-.21,6.6-.12,9.9-.12,13.21,0,26.42,0,39.62,0Z"/>
          <path class="cls-1" d="M152.87,410.54c-15.09,0-30.19,0-45.28,0-1.57,0-3.16.03-4.7-.19-3.78-.54-5.94-2.79-6.05-6.63-.12-4.07,2.07-6.47,6.04-7.13,1.38-.23,2.82-.2,4.23-.2,30.66-.01,61.32,0,91.98,0,1.26,0,2.53-.03,3.77.13,4.23.55,6.76,3.29,6.55,7.2-.22,4.06-2.55,6.27-6.53,6.72-1.4.16-2.83.12-4.24.12-15.25,0-30.5,0-45.75,0Z"/>
          <path class="cls-1" d="M153.1,430.5c15.25,0,30.5,0,45.75.01,1.72,0,4.7.15,6.09.47,2.5.57,3.99,1.78,4.25,6.18.2,3.46-1.27,6.07-4.74,7.02-1.78.49-3.73.47-5.61.47-30.5.03-61.01.02-91.51.01-1.41,0-2.85.05-4.24-.16-3.95-.59-6.29-2.85-6.28-6.94,0-4.08,2.27-6.39,6.28-6.9,1.55-.2,3.14-.16,4.71-.16,15.09-.01,30.19,0,45.28,0Z"/>
          <path class="cls-1" d="M298.31,200.61c-26.55.09-48.19-21.31-48.33-47.78-.14-26.67,21.46-48.54,48.07-48.66,26.34-.12,48.19,21.55,48.33,47.92.15,26.8-21.29,48.43-48.07,48.52ZM298.17,186.44c18.78,0,33.95-15.04,34.04-33.74.09-18.88-15.24-34.35-34.03-34.36-18.58,0-33.96,15.31-34.04,33.88-.07,18.99,15.07,34.22,34.02,34.22Z"/>
        </g>
      </g>
    </g>
  </g>
</svg>