<?xml version="1.0" encoding="UTF-8"?>
<svg xmlns="http://www.w3.org/2000/svg" version="1.1" viewBox="0 0 594.84 595.28">
  <defs>
    <style>
      .cls-1 {
        fill: #eb2127;
      }
    </style>
  </defs>
  <!-- Generator: Adobe Illustrator 28.6.0, SVG Export Plug-In . SVG Version: 1.2.0 Build 709)  -->
  <g>
    <g id="Layer_1">
      <g id="q60JdX.tif">
        <g>
          <path class="cls-1" d="M580.6,122.36c.03-2.18.03-4.34.03-6.5,0-7.14-.62-8.06-7.39-10.81-.7-.27-1.51-.54-2.34-.81-3.02-.94-6.15-1.97-7.14-4.66-.65-1.83-1.56-3.64-2.53-5.58-3.15-6.23-7.09-13.96-.73-22.88.86-1.24,3.53-5.01-2.13-10.35-5.88-5.53-10.59-10.21-14.8-14.82-3.69-3.99-7.06-4.61-11.67-2.18-.46.22-.92.49-1.4.75-3.26,1.81-6.98,3.85-9.92,2.43-1.78-.86-3.77-1.51-5.88-2.21-6.55-2.18-14.72-4.91-16.55-15.63-.24-1.51-1.05-6.09-8.81-5.79-7.52.32-14.39.32-20.97,0-5.39-.27-8.22,1.7-9.78,6.68-.16.48-.3,1-.46,1.54-1.05,3.56-2.21,7.6-5.28,8.68-1.86.67-3.69,1.62-5.66,2.59-6.2,3.15-13.93,7.06-22.8.73-2.16-1.56-5.58-3.02-10.32,2.05-3.02,3.23-6.2,6.36-9.27,9.41-1.4,1.37-2.8,2.75-4.2,4.12-6.33,6.33-6.58,6.58-2.7,14.53,2.24,4.61,3.96,10.13-.19,16.09-.81,1.13-1.43,2.67-1.78,4.31-1.21,5.69-4.56,9.11-10.22,10.43-7.33,1.75-10,5.07-9.24,11.43l.35,3.02h-54.15c-69.4,0-138.83,0-208.27.03h-.78c-4.15.03-8.52,0-12.45.78-20.27,4.02-33.91,20.54-33.96,41.13-.08,34.8-.08,69.57-.05,104.33v54.74l-3.96-2.13c-5.85-3.13-9.35-1.08-13.45,3.56-2.34,2.64-4.91,5.09-7.36,7.49-1.11,1.08-2.24,2.16-3.32,3.26q-7.3,7.28-3.1,17.06l.3.67c1.16,2.61,2.59,5.82,1.32,8.44-.78,1.64-1.43,3.4-2.13,5.26-2.7,7.2-5.77,15.36-17.03,16.85-.73.08-2.05,1.4-3.02,2.34,0,0,0,0-.01.01-.77.81-1.23,1.87-1.23,2.99v25.66c0,1.38.67,2.68,1.8,3.47l.38.27c2.67,1.89,5.34,3.75,8.06,5.55.46.3,1.29.59,2.08.89,1.91.73,4.1,1.54,4.8,3.72.62,1.97,1.56,3.91,2.56,5.96,2.96,6.15,6.66,13.8.4,22.51-.86,1.19-3.42,4.74,1.97,9.89,3.34,3.18,6.6,6.47,9.86,9.76,1.62,1.64,3.26,3.26,4.88,4.91,5.04,5.01,5.74,5.15,12.34,2.34.73-.3,1.54-.73,2.34-1.13,2.99-1.56,6.09-3.15,8.79-1.83,1.75.86,3.69,1.51,5.77,2.24,6.58,2.24,14.74,5.04,16.52,15.77.65,3.85,3.42,5.74,8.36,5.58,4.66-.16,9.41-.13,13.99-.08,2.26,0,4.56.03,6.82.03,7.28-.03,7.9-.43,10.7-7.47.27-.67.51-1.46.78-2.24,1-3.07,2.02-6.28,4.77-7.22,1.86-.62,3.75-1.56,5.71-2.56,6.2-3.1,13.91-6.93,22.72-.51,1.21.89,4.88,3.56,10.27-2.24,4.29-4.66,7.98-8.46,12.02-11.99,6.9-6.01,7.95-10.22,4.1-16.06l-2.72-4.18h30.83v37.14c-.03.73-.13,1.37-.27,2.05-.05.32-.13.67-.19,1.11l-.38,2.26h-8.46c-4.47-.03-8.92-.05-13.37.03-3.07.08-6.15.08-9.24.08-7.68,0-15.63,0-23.23.97-17.84,2.29-28.95,15.17-28.95,33.64v16.14c0,9.14,1.37,10.51,10.54,10.51h305.49c8.33,0,9.81-1.51,9.84-10.03.03-5.58.03-11.13,0-16.71-.03-18.46-11.13-31.32-28.97-33.56-7.84-.97-16.01-.97-23.93-.97-3.23,0-6.47,0-9.7-.08-4.15-.08-8.33-.05-12.51-.03h-8.41v-43.07h35.07c25.25.03,50.54.03,75.82-.05,4.5,0,9.3-.11,13.72-1.1,20.16-4.53,32.69-21.13,32.75-43.31,0-13.5.05-27.01.11-40.54.13-42.42.27-86.28-.49-129.4-.24-14.61,1.7-29.73,17.38-41.45,5.36-4.02,5.28-5.31,2.24-12.43-.3-.7-.7-1.46-1.11-2.24-1.48-2.83-3.02-5.77-1.78-8.36.84-1.75,1.48-3.69,2.16-5.74,2.21-6.58,4.99-14.8,15.63-16.68,1.54-.3,6.15-1.11,5.88-8.81-.13-4.61-.11-9.25-.08-13.75ZM397.69,188.42c3.91,4.72,8.49,9.11,12.88,13.37,1.56,1.51,3.13,3.02,4.66,4.53,3.69,3.67,7.33,2.43,9.76.73,8.57-6.04,15.93-2.24,21.86.84,2.05,1.05,4.02,2.08,5.96,2.7,3.07,1,4.18,4.88,5.26,8.62.16.57.35,1.16.51,1.67,1.54,4.88,4.39,6.79,9.95,6.71,6.04-.13,11.97-.11,18.22-.08,2.7.03,5.42.03,8.17.03h2.7v146.06h-53.61c-77.14,0-156.92,0-235.38.13h-.03c-5.79,0-8.17-2.48-10.32-6.79-2.91-5.79-5.5-13.58.08-22.45.73-1.16,2.96-4.69-2.1-9.54-6.09-5.85-11.02-10.78-15.55-15.58-5.28-5.58-9.14-2.86-10.4-1.97-8.84,6.28-16.5,2.4-22.64-.73-1.99-1-3.88-1.97-5.77-2.61-3.02-1.05-4.1-4.85-5.15-8.52-.19-.62-.35-1.21-.54-1.78-1.54-4.82-4.31-6.79-9.35-6.58-3.05.13-6.12.11-9.33.05-1.48,0-3.02-.03-4.61-.03h-2.7v-135.09l2.53-.16c.67-.03,1.32-.08,1.97-.13,1.48-.11,2.94-.22,4.37-.22,90.45-.03,180.94-.03,271.39-.03,3.53,0,7.39.38,9.22,3.15,1.81,2.78.62,6.44-.78,9.65-.35.81-.78,1.62-1.24,2.43-.67,1.21-1.37,2.48-1.4,3.37-.03,1.75-.08,6.41,1.43,8.25ZM80.24,266.61c0-34.28,0-68.6.03-102.88,0-20.13,11.48-31.7,31.48-31.7,76.2-.05,152.37-.03,228.56-.03h27.87c1.24,0,2.48.08,3.64.16l3.34.16,4.12,16.04h-53.37c-70.97,0-141.93-.03-212.9.08-4.47,0-8.3.73-11.02,2.05-3.83,1.86-5.28,5.31-5.28,12.34.08,25.2.05,50.43.05,75.63v26.36c0,2.96,0,5.93.03,8.89.03,7.49.05,15.23-.13,22.86-.05,2.78-.67,5.44-1.29,8.01-.24,1.02-.49,2.05-.67,3.07-1.64,8.33-9.16,8.6-11.64,8.68l-2.8.08v-49.81ZM188.05,420.51c-1.4,5.36-3.45,10.35-5.98,14.5-3.21,5.26-3.37,9.49-.51,13.72,4.12,6.17.35,10.3-2.43,13.29l-.3.3c-2.91,3.18-7.03,6.28-13.21,2.29-4.29-2.8-8.41-2.61-13.83.59-4.82,2.88-10.32,4.69-15.98,6.44-4.64,1.43-6.93,3.5-7.68,6.95-1.35,6.39-5.09,9.68-10.84,9.68-1.02,0-2.16-.11-3.32-.32-.75-.16-1.64-.16-2.75-.19-.65,0-1.35,0-2.13-.05l-2.37-.11-.19-2.35c-.78-8.76-5.98-13.56-17.38-15.98-1.97-.4-3.99-1.29-5.71-2.51-6.93-4.85-12.91-5.2-19.43-1.11-5.28,3.32-8.44-.92-9.78-2.72-.46-.65-.97-1.32-1.35-1.59-1.89-1.37-6.66-4.85-3.07-10.24,4.02-6.04,3.77-11.7-.73-18.36-2.1-3.15-3.69-7.12-4.77-12.13-1.32-5.98-4.18-9.08-9.27-10.08-7.41-1.4-7.6-6.9-7.76-10.92l-.05-1c-.27-5.88,2.13-9.22,7.57-10.46,5.26-1.24,8.17-4.34,9.49-10.11,1.21-5.23,3.21-10.11,5.77-14.1,3.48-5.42,3.64-10,.49-14.82-3.96-6.06.03-9.95,2.67-12.51l.46-.46c2.64-2.59,6.6-6.5,12.59-2.48,4.66,3.13,9.06,2.97,14.74-.59,4.07-2.53,8.92-4.53,14.04-5.74,5.82-1.4,8.76-4.1,9.78-8.98,1.59-7.71,7.74-7.82,11.4-7.9,4.45-.08,9.73.75,11.35,8,1.02,4.64,3.91,7.36,9.38,8.76,5.74,1.51,10.81,3.58,15.01,6.17,5.18,3.18,9.41,3.32,13.8.51,6.6-4.29,10.86.03,13.15,2.32,2.43,2.45,6.95,7.01,2.59,13.69-2.75,4.15-2.61,8.25.38,13.26,2.64,4.42,4.8,9.6,6.2,14.99,1.51,5.77,4.31,8.79,9.08,9.81,7.87,1.67,7.98,7.95,8.03,11.32.05,4.45-.81,9.76-8.17,11.29-4.74,1.02-7.44,3.96-8.98,9.89ZM426.56,502.45c3.61,0,7.06.32,10.24.97,11.48,2.32,16.85,8.87,16.87,20.57v13.23H154.12v-2.7c0-1.62-.03-3.23-.05-4.85-.08-3.58-.16-7.3.19-11,.59-6.36,4.85-11.24,11.99-13.69,4.69-1.62,9.84-2.48,14.9-2.48,84.71-.13,171.1-.11,245.41-.05ZM367.15,476.74l.05,4.37c.03,1.73-.13,4.2-1.86,5.93-1.29,1.29-3.15,1.91-5.74,1.91h-.05c-28.35-.08-56.74-.08-85.12-.11h-30.59c-.49,0-.97-.05-1.7-.19-.27-.05-.62-.11-1.05-.16l-2.32-.35v-40.67l2.53-.16c.7-.03,1.37-.08,2.05-.13,4.42-.32,8.62-.22,12.91-.22h22.45c25.69.03,52.26.05,78.38-.13,2.72,0,6.01.24,8.14,2.45,2.08,2.21,2.21,5.34,2.08,7.84-.35,6.5-.24,13.18-.16,19.62ZM527.47,395.9v.81c0,3.37,0,6.87-.24,10.32-1,13.42-11.78,24.42-25.09,25.61-4.04.35-8.09.35-12.05.35h-.86c-72.69.03-145.38.03-218.1.03h-69.62l-3.02-4.66,1.62-1.54c.46-.46.92-.94,1.35-1.46,1.19-1.35,2.53-2.88,4.45-3.67,1.51-.65,2.86-1.16,4.07-1.64,8.44-3.34,8.76-3.48,8.44-17.33-.08-2.83-.05-5.69-.05-8.73.03-1.46.03-2.94.03-4.53v-2.7h280.85c10.81,0,12.05-1.24,12.05-12.18v-27.44c0-44.04,0-88.11.11-132.15,0-2.67.81-6.47,3.13-8.38,1.78-1.48,4.1-1.97,6.12-2.4.73-.13,1.46-.3,2.13-.49l2.86-.84.54,2.94c.13.7.3,1.4.46,2.08.4,1.72.81,3.48.81,5.36.08,60.89.05,121.77.05,182.63ZM559.25,136.8c-4.64,1.02-7.28,3.94-8.62,9.46-1.27,5.31-3.26,10.16-5.71,14.07-3.5,5.53-3.69,10.3-.62,15.47.65,1.08,1.08,2.18,1.51,3.29.19.46.38.97.59,1.46l.7,1.64-1.24,1.29c-.43.43-.81.84-1.19,1.19-.57.57-1.02,1.02-1.35,1.46-5.01,6.95-10.97,8.14-17.68,3.53-2.56-1.75-5.28-1.56-9.7.73-4.82,2.51-10.48,5.31-16.36,6.9-5.71,1.54-8.62,4.31-9.7,9.22-1.51,6.68-6.28,7.71-10.46,7.71h-.62c-3.94-.08-9.89-.22-11.46-7.79-1.02-4.99-4.1-7.76-10.27-9.3-5.04-1.24-10.22-3.42-14.99-6.28-4.69-2.8-8.44-2.96-12.21-.48-6.79,4.5-11.29.48-14.55-2.45-5.61-5.01-3.99-9.81-1.67-13.83,2.24-3.94,2.13-7.52-.38-11.99-2.7-4.74-4.99-10.27-6.82-16.41-1.51-5.15-3.96-7.74-8.14-8.73-5.93-1.4-8.65-4.91-8.81-11.35-.13-6.63,2.64-10.3,9.03-11.86,4.07-.97,6.47-3.64,8-8.89,1.73-6.04,3.94-11.37,6.55-15.96,2.8-4.85,2.94-8.54.49-12.29-4.47-6.79-.4-11.27,2.56-14.55,3.96-4.34,8.14-4.96,13.21-1.91,4.34,2.61,8.36,2.45,13.42-.62,4.61-2.78,9.46-4.8,13.99-5.82,6.36-1.43,9.7-4.56,10.89-10.08,1.54-7.3,7.3-7.17,10.75-7.06h1.16c3.45.03,8.68.08,10.05,7.06,1.11,5.55,4.42,8.65,10.81,10.05,4.91,1.1,9.6,3.05,13.58,5.61,5.34,3.48,10.03,3.61,14.77.46,5.77-3.85,9.46-.27,11.67,1.89.38.35.75.73,1.13,1.08,2.24,1.99,6.85,6.09,2.64,12.64-3.1,4.77-2.91,9.33.57,14.82,2.51,3.91,4.47,8.76,5.77,14.04,1.37,5.79,4.07,8.73,8.98,9.81,7.03,1.56,8.03,6.52,8.11,11.16.05,4.82-.89,10-8.38,11.64Z"/>
          <path class="cls-1" d="M263.92,313.48c-1.11,1.32-2.34,2.02-3.77,2.16-2.34.22-5.26-1.13-8.49-3.85l-13.67-11.51c-10.13-8.54-20.27-17.09-30.38-25.66-3.29-2.78-4.88-5.09-4.88-7.12s1.59-4.34,4.88-7.12c11-9.27,22.02-18.54,33.02-27.82l11.43-9.62c.7-.62,1.4-1.21,2.16-1.78,1.7-1.24,3.42-1.89,5.04-1.89,1.78,0,3.4.78,4.66,2.29,2.53,3.02,2.08,6.66-1.24,9.51-8.09,7.01-16.44,14.02-24.5,20.78-3.42,2.88-6.82,5.74-10.22,8.6-1.13.94-2.24,1.91-3.53,3.02l-4.74,4.07,37.76,31.91,2.67,2.21c8.03,6.77,5.18,10.16,3.8,11.81Z"/>
          <path class="cls-1" d="M405.13,267.53c0,1.97-1.51,4.26-4.47,6.77-15.23,12.88-30.48,25.74-45.77,38.57-2.51,2.08-7.22,4.93-10.92.59-1.13-1.35-1.64-2.78-1.54-4.29.19-2.1,1.56-4.29,3.99-6.36,9-7.63,18.03-15.23,27.33-23.04l14.5-12.24-11.78-9.95c-9.65-8.11-19.06-16.06-28.46-24.01-.35-.32-.73-.62-1.11-.92-1.05-.86-2.08-1.67-2.8-2.59-2.29-2.83-2.4-5.53-.27-8.25,1.37-1.75,2.94-2.64,4.74-2.64,1.13,0,2.37.35,3.69,1.05.86.46,1.7,1.16,2.75,2.05l9.57,8.03c12.08,10.16,24.15,20.35,36.17,30.56,2.91,2.45,4.37,4.72,4.37,6.66Z"/>
          <path class="cls-1" d="M325.86,210.39l-.4,1.83c-.27,1.37-.57,2.72-.92,4.04-9.54,35.58-19.08,71.13-28.62,106.68-.24.86-.49,1.73-.78,2.56-1.51,4.23-4.53,6.06-8.36,4.99-3.48-.97-5.17-4.26-4.18-8.17,2.26-9.11,4.74-18.33,7.17-27.25,1.05-3.88,2.1-7.74,3.13-11.62l5.31-19.97c4.5-16.87,9-33.75,13.58-50.83.49-1.89.97-3.67,1.78-5.12.73-1.29,3.23-5.28,6.74-5.28.22,0,.46,0,.7.05,2.88.46,5.44,1.75,4.85,8.09Z"/>
          <path class="cls-1" d="M479.55,69.56h-1.02c-14.39,0-28,5.5-38.44,15.58-10.78,10.4-16.87,24.47-17.12,39.54v.89c0,30.08,24.34,54.85,54.69,55.39,14.91.3,29-5.28,39.73-15.66,10.75-10.4,16.82-24.34,17.06-39.3.49-30.05-24.66-55.9-54.9-56.44ZM478.39,167.67h-.51c-23.1-.27-41.78-19.43-41.59-42.72.11-11.62,4.91-22.13,12.56-29.76,7.65-7.6,18.17-12.32,29.73-12.32h.13c11.35.03,22.05,4.61,30.16,12.86,8.03,8.19,12.37,18.87,12.21,30.05-.35,23.21-19.46,41.89-42.69,41.89Z"/>
          <path class="cls-1" d="M116.44,343.64h-.22c-14.91,0-28.95,5.82-39.54,16.36-10.54,10.54-16.36,24.47-16.36,39.3.03,14.77,5.88,28.76,16.52,39.32,10.62,10.59,24.61,16.41,39.43,16.41h.19c30.54-.11,55.36-25.12,55.36-55.77s-24.85-55.52-55.39-55.63ZM145.95,429.41c-7.65,7.63-18.19,12.34-29.78,12.34h-.08c-11.32-.03-22.05-4.58-30.13-12.83-8.06-8.17-12.43-18.87-12.26-30.05.35-23.21,19.46-41.94,42.72-41.94h.46c23.13.24,41.78,19.41,41.62,42.75-.11,11.59-4.88,22.13-12.53,29.73Z"/>
        </g>
      </g>
    </g>
  </g>
</svg>